0
SECTION
2
HEADER
9
$INSUNITS
70
4
0
ENDSEC
0
SECTION
2
TABLES
0
TABLE
2
LTYPE
0
LTYPE
72
65
70
64
2
CONTINUOUS
3
______
73
0
40
0
0
ENDTAB
0
TABLE
2
LAYER
0
ENDTAB
0
ENDSEC
0
SECTION
2
ENTITIES
0
LINE
8
0
10
-26.1583246
20
-21.3669575
11
-26.1866338
21
-21.3719492
0
LINE
8
0
10
-36.9528208
20
39.6861315
11
-26.1866338
21
-21.3719492
0
LINE
8
0
10
-35.3305017
20
42.0030433
11
-0.8622302
21
48.0807296
0
LINE
8
0
10
2.2087598
20
53.6993611
11
20.6348838
21
56.9483839
0
LINE
8
0
10
0.5864407
20
51.3824493
11
0.7600889
21
50.3976414
0
LINE
8
0
10
46.2875874
20
65.031322
11
46.2875874
21
67.2180434
0
LINE
8
0
10
24.2875874
20
69.2180434
11
44.2875874
21
69.2180434
0
LINE
8
0
10
22.2875874
20
58.9179994
11
22.2875874
21
67.2180434
0
LINE
8
0
10
48.0438488
20
63.0462296
11
74.0528859
21
59.8527214
0
LINE
8
0
10
74.0671127
20
59.8509746
11
74.0822018
21
59.8491219
0
LINE
8
0
10
74.0822018
20
59.8491219
11
74.0811321
21
59.8404102
0
LINE
8
0
10
77.8776515
20
-13.1687298
11
110.389438
21
29.975868
0
LINE
8
0
10
74.0811321
20
59.8404102
11
109.995797
21
32.776769
0
LINE
8
0
10
74.057199
20
59.8584451
11
74.0671127
21
59.8509746
0
LINE
8
0
10
74.0528859
20
59.8527214
11
74.057199
21
59.8584451
0
LINE
8
0
10
-37.881465
20
-45.8532094
11
0.2316995
21
-31.981152
0
LINE
8
0
10
-44.3798476
20
-27.9990496
11
-26.1583246
21
-21.3669575
0
LINE
8
0
10
-45.5751926
20
-30.562475
11
-40.4448904
21
-44.6578644
0
LINE
8
0
10
0.9157398
20
-31.8605372
11
75.4749225
21
-31.8605372
0
LINE
8
0
10
77.4749225
20
-29.8605372
11
77.4749225
21
-14.3723598
0
ARC
8
0
10
-34.9832053
20
40.0334278
40
2
50
100.0000008
51
190.0000008
0
ARC
8
0
10
-1.2095266
20
50.0503451
40
2
50
280.0000008
51
10.0000008
0
ARC
8
0
10
2.5560562
20
51.7297456
40
2
50
100.0000008
51
190.0000008
0
ARC
8
0
10
20.2875874
20
58.9179994
40
2
50
280.0000008
51
0
0
ARC
8
0
10
24.2875874
20
67.2180434
40
2
50
90
51
180
0
ARC
8
0
10
44.2875874
20
67.2180434
40
2
50
0
51
90
0
ARC
8
0
10
48.2875874
20
65.031322
40
2
50
180
51
263.0000028
0
ARC
8
0
10
108.792167
20
31.179498
40
2
50
323.0000007
51
53.0000007
0
ARC
8
0
10
79.4749225
20
-14.3723598
40
2
50
143.0000007
51
180
0
ARC
8
0
10
75.4749225
20
-29.8605372
40
2
50
270
51
0
0
ARC
8
0
10
0.9157398
20
-33.8605372
40
2
50
90
51
109.9999981
0
ARC
8
0
10
-38.5655052
20
-43.9738242
40
2
50
199.9999981
51
289.9999981
0
ARC
8
0
10
-43.6958074
20
-29.8784348
40
2
50
109.9999981
51
199.9999981
0
ENDSEC
0
EOF