0
SECTION
2
HEADER
9
$INSUNITS
70
4
0
ENDSEC
0
SECTION
2
TABLES
0
TABLE
2
LTYPE
0
LTYPE
72
65
70
64
2
CONTINUOUS
3
______
73
0
40
0
0
ENDTAB
0
TABLE
2
LAYER
0
ENDTAB
0
ENDSEC
0
SECTION
2
ENTITIES
0
LINE
8
0
10
-7.3004362
20
-10.4261034
11
10.4261034
21
-7.3004362
0
LINE
8
0
10
10.4261034
20
-7.3004362
11
7.3004362
21
10.4261034
0
LINE
8
0
10
7.3004362
20
10.4261034
11
-10.4261034
21
7.3004362
0
LINE
8
0
10
-10.4261034
20
7.3004362
11
-7.3004362
21
-10.4261034
0
LINE
8
0
10
-10.5997516
20
8.2852439
11
7.126788
21
11.4109111
0
LINE
8
0
10
7.126788
20
11.4109111
11
4.0011208
21
29.1374507
0
LINE
8
0
10
4.0011208
20
29.1374507
11
-13.7254188
21
26.0117835
0
LINE
8
0
10
-13.7254188
20
26.0117835
11
-10.5997516
21
8.2852439
0
LINE
8
0
10
-13.899067
20
26.9965912
11
3.8274726
21
30.1222584
0
LINE
8
0
10
3.8274726
20
30.1222584
11
0.7018054
21
47.848798
0
LINE
8
0
10
0.7018054
20
47.848798
11
-17.0247342
21
44.7231308
0
LINE
8
0
10
-17.0247342
20
44.7231308
11
-13.899067
21
26.9965912
0
LINE
8
0
10
10.5426702
20
-2.2027493
11
28.2692098
21
0.9229179
0
LINE
8
0
10
28.2692098
20
0.9229179
11
25.1435426
21
18.6494575
0
LINE
8
0
10
25.1435426
20
18.6494575
11
7.417003
21
15.5237903
0
LINE
8
0
10
7.417003
20
15.5237903
11
10.5426702
21
-2.2027493
0
LINE
8
0
10
7.2433548
20
16.508598
11
24.9698944
21
19.6342652
0
LINE
8
0
10
24.9698944
20
19.6342652
11
21.8442272
21
37.3608048
0
LINE
8
0
10
21.8442272
20
37.3608048
11
4.1176876
21
34.2351376
0
LINE
8
0
10
4.1176876
20
34.2351376
11
7.2433548
21
16.508598
0
LINE
8
0
10
3.9440395
20
35.2199454
11
21.6705791
21
38.3456126
0
LINE
8
0
10
21.6705791
20
38.3456126
11
18.5449119
21
56.0721522
0
LINE
8
0
10
18.5449119
20
56.0721522
11
0.8183723
21
52.946485
0
LINE
8
0
10
0.8183723
20
52.946485
11
3.9440395
21
35.2199454
0
LINE
8
0
10
27.7875875
20
12.7180434
11
45.7875875
21
12.7180434
0
LINE
8
0
10
45.7875875
20
12.7180434
11
45.7875875
21
30.7180434
0
LINE
8
0
10
45.7875875
20
30.7180434
11
27.7875875
21
30.7180434
0
LINE
8
0
10
27.7875875
20
30.7180434
11
27.7875875
21
12.7180434
0
LINE
8
0
10
27.7875875
20
31.7180434
11
45.7875875
21
31.7180434
0
LINE
8
0
10
45.7875875
20
31.7180434
11
45.7875875
21
49.7180434
0
LINE
8
0
10
45.7875875
20
49.7180434
11
27.7875875
21
49.7180434
0
LINE
8
0
10
27.7875875
20
49.7180434
11
27.7875875
21
31.7180434
0
LINE
8
0
10
27.7875874
20
50.7180434
11
45.7875874
21
50.7180434
0
LINE
8
0
10
45.7875874
20
50.7180434
11
45.7875874
21
68.7180434
0
LINE
8
0
10
45.7875874
20
68.7180434
11
27.7875874
21
68.7180434
0
LINE
8
0
10
27.7875874
20
68.7180434
11
27.7875874
21
50.7180434
0
LINE
8
0
10
46.757848
20
3.8819521
11
64.6236788
21
1.6883039
0
LINE
8
0
10
64.6236788
20
1.6883039
11
66.817327
21
19.5541347
0
LINE
8
0
10
66.817327
20
19.5541347
11
48.9514962
21
21.7477829
0
LINE
8
0
10
48.9514962
20
21.7477829
11
46.757848
21
3.8819521
0
LINE
8
0
10
49.0733654
20
22.740329
11
66.9391962
21
20.5466808
0
LINE
8
0
10
66.9391962
20
20.5466808
11
69.1328444
21
38.4125116
0
LINE
8
0
10
69.1328444
20
38.4125116
11
51.2670136
21
40.6061598
0
LINE
8
0
10
51.2670136
20
40.6061598
11
49.0733654
21
22.740329
0
LINE
8
0
10
51.388883
20
41.5987059
11
69.2547138
21
39.4050577
0
LINE
8
0
10
69.2547138
20
39.4050577
11
71.448362
21
57.2708885
0
LINE
8
0
10
71.448362
20
57.2708885
11
53.5825312
21
59.4645367
0
LINE
8
0
10
53.5825312
20
59.4645367
11
51.388883
21
41.5987059
0
LINE
8
0
10
62.8157622
20
-2.4161894
11
77.1912014
21
-13.2488598
0
LINE
8
0
10
77.1912014
20
-13.2488598
11
88.0238718
21
1.1265794
0
LINE
8
0
10
88.0238718
20
1.1265794
11
73.6484326
21
11.9592498
0
LINE
8
0
10
73.6484326
20
11.9592498
11
62.8157622
21
-2.4161894
0
LINE
8
0
10
74.2502477
20
12.7578853
11
88.6256869
21
1.9252149
0
LINE
8
0
10
88.6256869
20
1.9252149
11
99.4583573
21
16.3006541
0
LINE
8
0
10
99.4583573
20
16.3006541
11
85.0829181
21
27.1333245
0
LINE
8
0
10
85.0829181
20
27.1333245
11
74.2502477
21
12.7578853
0
LINE
8
0
10
85.6847331
20
27.93196
11
100.0601723
21
17.0992896
0
LINE
8
0
10
100.0601723
20
17.0992896
11
110.8928427
21
31.4747288
0
LINE
8
0
10
110.8928427
20
31.4747288
11
96.5174035
21
42.3073992
0
LINE
8
0
10
96.5174035
20
42.3073992
11
85.6847331
21
27.93196
0
LINE
8
0
10
-39.4620139
20
-45.8963933
11
-22.5475467
21
-39.7400307
0
LINE
8
0
10
-22.5475467
20
-39.7400307
11
-28.7039093
21
-22.8255635
0
LINE
8
0
10
-28.7039093
20
-22.8255635
11
-45.6183765
21
-28.9819261
0
LINE
8
0
10
-45.6183765
20
-28.9819261
11
-39.4620139
21
-45.8963933
0
LINE
8
0
10
-19.7284689
20
-38.7139703
11
-2.8140017
21
-32.5576077
0
LINE
8
0
10
-2.8140017
20
-32.5576077
11
-8.9703643
21
-15.6431405
0
LINE
8
0
10
-8.9703643
20
-15.6431405
11
-25.8848315
21
-21.7995031
0
LINE
8
0
10
-25.8848315
20
-21.7995031
11
-19.7284689
21
-38.7139703
0
LINE
8
0
10
0.9749225
20
-31.3605372
11
18.9749225
21
-31.3605372
0
LINE
8
0
10
18.9749225
20
-31.3605372
11
18.9749225
21
-13.3605372
0
LINE
8
0
10
18.9749225
20
-13.3605372
11
0.9749225
21
-13.3605372
0
LINE
8
0
10
0.9749225
20
-13.3605372
11
0.9749225
21
-31.3605372
0
ENDSEC
0
EOF