<?xml version="1.0" encoding="UTF-8" standalone="no"?>
<!-- Created with Inkscape (http://www.inkscape.org/) -->

<svg
   version="1.1"
   id="svg55"
   width="800"
   height="800"
   viewBox="0 0 800 800"
   sodipodi:docname="logo_white_bg.svg"
   inkscape:export-filename="/home/loyalpotato/Documents/keyboards/yggdrasil/media/logo_white_bg.png"
   inkscape:export-xdpi="96"
   inkscape:export-ydpi="96"
   inkscape:version="1.1.2 (0a00cf5339, 2022-02-04)"
   xmlns:inkscape="http://www.inkscape.org/namespaces/inkscape"
   xmlns:sodipodi="http://sodipodi.sourceforge.net/DTD/sodipodi-0.dtd"
   xmlns="http://www.w3.org/2000/svg"
   xmlns:svg="http://www.w3.org/2000/svg">
  <defs
     id="defs59" />
  <sodipodi:namedview
     id="namedview57"
     pagecolor="#505050"
     bordercolor="#ffffff"
     borderopacity="1"
     inkscape:pageshadow="0"
     inkscape:pageopacity="0"
     inkscape:pagecheckerboard="1"
     showgrid="false"
     inkscape:zoom="0.32"
     inkscape:cx="1865.625"
     inkscape:cy="732.8125"
     inkscape:window-width="2560"
     inkscape:window-height="1375"
     inkscape:window-x="0"
     inkscape:window-y="262"
     inkscape:window-maximized="1"
     inkscape:current-layer="layer2" />
  <g
     inkscape:groupmode="layer"
     id="layer3"
     inkscape:label="Background">
    <ellipse
       style="fill:#ffffff;stroke-width:1.01453"
       id="path2402"
       cx="402.54501"
       cy="393.47418"
       rx="383.20853"
       ry="382.57516" />
  </g>
  <g
     inkscape:groupmode="layer"
     inkscape:label="Image"
     id="g61" />
  <g
     inkscape:groupmode="layer"
     id="layer1"
     inkscape:label="Image 1" />
  <g
     inkscape:groupmode="layer"
     id="layer2"
     inkscape:label="Image 2">
    <path
       style="fill:#000000;stroke-width:1.33333"
       d="m 394.34626,785.65043 c -37.3669,-0.82414 -86.4663,-8.39028 -114.5688,-17.6549 -54.7179,-18.039 -105.0107,-49.87801 -149.4312,-94.60084 C 77.061681,619.74752 43.727681,558.43103 25.858481,481.19421 9.2393807,409.36009 13.660781,335.40929 39.007881,261.26312 c 12.3256,-36.0554 36.3784,-80.11237 61.060499,-111.84364 13.25808,-17.0445 39.93878,-44.9362 44.00218,-45.9994 1.6183,-0.4235 4.2498,-2.8087 5.8478,-5.300602 10.9408,-17.0604 75.6855,-57.0982 118.4279,-73.2353 72.0612,-27.2061999 151.5859,-32.0275 224.6666,-13.6205 39.7626,10.015 81.5776,27.7415 113.3333,48.045 35.0551,22.4129 72.0496,55.503102 95.944,85.818102 51.6606,65.54222 79.706,138.31683 86.1001,223.41987 3.143,41.83295 0.4304,74.26996 -9.9776,119.31068 -18.8815,81.71006 -63.1638,154.29016 -125.3998,205.53459 -21.6137,17.79644 -29.6694,23.74501 -39.4762,29.15011 -2.8547,1.57344 -8.7905,5.2348 -13.1905,8.13637 -4.4,2.90156 -10.584,6.46339 -13.7422,7.91517 -3.1583,1.45178 -12.2143,6.24634 -20.1244,10.65458 -7.9102,4.40824 -15.6276,8.01497 -17.1497,8.01497 -1.5222,0 -4.4662,0.86252 -6.5423,1.91671 -2.0761,1.0542 -7.9747,3.22692 -13.108,4.82829 -5.1334,1.60136 -9.9334,3.37224 -10.6667,3.93528 -0.7333,0.56303 -6.7333,2.33919 -13.3333,3.94701 -6.6,1.60783 -17.7,4.64027 -24.6667,6.73878 -6.9667,2.0985 -16.2667,4.19853 -20.6667,4.66673 -11.8513,1.26109 -51.4786,2.67477 -65.9999,2.35451 z m -35.1191,-16.3003 c 2.3179,-1.41333 4.5624,-3.66645 4.9879,-5.00694 0.7548,-2.37815 3.208,-4.0653 10.2733,-7.06528 1.9116,-0.81164 4.1638,-2.797 5.0051,-4.41191 1.6011,-3.07364 4.5322,-17.03453 3.7423,-17.82447 -1.0074,-1.00737 -8.8895,3.86884 -8.8895,5.4994 0,0.96204 -2.7735,5.1181 -6.1633,9.23568 -5.1905,6.30482 -6.8502,7.48651 -10.5148,7.48651 -3.6805,0 -4.7005,0.73563 -6.6155,4.77112 -2.137,4.50353 -2.134,4.91481 0.055,7.33333 2.8499,3.14911 2.9269,3.14895 8.1198,-0.0175 z m 56.2304,-7.22864 c 0.6463,-3.38876 -1.6055,-5.30444 -4.9771,-4.2343 -2.7141,0.86142 -3.7799,4.6192 -1.8558,6.54329 1.7472,1.74719 6.3564,0.18964 6.8329,-2.30899 z m 12.5745,2.3446 c 1.1913,-1.19121 -0.4116,-4.53933 -2.1619,-4.51589 -2.6934,0.0361 -5.2272,2.30233 -4.2828,3.83052 0.9746,1.57684 5.1132,2.01697 6.4447,0.68537 z m 44.7818,-2.00008 c 2.3095,-0.80506 4.199,-2.2316 4.199,-3.17006 0,-0.93847 0.8347,-2.39908 1.855,-3.24579 1.0202,-0.84672 2.1838,-3.17019 2.5858,-5.16327 1.8964,-9.40208 2.7724,-11.79797 5.1466,-14.07572 2.8133,-2.69906 2.6707,-4.6741 -0.4811,-6.66222 -2.4561,-1.54924 -11.773,4.84508 -11.773,8.07994 0,1.09044 -1.5,3.76526 -3.3333,5.94406 -1.8333,2.17878 -3.3333,4.79429 -3.3333,5.81222 0,1.01794 -1.2,2.49302 -2.6667,3.27795 -3.1953,1.71008 -3.4601,5.68271 -0.5714,8.57143 2.4916,2.4916 2.9396,2.52538 8.3724,0.63146 z m -181.3699,-6.0924 c -0.6487,-3.34502 -3.7644,-3.80433 -3.7644,-0.55493 0,1.63777 0.8609,2.77777 2.0978,2.77777 1.2416,0 1.9218,-0.90716 1.6666,-2.22284 z m -5.4744,-6.6224 c 0.6338,-1.93316 -3.2137,-5.82142 -5.7604,-5.82142 -2.3586,0 -3.7785,3.22626 -2.6798,6.08929 0.9172,2.39037 7.6387,2.17705 8.4402,-0.26787 z m 108.3298,-3.0671 c 2.1518,-4.02068 1.6442,-5.64395 -1.6198,-5.18039 -2.148,0.30507 -3.1198,1.46739 -3.4219,4.09273 -0.5041,4.38136 2.8873,5.11302 5.0417,1.08766 z m -75.7101,-1.32596 c 1.7981,-1.41442 5.629,-2.76442 8.5131,-3 4.672,-0.38166 5.2919,-0.84878 5.684,-4.28368 0.2461,-2.15619 -0.3216,-4.32608 -1.2882,-4.92346 -1.2338,-0.76254 -0.6674,-1.47145 1.98,-2.478 2.0396,-0.77544 4.7613,-1.40989 6.0482,-1.40989 1.2869,0 4.6979,-1.96232 7.5799,-4.36072 4.8463,-4.03311 10.2296,-7.73357 19.6328,-13.49548 2.0494,-1.2558 4.3362,-3.90188 5.0817,-5.8802 0.7456,-1.97831 2.2188,-5.33912 3.2739,-7.46845 2.3885,-4.82062 2.4698,-8.79515 0.1798,-8.79515 -0.9561,0 -3.8061,2.14689 -6.3333,4.77089 -2.5272,2.62399 -6.6949,5.65582 -9.2616,6.73739 -2.5667,1.08159 -6.1667,3.35543 -8,5.05297 -1.8333,1.69756 -6.6542,5.1757 -10.7131,7.7292 -4.0589,2.55351 -8.9702,6.53276 -10.9139,8.8428 -1.9438,2.31006 -4.2359,4.20008 -5.0936,4.20008 -0.8576,0 -4.3463,1.89076 -7.7527,4.20168 -3.4063,2.31092 -9.1934,4.87178 -12.86,5.69079 -5.7836,1.29187 -6.7216,1.96159 -7.0813,5.05599 -0.3625,3.11892 0.1398,3.65682 4,4.28296 5.907,0.95816 10.7558,1.69902 12.5681,1.92034 0.8178,0.0999 2.9581,-0.97566 4.7562,-2.39006 z m 195.7569,-2.80354 c 0,-3.1448 -3.526,-4.96542 -5.6,-2.89149 -2.0739,2.07393 -0.2533,5.6 2.8915,5.6 1.8336,0 2.7085,-0.87495 2.7085,-2.70851 z m -222.6666,-3.29149 c 0,-1.1 -0.9,-2 -2,-2 -1.1,0 -2,0.9 -2,2 0,1.1 0.9,2 2,2 1.1,0 2,-0.9 2,-2 z m 208,-2.50341 c 0,-2.6339 -3.6134,-5.26359 -5.9831,-4.35427 -1.1093,0.42569 -2.0169,1.99281 -2.0169,3.48251 0,2.12056 0.8683,2.7085 4,2.7085 2.5086,0 4,-0.6848 4,-1.83674 z m -85.024,-7.7361 c 4.6523,-3.28816 7.6785,-7.61414 7.735,-11.05717 0.048,-2.89108 4.241,-8.70332 6.2795,-8.70332 2.2563,0 9.8382,-10.66727 11.9159,-16.76493 1.66,-4.8718 2.5902,-5.9452 4.8771,-5.62756 2.4554,0.34102 3.3008,-1.06904 6.4473,-10.75418 1.9917,-6.13066 4.5475,-12.17004 5.6794,-13.42082 1.132,-1.25079 2.4326,-4.14643 2.8902,-6.43476 0.8712,-4.35576 3.1968,-6.09344 6.4727,-4.83635 1.5674,0.60148 1.2628,1.76741 -1.587,6.07368 -4.704,7.10829 -3.1877,9.86919 5.092,9.27137 3.2257,-0.2329 6.8839,-0.96876 8.1292,-1.63524 1.4123,-0.75585 2.575,-0.70876 3.0904,0.1252 1.357,2.19568 7.1487,1.51414 8.4672,-0.9964 0.674,-1.28333 1.6478,-4.88333 2.1641,-8 0.5163,-3.11666 1.497,-5.66666 2.1794,-5.66666 1.213,0 10.2725,4.23662 20.1224,9.41016 2.7119,1.42441 6.0473,2.58984 7.4118,2.58984 1.3646,0 3.6457,0.86345 5.0692,1.9188 2.2525,1.66996 2.3607,2.29098 0.8339,4.78892 -1.5153,2.47896 -1.4244,3.12025 0.6666,4.70546 3.1566,2.39299 5.6564,2.39362 6.5742,0.001 0.4049,-1.05519 2.6361,-2.32448 4.9582,-2.82064 2.3221,-0.49615 4.9714,-1.50584 5.8874,-2.24374 1.1297,-0.91005 2.9242,-0.82022 5.5786,0.27926 2.184,0.90464 5.6816,1.23245 7.9152,0.74186 2.7356,-0.60082 5.0951,-0.16289 7.4556,1.38378 3.247,2.12753 3.6028,2.12764 5.952,10e-4 1.3741,-1.2436 4.5088,-2.30351 6.9658,-2.35535 2.457,-0.0519 6.057,-0.89762 7.9999,-1.87952 3.0072,-1.51977 3.775,-1.49306 5.1633,0.17963 2.3489,2.83035 7.6269,2.43225 9.3041,-0.70179 1.5828,-2.95737 5.4039,-3.4363 9.581,-1.20082 2.2162,1.18612 3.5002,0.90301 6.7282,-1.48358 2.9817,-2.20444 5.1324,-2.7639 8.5151,-2.21497 3.983,0.64636 4.7647,0.27251 6.5175,-3.11688 2.5691,-4.9682 2.5218,-5.31708 -0.722,-5.31708 -1.4925,0 -4.249,-1.00603 -6.1255,-2.2356 -3.2061,-2.10069 -3.6795,-2.09155 -7.8448,0.15164 -4.2331,2.27968 -4.7075,2.28233 -10.5289,0.0592 -3.4991,-1.33633 -7.9472,-2.04484 -10.4416,-1.66319 -6.6463,1.0169 -35.199,-1.1369 -45.679,-3.44566 -5.1333,-1.1309 -14.4454,-2.28148 -20.6935,-2.55686 -6.2482,-0.27537 -12.4762,-1.12517 -13.8401,-1.88842 -1.3638,-0.76326 -5.1164,-1.09055 -8.339,-0.72731 -4.0017,0.45104 -6.5888,0.0443 -8.16,-1.28284 -1.2654,-1.0688 -8.1611,-4.22269 -15.3239,-7.00865 -7.1628,-2.78598 -13.3482,-5.59119 -13.7454,-6.23383 -0.3972,-0.64137 -2.1058,-1.16717 -3.7969,-1.16717 -1.6912,0 -4.5127,-1.05 -6.27,-2.33333 -4.534,-3.31112 -7.9921,-5.44239 -11.8312,-7.2918 -1.8333,-0.88318 -7.3136,-5.07882 -12.1784,-9.32366 -8.5691,-7.47704 -11.8216,-9.2176 -11.8216,-6.32633 0,1.81125 13.8822,15.35104 19.953,19.46088 8.6781,5.875 16.7023,12.72148 17.9232,15.29263 1.9807,4.17148 -0.5567,4.80336 -3.6661,0.91298 -1.5864,-1.98474 -4.0826,-3.61937 -5.5472,-3.63252 -1.4646,-0.0133 -4.1629,-0.18926 -5.9962,-0.39137 -4.7352,-0.52203 -5.2988,4.47481 -0.8347,7.39981 1.8145,1.18892 3.6988,3.42104 4.1874,4.96028 0.509,1.60383 1.649,2.50667 2.6703,2.11478 2.124,-0.81507 5.2164,2.48564 4.0686,4.34274 -0.4425,0.71604 -2.6304,1.24999 -4.8619,1.18655 -5.5649,-0.15823 -8.7019,3.04133 -6.4762,6.60531 1.3789,2.20798 1.235,3.20337 -0.8662,5.98896 -1.386,1.83746 -3.7276,3.87182 -5.2036,4.5208 -2.0721,0.91102 -2.7789,2.68722 -3.1015,7.7933 -0.3841,6.07983 -1.0504,7.2401 -8.2591,14.38196 -4.3126,4.27272 -9.4263,11.00846 -11.3637,14.96828 -2.9823,6.09566 -5.2483,8.37195 -14.7767,14.84402 -6.1898,4.20437 -11.0404,8.29264 -10.7791,9.08502 0.6195,1.87862 8.5039,3.29627 13.5964,2.4447 2.2,-0.3679 5.6392,-1.82747 7.6427,-3.2435 z m 201.4841,-71.15133 c -0.4343,-1.13163 -0.4554,-2.39171 -0.047,-2.80017 1.1676,-1.16762 3.5867,0.81286 3.5867,2.93637 0,2.55847 -2.5434,2.46061 -3.5399,-0.1362 z m -144.1013,-3.19679 c -1.2914,-2.06784 -1.2254,-3.34004 0.3287,-6.33333 1.0696,-2.06013 1.6,-4.83355 1.1787,-6.16312 -0.6326,-1.9966 -0.3395,-2.19449 1.6839,-1.13687 1.3474,0.7043 4.9679,2.31884 8.0455,3.58788 l 5.5957,2.30735 -5.5367,5.16287 c -6.1851,5.76748 -8.9137,6.38957 -11.2958,2.57522 z m -201.965,57.8336 c 0.4055,-2.83517 6.5949,-5.91264 11.8916,-5.91264 1.5194,0 3.0856,-0.84168 3.4804,-1.8704 1.3195,-3.43864 -2.2579,-6.14005 -9.0991,-6.87096 -5.6987,-0.60882 -7.3335,-0.2195 -11.2591,2.68122 -2.5258,1.86641 -6.2547,3.39348 -8.2864,3.39348 -4.8233,0 -7.3681,4.22932 -4.3566,7.24073 1.1509,1.15093 3.8143,2.0926 5.9186,2.0926 2.1044,0 4.2181,0.63431 4.6973,1.40959 1.4786,2.39244 6.5872,0.81645 7.0133,-2.16362 z m -27.0605,-1.24597 c 0,-4.10355 -6.5192,-3.70711 -7.1056,0.43209 -0.3818,2.69456 0.053,3.0424 3.3333,2.66667 2.7394,-0.31379 3.7723,-1.16227 3.7723,-3.09876 z m 273.24,-0.51559 c 1.0035,-1.62382 -2.7934,-4.58448 -4.5149,-3.5205 -2.3615,1.45945 -1.5365,4.70276 1.1962,4.70276 1.4234,0 2.9168,-0.53202 3.3187,-1.18226 z m -296.5733,-1.33106 c 0,-1.79276 -6.5619,-5.7088 -8.0377,-4.79674 -1.837,1.13538 -1.6069,4.29558 0.371,5.09368 2.8182,1.13718 7.6667,0.94938 7.6667,-0.29694 z m 109.3333,-0.15335 c 0,-0.73333 -0.6,-1.33333 -1.3333,-1.33333 -0.7333,0 -1.3333,0.6 -1.3333,1.33333 0,0.73333 0.6,1.33333 1.3333,1.33333 0.7333,0 1.3333,-0.6 1.3333,-1.33333 z m -40.0141,-13.98303 c 2.1915,-2.64057 0.7529,-6.01697 -2.5638,-6.01697 -2.528,0 -5.4221,3.51163 -5.4221,6.57901 0,2.1371 6.1023,1.70763 7.9859,-0.56204 z m 128.7598,-0.81158 c 0.4968,-0.80371 0.082,-2.28202 -0.9213,-3.28512 -2.313,-2.31226 -5.8639,-0.35035 -4.7272,2.61184 0.9371,2.44197 4.3072,2.84366 5.6485,0.67328 z m -215.6986,-6.87206 c 1.3915,-1.68849 1.3221,-9.74196 -0.096,-11.16028 -1.022,-1.022 -10.0163,1.98144 -11.0779,3.69924 -0.9618,1.55606 5.8514,9.12771 8.2132,9.12771 0.873,0 2.2054,-0.75 2.9609,-1.66667 z m -18.3804,-2.33333 c 0,-0.73333 -0.6354,-1.33333 -1.412,-1.33333 -0.7766,0 -1.0412,0.6 -0.588,1.33333 0.4532,0.73333 1.0886,1.33333 1.412,1.33333 0.3234,0 0.588,-0.6 0.588,-1.33333 z m 403.3333,-10 c 0,-3.97085 -5.2048,-3.57413 -5.7734,0.44005 -0.3661,2.58508 0.082,3.03283 2.6667,2.66667 2.0711,-0.29337 3.1067,-1.32895 3.1067,-3.10672 z m -377.6905,-4.66667 c 1.4352,-2.29825 3.1093,-2.66666 12.1174,-2.66666 5.7486,0 15.9542,-0.62356 22.6792,-1.3857 16.8795,-1.91292 42.5585,-3.6052 44.4992,-2.93254 0.8828,0.30601 2.838,2.64581 4.3447,5.19954 1.7023,2.88518 3.5768,4.48078 4.951,4.21426 3.4242,-0.66411 3.5571,-3.30415 0.329,-6.5323 l -2.9368,-2.93674 3.1868,-2.45028 c 4.7143,-3.62482 7.7726,-3.1392 9.3865,1.49042 1.5977,4.58315 5.634,5.38088 7.6994,1.52171 1.5544,-2.90436 11.9725,-6.16532 15.8079,-4.948 1.9333,0.6136 3.5817,-0.26141 6.0753,-3.22492 2.6004,-3.09041 4.6382,-4.12196 8.4865,-4.29589 2.7855,-0.12587 6.1144,0.24989 7.3978,0.83508 1.6601,0.75701 2.3333,0.48485 2.3333,-0.94327 0,-1.10399 1.8,-5.42911 4,-9.61137 2.2,-4.18227 4,-8.4432 4,-9.46874 0,-2.38204 1.9005,-2.39436 3.8668,-0.0251 1.1667,1.4058 0.9941,2.76754 -0.7322,5.77544 -3.7145,6.47209 -0.2428,11.08756 6.4312,8.5501 2.5078,-0.95348 3.8,-2.90997 5.0994,-7.72108 0.9571,-3.5442 2.5491,-7.39124 3.5376,-8.54898 2.1896,-2.56454 2.2973,-5.79703 0.2999,-8.9955 -1.1482,-1.83852 -1.02,-3.32078 0.5498,-6.35642 1.5108,-2.92154 1.6824,-4.61052 0.6552,-6.44616 -1.0969,-1.95999 -0.8248,-2.9407 1.2835,-4.62548 1.4715,-1.17598 3.7194,-3.78812 4.9955,-5.80479 1.276,-2.01667 3.151,-3.66667 4.1667,-3.66667 2.3162,0 2.4766,6.2344 0.1799,7.00019 -1.1905,0.397 -1.6021,3.95172 -1.4408,12.44444 0.2071,10.90477 -0.096,12.45388 -3.6667,18.71768 -2.1408,3.75593 -3.8925,8.00593 -3.8925,9.44444 0,1.43851 -0.4112,3.02668 -0.9137,3.52925 -1.8218,1.8218 -4.0875,10.24522 -2.9455,10.95099 1.2702,0.78503 11.8592,-7.18888 11.8592,-8.93041 0,-0.58508 1.7987,-3.11232 3.997,-5.6161 3.3159,-3.77658 3.6823,-4.81345 2.1504,-6.08485 -2.2236,-1.84545 -0.8132,-9.74903 3.2496,-18.20992 1.4317,-2.98153 2.6294,-6.88153 2.6616,-8.66667 0.046,-2.57202 0.4408,-2.17325 1.9002,1.92124 2.3587,6.61712 3.1375,7.32446 8.5723,7.78535 3.8854,0.32949 4.8382,-0.22676 7.0432,-4.11199 2.3006,-4.05365 2.3498,-4.71421 0.5031,-6.75482 -1.1258,-1.24399 -5.0538,-3.08059 -8.7288,-4.08134 -7.2837,-1.9834 -7.4407,-2.21332 -5.068,-7.4208 1.3716,-3.01049 1.2681,-3.79497 -0.6898,-5.22666 -1.2832,-0.93831 -1.9579,-2.58582 -1.523,-3.71907 1.1637,-3.03252 -1.8923,-4.20975 -4.5901,-1.76823 -3.6859,3.33572 -5.7985,2.68218 -4.9652,-1.53605 0.686,-3.47291 1.2302,-12.55489 0.9501,-15.85545 -0.071,-0.83718 -1.716,-1.92039 -3.6554,-2.40715 -3.8387,-0.96344 -3.1527,-2.46739 2.4139,-5.29228 3.2566,-1.6526 3.522,-3.36628 1.8245,-11.77845 -0.8327,-4.12651 -0.6337,-5 1.1394,-5 2.5879,0 2.6127,-0.55091 0.3215,-7.13183 -1.4189,-4.07561 -1.9754,-4.63987 -2.7039,-2.74153 -0.788,2.05357 -1.2848,1.78585 -3.5266,-1.9004 -2.0444,-3.36182 -2.6093,-6.72352 -2.6093,-15.52903 0,-6.18109 0.6986,-12.77172 1.5526,-14.64583 1.2067,-2.6485 1.1692,-4.12366 -0.1684,-6.62298 -1.0355,-1.93478 -1.3857,-5.00204 -0.8794,-7.70088 0.7679,-4.09323 0.3278,-4.91471 -5.034,-9.39656 -5.1902,-4.3385 -5.9796,-5.73255 -6.7695,-11.9544 -0.4918,-3.87375 -1.2373,-8.23848 -1.6567,-9.6994 -0.6893,-2.4009 -0.5372,-2.46914 1.5826,-0.70991 2.093,1.73708 2.6025,1.62845 4.7394,-1.01045 3.231,-3.99022 4.3463,-3.7201 3.351,0.81161 -1.1182,5.09109 1.2349,10.89829 4.4161,10.89829 1.7422,0 2.7803,1.23656 3.3252,3.96095 0.7071,3.5356 1.2944,3.94207 5.4694,3.78511 3.003,-0.11294 5.7171,-1.28262 7.5818,-3.26763 2.0531,-2.18543 3.8089,-2.86483 5.9894,-2.31757 1.9365,0.48602 4.7717,-0.26838 7.6167,-2.02666 5.3455,-3.30373 13.9327,-3.76014 15.0683,-0.80086 0.4221,1.1 1.5723,2 2.5561,2 0.9838,0 3.3254,1.42425 5.2038,3.16501 1.8783,1.74076 5.9586,3.57173 9.0673,4.06884 4.7949,0.76675 6.0007,0.47351 7.9497,-1.93339 1.2636,-1.56046 2.9406,-2.43973 3.7266,-1.95392 0.7861,0.48583 2.909,-0.0863 4.7175,-1.27125 3.9986,-2.61995 8.5945,-0.80303 8.5945,3.39768 0,3.32244 4.9694,3.07032 7.1198,-0.36121 2.2517,-3.59303 -0.9693,-5.96418 -11.5085,-8.4721 -11.0589,-2.63162 -15.6141,-5.06529 -15.6047,-8.33706 0,-1.26643 -1.0368,-5.2134 -2.312,-8.77104 -2.3167,-6.46332 -2.3161,-6.47043 0.8078,-9 1.7195,-1.39236 4.4264,-2.53156 6.0153,-2.53156 1.5889,0 4.2264,-0.93678 5.861,-2.08174 3.9289,-2.75189 16.4291,-4.74662 18.604,-2.96876 0.9071,0.74155 3.1498,0.97167 4.9838,0.51136 1.834,-0.4603 4.473,-0.126 5.8643,0.74292 3.0721,1.91856 10.8358,-0.74461 10.8358,-3.71697 0,-1.02099 0.5638,-2.89819 1.2528,-4.17157 0.6891,-1.27339 1.6005,-3.96524 2.0254,-5.98191 0.425,-2.01667 1.6278,-3.66667 2.6729,-3.66667 1.0451,0 3.5258,-1.39821 5.5125,-3.10714 l 3.6123,-3.10716 -8.1121,-0.29274 c -15.0296,-0.54236 -22.9638,-4.33781 -22.9638,-10.98516 0,-8.90949 4.1429,-18.92554 10.1298,-24.49017 7.143,-6.6392 8.5389,-10.31116 8.5295,-22.43776 -0.012,-15.07639 -4.0099,-24.9132 -10.1259,-24.9132 -2.9739,0 -11.2,8.52556 -11.2,11.60763 0,1.39753 -1.4249,4.4722 -3.1663,6.8326 -4.4203,5.99142 -6.3266,17.41457 -6.7084,40.19938 l -0.3279,19.5703 -5.7967,8.81677 c -4.9096,7.46752 -6.9346,9.32377 -13.2321,12.12975 -11.1293,4.95888 -22.2435,6.61077 -30.2386,4.49432 -7.8574,-2.07998 -12.515,-4.90956 -12.5724,-7.63815 -0.023,-1.10693 -0.9234,-3.17728 -2,-4.60077 -1.0767,-1.4235 -1.9576,-4.20003 -1.9576,-6.17007 0,-1.97005 -0.9,-4.32884 -2,-5.24176 -1.1,-0.91292 -2,-3.35097 -2,-5.41791 0,-2.06692 -0.4691,-4.04796 -1.0424,-4.40228 -0.9419,-0.58212 -2.2032,-17.90277 -1.9065,-26.17981 0.3609,-10.06691 1.7186,-20.173 3.5826,-26.66667 1.1577,-4.03333 1.7866,-8.64656 1.3974,-10.25161 -0.877,-3.61697 1.1032,-5.06467 3.3027,-2.41451 1.4379,1.73258 2.0915,1.70208 5.3994,-0.25194 2.0699,-1.22274 4.1104,-3.60536 4.5344,-5.29475 0.9324,-3.71528 8.3765,-12.45385 10.6089,-12.45385 0.8802,0 3.5968,-2.05984 6.037,-4.57742 2.4401,-2.51757 6.3078,-5.3271 8.5949,-6.2434 2.287,-0.91629 5.5892,-2.75645 7.3381,-4.08925 1.7488,-1.3328 4.6177,-2.42327 6.3751,-2.42327 1.7575,0 3.5361,-0.88785 3.9525,-1.97301 0.4164,-1.08516 2.8013,-3.23641 5.2998,-4.78055 10.271,-6.3478 0.011,-6.22826 -19.9305,0.23222 -14.9742,4.85113 -27.3415,7.00814 -35.6204,6.21264 -9.3817,-0.90146 -10.9771,-2.67036 -9.8588,-10.93103 0.5033,-3.71815 1.7455,-8.38197 2.7605,-10.36407 2.2156,-4.3268 12.5627,-11.72953 16.3948,-11.72953 5.6969,0 30.2438,-13.2294 37.7677,-20.3546 8.7654,-8.30107 11.6794,-13.86739 11.6794,-22.31027 0,-6.56042 -1.9904,-9.53961 -7.4905,-11.21138 -9.0119,-2.73919 -23.668,12.58244 -26.3982,27.59698 -1.2666,6.96519 -5.7361,17.03091 -8.4919,19.12448 -5.0579,3.84236 -19.4168,0.54272 -23.2656,-5.34633 -1.3788,-2.10977 -1.2399,-9.9774 0.2737,-15.49888 0.7036,-2.56667 1.5139,-13.67952 1.8007,-24.69521 0.3956,-15.1946 1.0512,-21.05291 2.7162,-24.27276 3.2258,-6.23803 14.133,-16.59011 21.1278,-20.05252 7.6721,-3.79772 9.3913,-5.86647 8.3438,-10.04025 -0.9148,-3.6449 -4.7459,-4.9393 -14.6191,-4.9393 -3.1184,0 -9.8951,-0.9542 -15.0595,-2.1204 -8.4759,-1.9141 -9.8958,-2.7252 -14.589,-8.3334 -6.4344,-7.6887 -8.7607,-12.0777 -11.6008,-21.8872 -2.6843,-9.2711 -7.9584,-16.0863 -10.0545,-12.9923 -1.5929,2.3512 -0.6273,7.8975 2.6695,15.3333 2.4099,5.4355 4.4838,12.5992 6.755,23.3334 3.3974,16.05629 -6.5242,32.71992 -21.1244,35.47911 -5.002,0.94529 -19.9845,-1.58868 -23.1087,-3.90836 -5.9811,-4.44094 -6.2029,-10.07924 -1.1703,-29.75635 1.7879,-6.9905 2.1398,-10.8371 1.2691,-13.8728 -1.3421,-4.6798 -8.7445,-16.7693 -11.2007,-18.293 -0.8706,-0.5401 -2.9438,-2.932 -4.6069,-5.3153 -1.6631,-2.3833 -3.6538,-4.3333 -4.4237,-4.3333 -0.77,0 -3.45,-1.8 -5.9556,-4.000002 -5.2336,-4.5952 -6.6489,-4.8484 -10.0247,-1.7934 -3.1587,2.8587 -3.3004,15.813202 -0.3034,27.744502 1.7788,7.0812 3.7808,10.5212 12,20.6191 9.9778,12.25837 11.149,15.21271 8.6434,21.80273 -2.569,6.75708 -4.7023,7.62704 -18.7033,7.62704 -10.2352,0 -15.2003,-0.70056 -22.9048,-3.23181 -12.6514,-4.15652 -24.4977,-9.61944 -30.9169,-14.25727 -6.3463,-4.58529 -14.2533,-14.79479 -14.2533,-18.40399 0,-5.5373 4.2681,-13.0997 10.1847,-18.0453 4.2592,-3.5603 7.2766,-7.7401 10.0409,-13.9091 6.7152,-14.986302 14.0705,-20.152502 28.6915,-20.152502 10.1945,0 10.9473,-1.8474 2.8507,-6.9953 -5.1752,-3.2905 -5.9965,-7.2131 -2.3279,-11.1182 1.6637,-1.7709 4.1204,-3.2199 5.4592,-3.2199 1.8158,0 2.4342,-1.0162 2.4342,-4 0,-2.2 -0.6452,-4 -1.4338,-4 -0.7886,0 -1.325,-1.65 -1.192,-3.6666 0.1329,-2.0167 0.1782,-4.4167 0.1005,-5.3334 -0.2158,-2.5455 -5.3149,-1.9858 -9.1108,1 -1.8645,1.4667 -4.4046,2.6667 -5.6445,2.6667 -7.6751,0 -16.1037,21.2012 -9.2886,23.3642 2.5833,0.8199 2.6205,1.0359 0.5685,3.3033 -1.2075,1.3343 -3.6513,2.7914 -5.4307,3.238 -1.7794,0.4466 -3.2352,1.7561 -3.2352,2.9101 0,5.0758 -7.3293,21.811902 -12.4889,28.517702 -6.3923,8.308 -10.9642,10.4872 -22.1778,10.571 -8.5645,0.064 -9.0931,-0.2327 -12.8419,-7.2112 -4.8073,-8.9486 -10.4987,-10.3321 -7.1411,-1.7359 0.9401,2.4069 4.4709,7.0761 7.8462,10.3761 3.3752,3.3 8.2368,8.9526 10.8035,12.5614 2.5666,3.6088 5.2636,7.3588 5.9932,8.3333 4.8471,6.4748 -14.8904,9.7822 -26.838,4.4973 -6.8673,-3.0378 -16.474,-3.5582 -20.9095,-1.1327 -1.6018,0.8759 -6.4034,1.6969 -10.6702,1.8244 -4.2667,0.1274 -8.4204,0.8946 -9.2304,1.7046 -2.5533,2.5533 0.8961,7.46181 9.2026,13.09553 13.234,8.97565 15.3632,9.42958 44.6527,9.51982 l 26.2004,0.0807 15.7996,5.3428 c 27.804,9.40223 33.5747,10.49936 63.7996,12.12968 41.5394,2.24063 38.0003,1.34724 46.6585,11.77821 l 7.4009,8.91632 -0.7658,28.67434 c -1.1244,42.10036 -1.1451,42.3 -4.7949,46.1954 -6.2624,6.68381 -17.0234,8.836 -28.3946,5.67886 -2.876,-0.79852 -10.076,-1.593 -16,-1.7655 -18.3645,-0.53478 -41.7382,-7.90651 -47.6577,-15.03055 -0.9789,-1.17809 -2.1949,-7.30092 -2.7023,-13.60628 -2.1909,-27.22849 -3.4003,-31.82627 -11.5348,-43.85343 -2.8311,-4.18597 -5.8799,-9.85146 -6.775,-12.59 -0.895,-2.73853 -3.0839,-6.12489 -4.8642,-7.52522 -1.7802,-1.40038 -3.2368,-3.1363 -3.2368,-3.85763 0,-0.72132 -0.9675,-2.11448 -2.15,-3.0959 -1.857,-1.54116 -2.6749,-1.19705 -6,2.52444 -3.3036,3.6973 -3.8471,5.39396 -3.8299,11.95447 0.011,4.20509 0.7654,9.74563 1.6764,12.31229 1.8459,5.20098 8.9082,17.47459 13.1229,22.80623 4.0054,5.06697 4.0208,11.9484 0.031,13.98272 -3.9704,2.02456 -9.4477,0.56269 -16.5864,-4.42687 -10.8569,-7.58845 -16.4958,-10.63693 -24.9309,-13.47825 -4.7667,-1.60563 -11.6667,-4.92108 -15.3334,-7.36769 -3.6666,-2.44662 -9.3666,-6.04816 -12.6666,-8.00344 -3.3,-1.9553 -6.9,-4.10628 -8,-4.77999 -1.1,-0.67371 -5.5241,-2.91417 -9.8313,-4.97881 -4.7653,-2.28422 -9.6568,-5.97244 -12.494,-9.42056 -5.3719,-6.52871 -7.175,-6.88522 -12.4354,-2.4588 -4.9776,4.1883 -25.9453,10.42565 -43.08588,12.81686 -9.419499,1.31415 -12.819999,2.93567 -12.819999,6.11318 0,2.8918 5.2908,3.45674 17.392979,1.85721 32.2099,-4.25711 37.0306,-3.43912 69.2736,11.75455 20.9911,9.89144 24.0095,12.93277 16.0908,16.21281 -2.1501,0.8906 -5.8027,3.01615 -8.1168,4.72344 -2.3141,1.70729 -7.3049,3.83193 -11.0907,4.7214 -7.7325,1.81677 -13.7735,4.54788 -17.1693,7.7622 -1.2574,1.19012 -5.3925,4.56387 -9.1893,7.4972 -23.2226,17.94161 -24.7432,21.34516 -19.133,42.82363 0.6333,2.42442 7.6299,3.09833 11.9417,1.15021 2.2,-0.99397 6.1277,-2.663 8.7282,-3.70893 7.7856,-3.13142 24.4101,-17.82711 25.9384,-22.92911 0.7334,-2.44799 1.7834,-4.89999 2.3334,-5.44889 0.55,-0.54891 1,-2.04242 1,-3.31891 0,-3.82104 12.4569,-13.97603 19.5962,-15.97504 9.2362,-2.58616 26.6497,-2.21708 32.7863,0.69489 2.727,1.29404 9.0065,6.08991 13.9545,10.6575 4.9479,4.56758 10.1963,8.93624 11.663,9.7081 6.2671,3.29824 35.3217,13.48852 42.6666,14.96443 11.434,2.29756 21.0142,5.20937 23.3334,7.09195 1.1,0.89293 3.0746,3.7235 4.388,6.29017 1.3134,2.56667 3.2546,6.16667 4.3137,8 3.2782,5.67467 2.415,10.40919 -3.0351,16.64563 -6.2643,7.1683 -13.7136,21.81293 -14.6512,28.80297 -0.6668,4.97167 -0.3196,5.66892 5.4696,10.98401 3.7179,3.41335 6.1816,6.83084 6.1816,8.57446 0,1.6244 1.2928,3.59098 2.9402,4.47265 2.6185,1.40135 3.4058,1.03493 7.1947,-3.34815 4.0024,-4.6301 4.8192,-7.05796 6.7478,-20.05833 0.4292,-2.89304 1.5351,-6.01479 2.4575,-6.93719 2.659,-2.65898 2.2275,-11.84404 -0.68,-14.47528 -2.0333,-1.84013 -2.3762,-3.55162 -1.8291,-9.1294 1.1322,-11.54248 1.674,-12.72772 7.5275,-16.46521 5.9797,-3.81812 9.8841,-4.04199 15.9353,-0.91369 4.448,2.29954 6.3728,5.68713 6.3728,11.21624 0,2.31588 1.0708,5.57194 2.3795,7.23572 2.1586,2.7442 2.3624,6.28988 2.195,38.19368 l -0.1845,35.16865 -3.3748,3.68329 c -3.02,3.29618 -4.2667,3.6783 -11.8616,3.63579 -9.284,-0.052 -17.5944,-1.81444 -33.6571,-7.13804 -5.777,-1.91463 -11.3455,-3.48113 -12.3745,-3.48113 -3.4489,0 -31.3117,-12.33176 -35.1388,-15.55206 -3.4387,-2.8935 -3.83,-4.11812 -4.3082,-13.48193 -0.2893,-5.66464 -1.2002,-12.09935 -2.0242,-14.29935 -0.824,-2.2 -2.2201,-9.1 -3.1023,-15.33333 -0.9822,-6.93988 -2.5624,-12.56601 -4.0762,-14.51315 -1.3598,-1.74889 -2.4723,-4.33833 -2.4723,-5.75432 0,-4.32993 -2.3806,-7.34198 -6.4453,-8.15492 -3.0579,-0.6116 -4.7227,-2.40294 -7.9082,-8.50948 -2.2191,-4.25413 -5.6136,-8.91398 -7.5432,-10.35521 -3.3059,-2.46927 -3.7177,-2.49399 -7.1391,-0.42867 -4.1549,2.50814 -5.2649,6.75014 -2.9152,11.14072 1.1592,2.16595 1.2386,4.12134 0.2789,6.87414 -1.2252,3.51466 0.2746,16.1465 2.735,23.03422 0.3929,1.1 1.0727,3.63714 1.5106,5.63807 0.5079,2.32033 3.3252,5.52587 7.7781,8.84996 3.8399,2.86653 11.4817,9.42288 16.9817,14.56965 13.0833,12.243 12.6389,12.72476 -12.0627,13.07714 -10.3006,0.14693 -22.6108,1.03886 -27.356,1.98206 -11.3055,2.24716 -15.9932,0.80627 -15.7314,-4.83544 0.1008,-2.17146 -0.3692,-6.18673 -1.0445,-8.92284 -0.8942,-3.62293 -0.6689,-6.89758 0.8292,-12.05088 2.3236,-7.99278 1.1681,-18.60288 -2.3281,-21.37776 -1.1064,-0.87814 -3.073,-3.90278 -4.3702,-6.72141 -2.9334,-6.37399 -6.6133,-8.14303 -14.4836,-6.9628 -9.2654,1.38943 -10.5847,3.41652 -9.5441,14.66444 2.0608,22.2746 3.4988,25.82595 14.1318,34.90003 4.65,3.96829 7.9596,8.25432 7.9596,10.30789 0,2.22561 -13.9291,4.88655 -25.487,4.86887 -9.842,-0.0151 -19.7014,-3.96431 -25.3438,-10.15167 -1.9237,-2.10941 -6.6699,-9.23531 -10.5471,-15.83531 -8.9025,-15.15413 -12.1235,-18.65502 -21.584,-23.45932 -8.0482,-4.08708 -10.89648,-4.78277 -10.1268,-2.47348 0.8789,2.63654 15.0833,20.594 20.7696,26.25726 11.7636,11.71601 7.5319,15.37876 -16.3475,14.14958 -15.714579,-0.80888 -29.888779,0.7717 -33.555979,3.74184 -1.3855,1.12218 -4.8322,1.83131 -11.1728,2.29876 -1.1342,0.0836 -3.2342,1.05203 -4.6667,2.15204 -1.4325,1.10002 -5.4545,4.1275 -8.9379,6.72775 -10.2989,7.68796 -7.5714,12.64903 3.6685,6.67271 3.5174,-1.87026 7.4706,-3.40047 8.7848,-3.40047 1.3141,0 2.7503,-0.58395 3.1914,-1.29765 1.4418,-2.33296 9.9476,-5.68286 12.2177,-4.81176 1.2195,0.46797 6.7743,1.14678 12.3441,1.50848 14.834279,0.9633 38.835979,7.31004 42.859079,11.33318 4.1163,4.11623 4.754,9.10932 1.4583,11.41771 -1.5459,1.08279 -4.6212,4.60016 -6.834,7.81637 -4.699,6.82971 -18.6117,14.28668 -34.023179,18.23587 -15.9667,4.09145 -23.0221,6.20411 -25.9472,7.76952 -1.5511,0.83015 -3.9951,1.13644 -5.4311,0.68067 -1.8806,-0.59688 -3.7589,0.4081 -6.7145,3.5928 -4.1807,4.50452 -9.2405,13.13965 -9.2405,15.76973 0,2.19213 8.5499,5.31841 14.5451,5.31841 2.9136,0 5.6683,0.6 6.1215,1.33334 1.144,1.85093 7.5466,1.59365 10.1778,-0.40899 1.1978,-0.91163 2.4042,-2.83341 2.681,-4.27064 0.5685,-2.95193 5.7412,-4.31269 19.6873,-5.17901 6.212279,-0.38591 10.073879,0.124 14.140679,1.86724 5.8676,2.51517 7.2336,5.324 7.3718,15.15806 0.032,2.29167 0.978,6.56667 2.1019,9.5 1.1239,2.93334 2.4714,7.12971 2.9945,9.32528 0.5231,2.19558 1.9772,4.18958 3.2314,4.43111 1.8054,0.34769 2.2803,-0.54561 2.2803,-4.28961 0,-2.60083 1.3156,-7.43656 2.9234,-10.74608 2.6691,-5.4938 2.7778,-6.58594 1.2484,-12.55303 -0.9213,-3.59464 -1.7332,-12.2812 -1.8043,-19.30348 l -0.1293,-12.76779 5.2518,-5.71486 c 2.8886,-3.14318 8.1539,-10.0486 11.7008,-15.34538 7.503,-11.20477 7.2561,-10.98534 16.8092,-14.93548 9.8967,-4.0922 20.3214,-5.27914 58,-6.60386 29.4853,-1.03666 32.6511,-0.92708 40.2847,1.39429 9.2335,2.80787 12.382,6.04019 12.382,12.7118 0,3.68555 -0.7662,4.73377 -5.062,6.92535 -2.7842,1.42034 -7.4342,3.00372 -10.3334,3.5186 -2.8992,0.51489 -8.5473,1.76498 -12.5514,2.77798 -10.834,2.74092 -11.594,2.54964 -12.5487,-3.15817 -1.0286,-6.15028 -2.7316,-8.96839 -4.6888,-7.7588 -2.1022,1.29924 -1.8369,5.60879 0.6706,10.89297 2.1491,4.52886 2.1444,4.54682 -2.5912,9.78852 -6.0481,6.69456 -8.3305,11.24074 -9.4247,18.77312 -1.2923,8.89552 0.9535,11.30419 10.5399,11.30419 6.2323,0 7.9853,-0.52697 9.9905,-3.00328 3.8634,-4.77107 30.8513,-26.44833 39.745,-31.92405 13.0701,-8.04698 18.4822,-9.87232 30.5319,-10.29742 10.3183,-0.36401 12.5207,-0.0147 18.3889,2.91692 12.588,6.28858 25.8394,16.44775 27.3248,20.94844 0.7609,2.30568 3.7285,6.48194 6.5945,9.28055 4.1918,4.09317 5.3901,6.39076 6.1268,11.74704 0.6798,4.94256 1.565,6.82843 3.4349,7.3174 1.8326,0.47923 2.519,1.86665 2.519,5.09121 0,2.43787 -0.6576,4.83894 -1.4615,5.33572 -0.8038,0.4968 -1.1777,2.7822 -0.8309,5.0787 0.3468,2.29649 -0.1445,6.27544 -1.0917,8.8421 -0.9473,2.56667 -2.0407,9.86714 -2.4298,16.22327 -0.6001,9.80328 -1.4455,13.03988 -5.5724,21.33333 -3.968,7.97411 -5.0678,11.98928 -5.9646,21.77674 -1.2118,13.22585 -3.6829,21.42801 -8.288,27.51 -7.8598,10.38064 -13.6899,15.80233 -21.3583,19.86217 -4.5848,2.42735 -10.4784,5.75119 -13.0969,7.38631 -2.6184,1.63512 -10.7184,5.39244 -18,8.34961 -10.8863,4.42113 -16.3197,5.74056 -30.5725,7.42417 -47.226,5.57855 -85.1794,5.97372 -102.6667,1.06898 -16.2905,-4.5691 -31.3333,-4.82075 -31.3333,-0.5242 0,1.39449 8.0481,5.55304 13.4445,6.94692 11.9499,3.08668 23.4054,6.81626 28.4767,9.27122 3.073,1.48764 6.242,2.70482 7.0421,2.70482 2.716,0 18.3604,7.57798 20.1858,9.77782 0.9988,1.20352 1.4901,3.0372 1.0919,4.07484 -1.5452,4.02687 2.3143,4.69035 4.7351,0.814 z m 156.4363,-51 c 1.4858,-4.81674 4.7226,-10.71229 8.1085,-14.76897 1.7302,-2.07292 3.1457,-4.54945 3.1457,-5.5034 0,-0.95395 0.9,-2.48137 2,-3.39429 1.7243,-1.43104 2,-0.88047 2,3.99405 0,4.38084 -0.9006,6.67971 -4,10.20965 -2.2,2.50567 -4,5.34188 -4,6.30271 0,2.13692 -4.2636,6.16025 -6.5281,6.16025 -1.098,0 -1.3414,-1.00546 -0.7261,-3 z m 41.9209,-170.33333 c 0,-1.46667 0.6,-2.66667 1.3333,-2.66667 0.7333,0 1.3333,1.2 1.3333,2.66667 0,1.46667 -0.6,2.66667 -1.3333,2.66667 -0.7333,0 -1.3333,-1.2 -1.3333,-2.66667 z m 109.3333,215.92131 c 0,-2.83968 -0.9989,-3.1806 -3.9143,-1.33584 -1.5803,1 -1.6121,1.57532 -0.1822,3.29822 2.0976,2.52751 4.0965,1.56996 4.0965,-1.96238 z m -161.6668,-8.69927 c -1.2706,-1.27061 -3.818,0.78747 -2.8711,2.3196 0.5628,0.91067 1.3086,0.88767 2.2662,-0.0699 0.785,-0.78501 1.0572,-1.79737 0.6049,-2.24969 z m 325.4262,-1.55537 c 0.5372,-3.78231 -3.0851,-4.08454 -5.0458,-0.42099 -1.9932,3.72431 -1.7406,4.32429 1.6197,3.84705 1.928,-0.27381 3.1523,-1.49812 3.4261,-3.42606 z m -35.7594,-1.66667 c 0,-0.73333 -0.9354,-1.33333 -2.0787,-1.33333 -1.1433,0 -1.7079,0.6 -1.2546,1.33333 0.4532,0.73333 1.3886,1.33333 2.0787,1.33333 0.69,0 1.2546,-0.6 1.2546,-1.33333 z m -515.9633,-12.89121 c 1.8132,-1.2235 3.5317,-2.4085 3.8189,-2.63332 1.3572,-1.06246 -6.2725,-5.72526 -9.4324,-5.76444 -5.0658,-0.0628 -6.5412,4.88918 -2.4448,8.20621 3.6526,2.95775 3.9485,2.96479 8.0583,0.19155 z m 283.9633,-1.18748 c 0,-1.14328 -0.6,-1.70787 -1.3333,-1.25464 -0.7334,0.45322 -1.3334,1.38864 -1.3334,2.07869 0,0.69005 0.6,1.25464 1.3334,1.25464 0.7333,0 1.3333,-0.93541 1.3333,-2.07869 z m 26.4099,-0.86523 -3.5901,-2.79577 2.5778,-5.05303 c 1.4179,-2.77916 2.2298,-5.96008 1.8044,-7.06871 -0.7816,-2.03694 -8.9722,-7.4719 -11.2603,-7.4719 -2.0238,0 -5.275,9.24826 -5.275,15.00505 v 5.34607 l 5.0485,-0.67715 c 3.9661,-0.53197 5.8957,7.3e-4 9,2.48448 2.1733,1.73889 4.2515,3.13128 4.6181,3.09419 0.3667,-0.0371 -0.9488,-1.32555 -2.9234,-2.86323 z m -10.4099,-7.80144 c 0,-1.50995 0.6,-2.37453 1.3333,-1.92131 0.7334,0.45323 1.3334,1.68864 1.3334,2.74536 0,1.05672 -0.6,1.92131 -1.3334,1.92131 -0.7333,0 -1.3333,-1.23541 -1.3333,-2.74536 z m -313.865,7.86031 c 1.1953,-1.93402 -5.3675,-7.78162 -8.7333,-7.78162 -3.10978,0 -4.46918,3.42632 -2.6833,6.76326 1.5563,2.90793 9.7946,3.64278 11.4166,1.01836 z m 484.0495,-3.11495 c 0.4221,-1.1 0.3812,-3.00652 -0.091,-4.23672 -0.7868,-2.05033 -1.0361,-2.05895 -2.9916,-0.10333 -2.1991,2.19897 -1.6126,6.34005 0.8979,6.34005 0.7794,0 1.7624,-0.9 2.1845,-2 z m -406.3928,-12.08121 c -0.6103,-3.1484 -3.582,-4.01666 -4.6068,-1.34602 -1.0262,2.67432 2.0739,6.70176 3.817,4.9587 0.6865,-0.68652 1.042,-2.31223 0.7898,-3.61268 z m 409.5357,2.75498 c 0.9712,-1.17022 1.2711,-3.23424 0.7265,-5 -2.9111,-9.43818 -3.0248,-13.1542 -0.5508,-18.00665 2.8887,-5.66621 3.1127,-8.68624 0.9458,-12.75477 -4.4039,-8.26867 -10.0409,-8.07491 -13.6078,0.46772 -1.6386,3.9243 -1.6597,5.40289 -0.1401,9.81997 0.9839,2.86003 2.2787,5.56003 2.8773,6 0.5986,0.43997 1.2007,3.49996 1.3379,6.79996 0.1373,3.3 0.3154,7.17235 0.3957,8.60521 0.3077,5.48314 4.9049,7.81663 8.0155,4.06856 z m -434.6607,-2.67377 c 0,-1.1 -0.6,-2 -1.3333,-2 -0.7334,0 -1.3334,0.9 -1.3334,2 0,1.1 0.6,2 1.3334,2 0.7333,0 1.3333,-0.9 1.3333,-2 z m 380.5679,-2.89008 c 1.722,-4.48759 -3.4954,-6.27196 -5.7919,-1.98085 -0.89,1.66285 -0.8525,2.92784 0.1156,3.89581 1.7635,1.76351 4.6367,0.79419 5.6763,-1.91496 z m -399.483,-2.11395 c 0.2451,-1.28556 -0.5453,-2.7176 -1.7564,-3.18233 -2.647,-1.01575 -6.7077,2.6214 -5.3604,4.80132 1.4031,2.27037 6.6009,1.08795 7.1168,-1.61899 z m 415.1974,-6.98453 c 2.0566,-4.13571 2.079,-4.793 0.2259,-6.64612 -2.3893,-2.38923 -4.5082,-1.55257 -4.5082,1.78004 0,1.27672 -0.6797,3.00097 -1.5104,3.83168 -1.8221,1.82205 -0.586,5.70267 1.8019,5.65683 0.9396,-0.018 2.7355,-2.09814 3.9908,-4.62243 z m -55.7125,0.32189 c 1.5322,-2.33964 1.6816,-4.25898 0.6788,-8.71956 -0.817,-3.63437 -0.8222,-6.58588 -0.014,-8.09581 1.5442,-2.88533 0.9105,-15.28899 -1.9167,-37.51796 -1.1659,-9.16667 -2.3253,-18.88399 -2.5763,-21.59405 -0.5384,-5.81183 -5.7517,-13.92911 -7.6967,-11.98411 -0.7116,0.71168 -1.5454,12.82499 -1.8526,26.91845 -0.5272,24.17539 -0.4016,25.87884 2.2208,30.12191 1.603,2.59375 2.4422,5.56015 1.9826,7.00816 -0.4382,1.38092 -0.1352,4.24 0.6734,6.35353 0.8087,2.11352 1.474,6.52564 1.4785,9.80471 0.014,9.88955 3.2593,13.45085 7.0223,7.70473 z m 112.6667,-0.51314 c 3.3487,-4.25716 3.4973,-6.61032 0.5227,-8.27503 -2.0989,-1.17459 -2.0989,-1.39597 0,-3.49483 2.6437,-2.64368 2.8685,-6.42968 0.6219,-10.47132 -0.9628,-1.73201 -1.6382,-8.4242 -1.6667,-16.51225 -0.033,-9.28017 -0.5948,-14.14696 -1.7699,-15.32219 -1.4074,-1.40748 -1.9642,-1.35876 -3.046,0.26658 -1.3582,2.04066 -0.8315,21.18098 0.7153,25.9936 0.6538,2.03401 -0.093,3.23358 -3.1298,5.02745 -4.8917,2.88964 -6.433,7.02037 -3.7549,10.06335 1.225,1.39197 1.7257,3.81777 1.3246,6.418 -1.3806,8.95045 4.9965,12.90004 10.1828,6.30664 z m -473.2365,-1.89888 c 0,-2.78172 -1.9615,-3.47427 -3.3728,-1.19079 -1.2094,1.95695 0.4018,5.61492 2.0301,4.60864 0.7385,-0.45643 1.3427,-1.99447 1.3427,-3.41785 z m 382.0159,-10.92131 c -0.5675,-7.51667 -1.1985,-16.83829 -1.4021,-20.71473 -0.3868,-7.36566 -3.6553,-14.1675 -6.3655,-13.24692 -3.036,1.03126 0.041,30.19498 3.6012,34.12869 1.7052,1.88424 2.0291,3.78928 1.3578,7.98703 -0.7544,4.7177 -0.541,5.5126 1.4795,5.5126 2.1727,0 2.2787,-1.09014 1.3291,-13.66667 z m -316.9364,10 c -0.5412,-2.81045 -2.9076,-2.63324 -3.5106,0.26291 -0.2515,1.20797 0.4835,2.07042 1.7644,2.07042 1.3733,0 2.0273,-0.87386 1.7462,-2.33333 z m -75.0795,-0.33333 c -0.4532,-0.73334 -1.424,-1.33334 -2.1574,-1.33334 -0.7333,0 -0.9625,0.6 -0.5093,1.33334 0.4533,0.73333 1.4241,1.33333 2.1574,1.33333 0.7333,0 0.9625,-0.6 0.5093,-1.33333 z m -3.9802,-5.3552 c 2.2051,-2.43662 2.2835,-3.50038 0.8367,-11.35255 -1.1837,-6.4238 -1.2112,-9.38379 -0.1066,-11.44777 1.6096,-3.0076 1.5038,-3.59618 -2.5752,-14.32215 -1.6191,-4.25747 -2.415,-8.65411 -1.9697,-10.88064 1.348,-6.73981 -4.1988,-17.63313 -6.8195,-13.3928 -0.9215,1.49108 0.1897,29.44895 1.2832,32.28573 0.4668,1.21072 0.2079,5.66711 -0.5751,9.9031 -1.1857,6.414 -1.0778,8.22977 0.6452,10.85948 1.1433,1.7449 1.7006,4.31825 1.2457,5.75164 -1.751,5.51678 3.776,7.30238 8.0353,2.59596 z m 122.6471,-7.13688 c 2.0505,-6.03259 2.183,-7.84668 0.8142,-11.1513 -0.8992,-2.17065 -1.2839,-5.38889 -0.855,-7.15164 0.7344,-3.01833 4.3563,-34.23089 5.323,-45.87165 0.2436,-2.93333 0.8361,-7.73333 1.3167,-10.66667 1.0834,-6.6122 -2.5235,-14.66666 -6.5679,-14.66666 -3.983,0 -6.4348,11.45088 -6.8516,32 -0.1933,9.53333 -0.6943,23.93333 -1.1133,32 -0.8344,16.06709 -0.8516,17.22948 -0.3853,26 0.6302,11.85413 4.1942,11.64332 8.3192,-0.49208 z m 225.9997,8.49208 c 0,-0.73334 -0.9,-1.33334 -2,-1.33334 -1.1,0 -2,0.6 -2,1.33334 0,0.73333 0.9,1.33333 2,1.33333 1.1,0 2,-0.6 2,-1.33333 z m 185.5124,-3.08791 c 3.0976,-1.93448 4.2836,-5.35409 3.124,-9.00764 -0.5688,-1.79204 -0.015,-3.71411 1.5768,-5.47233 3.6911,-4.0771 3.7627,-18.93348 0.1201,-24.90971 -1.501,-2.46268 -3.1585,-6.36268 -3.6834,-8.66667 l -0.9542,-4.18908 -2.2995,5.24046 c -1.2648,2.88224 -2.7529,8.10821 -3.307,11.61328 -0.5541,3.50505 -1.7373,7.25233 -2.6295,8.32729 -0.8921,1.07496 -1.5144,2.74899 -1.3829,3.72005 0.564,4.16403 -0.2193,6.43226 -2.2213,6.43226 -1.6383,0 -1.9412,0.81036 -1.283,3.43274 0.4738,1.88802 0.1327,5.44852 -0.7582,7.91223 -2.2572,6.24207 0.1843,9.2022 6.5977,7.99904 2.5206,-0.47287 5.7158,-1.56724 7.1004,-2.43192 z m -519.3949,0.23131 c 1.9605,-3.17218 1.9655,-24.86474 0.01,-30.54927 -1.4601,-4.23771 -1.5706,-6.35084 -0.4599,-8.78863 2.1472,-4.71261 -1.7294,-12.47217 -6.2309,-12.47217 -4.2212,0 -5.5602,2.22813 -3.0553,5.08401 3.2073,3.65664 3.9041,7.68843 1.6518,9.55767 -2.653,2.20173 -2.6491,12.30989 0.01,25.35832 1.1207,5.5 2.3013,10.75 2.6237,11.66667 0.7334,2.08548 4.1973,2.17656 5.4539,0.1434 z m 20.8679,-0.1434 c 0.3323,-0.91667 0.3961,-6.76667 0.1418,-13 -0.2912,-7.14111 0.3272,-14.90808 1.6719,-20.99736 2.0771,-9.4056 2.0592,-9.79115 -0.6702,-14.41702 -1.8294,-3.10066 -2.5193,-5.88869 -1.9843,-8.01994 0.9434,-3.75883 -1.371,-7.23235 -4.8189,-7.23235 -2.8213,0 -4.2443,4.49687 -2.7046,8.5466 0.6381,1.6784 0.5661,3.904 -0.1687,5.21715 -0.7049,1.25953 -0.8846,3.5411 -0.3992,5.07016 0.5307,1.67224 -0.086,4.57825 -1.5478,7.29249 -2.32,4.30805 -2.3246,4.69093 -0.1014,8.45433 1.9198,3.25004 2.2102,6.09048 1.6547,16.18292 -0.3705,6.73255 -0.3499,12.76496 0.046,13.40535 1.1027,1.78417 8.1978,1.38285 8.881,-0.50233 z m 22.2281,-4.8977 c 2.9271,-1.85294 3.3359,-14.45058 1.0311,-31.76737 -1.147,-8.61755 -2.0177,-17.76827 -1.9349,-20.33493 0.083,-2.56667 0.1312,-12.16667 0.1075,-21.33334 -0.09,-34.87661 -0.074,-35.05306 3.4937,-38.14118 4.3181,-3.73735 4.9973,-13.32563 1.5957,-22.52548 -4.276,-11.56454 -5.5065,-16.07264 -5.5065,-20.17316 0,-4.86992 -3.2223,-9.7539 -5.1639,-7.82684 -1.6437,1.6314 0.637,48.18296 2.5287,51.61288 0.8615,1.56192 0.7295,2.6113 -0.4191,3.33333 -5.2613,3.30725 -7.7429,12.49383 -4.8402,17.91756 1.1717,2.18941 0.754,3.67655 -2.2501,8.01147 -3.4846,5.0283 -3.6,5.65494 -2.0853,11.31853 0.882,3.29753 1.2673,6.53963 0.8563,7.20465 -0.411,0.66503 0.1634,4.27566 1.2764,8.02362 1.6036,5.3999 1.719,7.96624 0.556,12.36288 -1.083,4.09414 -1.0577,8.16945 0.097,15.54841 0.8603,5.5 2.001,13.3 2.5349,17.33333 1.371,10.35666 3.2396,12.52718 8.1233,9.43564 z m 291.5544,-3.5596 c 0.056,-2.13181 0.5699,-4.92604 1.1427,-6.20937 0.5728,-1.28333 0.6669,-3.30939 0.2091,-4.50233 -0.4578,-1.19295 -0.156,-2.98399 0.6707,-3.9801 1.0107,-1.21778 1.2104,-5.20273 0.6097,-12.16433 -0.4915,-5.69428 -1.3075,-17.98436 -1.8135,-27.31129 -0.7257,-13.37803 -1.4021,-17.43904 -3.204,-19.23646 -5.5255,-5.51178 -12.3587,4.32922 -9.6185,13.85242 0.5816,2.02148 1.1673,6.07542 1.3013,9.00876 1.0621,23.2335 2.2242,33.8787 4.1483,38 1.1983,2.56666 2.6263,5.60584 3.1733,6.75372 0.5471,1.14788 0.4086,3.13432 -0.3077,4.41432 -0.7163,1.28 -0.9519,3.24072 -0.5235,4.35716 1.2515,3.2613 4.1018,1.2431 4.2121,-2.9825 z m -367.2741,-2.24898 c -2.0263,-2.02631 -2.8688,-0.74135 -1.9122,2.91652 0.7189,2.74916 0.9512,2.83974 2.0852,0.81326 0.8428,-1.50586 0.784,-2.7728 -0.173,-3.72978 z m 98.0086,1.37954 c 2.0445,-3.95362 2.1044,-7.20169 0.6945,-37.66666 -0.8486,-18.33696 -1.1635,-34.71528 -0.6996,-36.39626 1.1663,-4.22701 -2.1594,-19.02564 -4.4753,-19.91433 -5.2898,-2.02989 -8.3661,9.49887 -8.1862,30.67871 0.3262,38.40469 2.4757,61.03874 6.2007,65.29194 2.8652,3.27147 3.9098,2.9494 6.4659,-1.9934 z m 23.2718,1.45923 c 0.8441,-1.57713 1.4211,-6.82713 1.2822,-11.66667 -0.7466,-26.02701 -0.4377,-37.61776 1.0419,-39.09738 0.8626,-0.86264 1.5828,-4.29844 1.6003,-7.63511 0.017,-3.33667 0.5209,-8.16897 1.1188,-10.73845 0.6623,-2.84616 0.5029,-6.75392 -0.4078,-10 -1.9054,-6.79124 -5.4599,-7.07432 -9.7064,-0.77302 -3.0568,4.536 -3.3352,6.58687 -3.2725,24.11147 0.014,4.03333 0.044,18.29264 0.065,31.68736 0.022,13.39471 0.4041,24.94471 0.8503,25.66667 1.4355,2.32284 5.8469,1.39942 7.428,-1.55487 z m 329.2117,0.88448 c 2.0226,-2.43707 0.8411,-6.01697 -1.9859,-6.01697 -2.4465,0 -3.9441,3.15165 -2.8511,6 0.975,2.54097 2.7372,2.54716 4.837,0.0169 z m 77.5258,-4.78971 c 0.4779,-3.35834 2.0868,-8.49334 3.5754,-11.41113 3.9678,-7.77764 2.7977,-21.21312 -2.2211,-25.50117 -2.7357,-2.33743 -3.1303,-3.27384 -1.7493,-4.15079 2.3464,-1.48997 1.4517,-7.49751 -1.1167,-7.49751 -1.1906,0 -2.1707,1.4838 -2.4219,3.66667 -0.2379,2.06759 -1.2421,3.66667 -2.3026,3.66667 -1.0343,0 -2.8784,1.52272 -4.0978,3.38381 -1.849,2.82196 -2.1021,5.81139 -1.5242,18.00377 0.3811,8.04098 1.3754,15.4422 2.2094,16.44719 0.8341,1.00497 1.139,2.81092 0.6776,4.01321 -1.1408,2.97306 1.9373,6.36999 5.3309,5.88303 2.1877,-0.31392 2.9544,-1.68371 3.6403,-6.50375 z m -363.4505,-6.81018 c 2.0467,-8.3514 2.1744,-11.82122 0.9943,-27 -0.7448,-9.5794 -1.3849,-19.21708 -1.4226,-21.41708 -0.201,-11.73816 -1.7456,-36.25486 -2.4175,-38.37164 -0.4262,-1.343 -1.474,-2.21142 -2.3285,-1.9298 -4.0125,1.32246 -4.7373,7.07396 -4.6514,36.90746 0.051,17.77828 -0.5204,32.62223 -1.3991,36.33002 -1.0096,4.26069 -1.0612,7.38566 -0.161,9.75346 0.7286,1.91626 1.3247,4.98448 1.3247,6.81828 0,4.71116 2.3315,8.49222 5.2366,8.49222 1.9651,0 2.9608,-1.97774 4.8245,-9.58292 z m 21.0571,3.95142 c 0.417,-1.66934 0.2242,-5.39598 -0.4285,-8.28142 -0.7793,-3.44555 -0.6912,-6.17202 0.2569,-7.94344 2.0841,-3.89428 1.5831,-10.01498 -1.0587,-12.93419 -1.9845,-2.19277 -2.1381,-4.04896 -1.1754,-14.19932 1.6509,-17.40739 0.9156,-42.25227 -1.496,-50.54787 -1.1398,-3.92092 -2.5098,-7.12893 -3.0445,-7.12893 -3.2223,0 -4.172,4.1114 -4.172,18.06181 0,11.02475 -0.5573,15.97892 -2.1585,19.18859 -1.7294,3.46664 -1.8538,4.99545 -0.6258,7.69059 0.843,1.85012 1.4271,7.20165 1.298,11.89232 -0.1778,6.46402 0.3256,9.14756 2.0798,11.0859 2.0352,2.2488 2.1052,3.13606 0.5806,7.35222 -1.3444,3.71796 -1.3882,5.71021 -0.1952,8.87098 1.0326,2.73554 1.121,5.17474 0.2688,7.4162 -0.9578,2.51895 -0.6224,4.80374 1.364,9.2944 2.2963,5.1912 2.9617,5.77899 5.1911,4.58587 1.4064,-0.75269 2.8983,-2.73436 3.3154,-4.40371 z m 16.2151,2.96483 c 0,-2.89164 -5.2018,-2.49331 -5.767,0.44161 -0.3647,1.89342 0.23,2.34246 2.6484,2 1.7152,-0.24289 3.1186,-1.34161 3.1186,-2.44161 z m 413.6089,-7.40292 c 0.3343,-5.72688 -0.034,-7.51044 -1.68,-8.1422 -4.8921,-1.87728 -6.8221,6.87489 -2.5556,11.58931 1.3053,1.44236 1.9449,2.62248 1.4213,2.62248 -0.5236,0 -0.5565,0.63992 -0.073,1.42204 1.5251,2.46772 2.4454,0.08 2.8874,-7.49163 z m -274.2756,2.67229 c 0,-1.7116 -0.6409,-3.50809 -1.4242,-3.99221 -0.7834,-0.48413 -1.1096,-1.70032 -0.7249,-2.70267 0.3846,-1.00233 0.1927,-2.13552 -0.4264,-2.51817 -1.3295,-0.82168 -3.2821,10.68344 -2.1296,12.5482 1.387,2.24413 4.7051,-0.10787 4.7051,-3.33515 z m 111.8095,-1.03981 c 2.0899,-2.51823 4.0094,-32.18839 2.1995,-33.99832 -1.3185,-1.31856 -3.3423,1.65692 -3.3423,4.91412 0,2.01005 -0.5681,4.22464 -1.2624,4.92131 -0.6944,0.69666 -1.6804,6.81666 -2.1913,13.6 -0.7952,10.55701 -0.6369,12.33333 1.0991,12.33333 1.1154,0 2.6893,-0.79671 3.4974,-1.77044 z m 121.2407,-3.74377 c 0.4869,-2.52856 -3.5843,-4.48502 -5.4502,-2.61912 -1.9267,1.92673 0.052,5.72929 2.714,5.21656 1.2771,-0.24595 2.5084,-1.4148 2.7362,-2.59744 z M 92.965981,577.35077 c 1.7599,-3.28833 1.7889,-10.34441 0.047,-11.42098 -0.7333,-0.45323 -1.3333,-2.52444 -1.3333,-4.60271 0,-4.1956 -3.0099,-6.19684 -5.2538,-3.49313 -2.0768,2.50238 0.9106,22.09584 3.369,22.09584 0.985,0 2.4121,-1.16056 3.1712,-2.57902 z m 317.989979,-2.66218 c 0.4219,-0.68267 0.1573,-1.61808 -0.588,-2.0787 -0.7453,-0.46061 -1.3551,0.0979 -1.3551,1.2412 0,2.34204 0.8001,2.68688 1.9431,0.8375 z m 48.1395,-4.49318 c 0.366,-0.9539 0.7137,-10.7039 0.7726,-21.66666 0.1779,-33.1246 0.1727,-33.1942 -2.7051,-36.7055 -2.5012,-3.05172 -2.7709,-3.10269 -4.9704,-0.93954 -2.0033,1.97029 -2.1306,3.17128 -0.9185,8.66666 0.7739,3.50868 1.1392,8.47942 0.8119,11.04608 -0.3274,2.56667 -0.063,6.0872 0.5866,7.82342 0.7459,1.9923 0.5929,5.43514 -0.4147,9.33333 -1.4032,5.42861 -1.3174,17.73145 0.1571,22.50992 0.6788,2.20008 5.8303,2.14788 6.6805,-0.0677 z m 89.1448,-1.26562 c 2.9128,-14.29018 1.6667,-23.1751 -2.7376,-19.51986 -1.88,1.56027 -2.6097,16.25186 -1.0138,20.4108 1.1661,3.03887 3.0411,2.59355 3.7514,-0.89094 z m 181.4393,-4.33334 c 0,-3.3719 -0.5206,-4 -3.3151,-4 -2.1379,0 -3.48,0.8562 -3.7794,2.41122 -0.779,4.04504 0.8708,6.47254 4.0885,6.01564 2.3562,-0.33459 3.006,-1.29147 3.006,-4.42686 z m -413.1782,1.74903 c 1.0381,-1.67965 1.3754,-4.88399 2.2507,-21.38291 0.3006,-5.66529 1.1822,-11.0664 1.959,-12.00245 2.1237,-2.55881 3.6246,-29.31309 1.8324,-32.66187 -1.1282,-2.10794 -0.9912,-3.70658 0.5889,-6.87396 1.1324,-2.26996 1.6303,-4.82074 1.1064,-5.6684 -0.5239,-0.84764 -1.314,-7.90529 -1.7558,-15.68364 -0.7594,-13.36882 -0.9675,-14.16577 -3.8034,-14.56853 -1.65,-0.23433 -3.0192,0.0656 -3.0427,0.66667 -0.024,0.601 -0.3395,8.42681 -0.7021,17.3907 -0.6099,15.07732 -0.4569,16.50034 2.0428,19 3.2158,3.21586 3.3654,4.03536 0.7362,4.03536 -2.4413,0 -6.0342,6.70866 -6.0342,11.26712 0,2.74854 -0.6463,3.39955 -3.3752,3.39955 -1.8948,0 -3.7423,0.95669 -4.2122,2.18123 -1.1717,3.05341 1.4454,6.54246 4.644,6.19124 2.3693,-0.26019 2.6,0.29581 1.9948,4.80778 -0.3763,2.8061 0,6.3885 0.8457,7.96087 1.1071,2.06861 1.1328,3.60121 0.093,5.54435 -0.9801,1.83144 -1.035,4.89801 -0.1726,9.64277 0.948,5.21624 0.8247,7.80776 -0.4929,10.35572 -2.7582,5.3338 2.4261,11.36783 5.4974,6.3984 z m 208.3371,-18.17265 c 2.1382,-16.67302 1.9301,-22.09272 -0.9867,-25.69483 -2.3793,-2.93831 -2.6488,-2.97944 -5.8363,-0.89095 -3.8817,2.54343 -5.8049,8.43606 -3.6146,11.07522 0.8265,0.99589 1.692,5.49818 1.9233,10.00506 0.2313,4.5069 1.0809,8.85467 1.888,9.66174 0.807,0.80706 1.4674,2.84738 1.4674,4.53405 0,1.7068 0.8095,3.06667 1.8255,3.06667 1.2932,0 2.2653,-3.42867 3.3334,-11.75696 z m 134.8411,5.09029 c 0,-1.46667 -0.6,-2.66667 -1.3334,-2.66667 -0.7333,0 -1.3333,1.2 -1.3333,2.66667 0,1.46667 0.6,2.66667 1.3333,2.66667 0.7334,0 1.3334,-1.2 1.3334,-2.66667 z M 93.012881,545.06229 c 0,-5.7577 -8.1794,-17.86061 -11.2692,-16.67492 -2.8057,1.07666 -2.5953,4.54504 0.8346,13.75711 4.1075,11.03188 5.102,12.07537 8.0448,8.44116 1.3144,-1.6232 2.3898,-4.10871 2.3898,-5.52335 z m -22.9244,-9.24078 c 0.5218,-17.72562 -0.4861,-24.81574 -3.7779,-26.57747 -2.0453,-1.09464 -2.9019,-0.77076 -4.3987,1.6632 -2.3736,3.85957 -0.7504,27.19919 2.4188,34.78151 3.5565,8.50881 5.3051,5.51222 5.7578,-9.86724 z m 38.591679,12.44161 c 0.3255,-0.97757 -0.5935,-1.66667 -2.2228,-1.66667 -1.6378,0 -2.7778,0.86092 -2.7778,2.09776 0,2.45051 4.1606,2.09183 5.0006,-0.43109 z m 233.8705,-3.6782 c 0.5176,-2.92699 1.8833,-7.94724 3.035,-11.15611 1.1516,-3.20886 2.0939,-8.5737 2.0939,-11.92186 0,-12.95646 3.0482,-36.93244 4.9785,-39.15982 2.1501,-2.48082 1.2674,-5.08401 -1.7239,-5.08401 -1.1557,0 -1.9213,1.31596 -1.9213,3.3026 0,2.02857 -1.2533,4.1238 -3.2489,5.43137 -3.6546,2.39458 -4.6122,5.60254 -5.3723,17.99696 -1.0727,17.49102 -2.1425,32.79607 -2.7755,39.70472 -0.5702,6.22514 -0.3638,7.0471 1.6715,6.65514 1.5343,-0.29548 2.6413,-2.2526 3.263,-5.76899 z m 276.6386,3.05937 c 1.2284,-1.98753 3.104,-27.63424 2.1944,-30.00473 -1.0647,-2.77453 -6.378,-1.96005 -10.1761,1.55989 -4.0029,3.7098 -4.3174,5.08207 -1.6681,7.28071 1.2282,1.01937 1.8344,4.24125 1.785,9.48743 -0.055,5.88128 0.5539,8.63862 2.3468,10.61969 2.7886,3.08136 4.1104,3.33457 5.518,1.05701 z m -42.4851,-4.10517 c 3.2284,-2.50068 5.9329,-9.90468 4.5679,-12.50533 -0.7036,-1.34054 -1.9951,-6.73464 -2.87,-11.9869 -0.8748,-5.25226 -2.4086,-10.65226 -3.4084,-12 -3.15,-4.24626 -6.2081,0.46599 -7.215,11.11758 -0.4948,5.23374 -1.8782,10.62844 -3.2569,12.70004 -2.7755,4.17056 -2.1958,6.97145 2.4876,12.01914 3.3223,3.58075 5.7098,3.74216 9.6948,0.65547 z m 19.2602,0.724 c 2.3534,-2.7032 2.98,-22.59772 0.796,-25.27605 -0.8896,-1.09106 -0.6309,-2.58226 0.8034,-4.63002 1.1637,-1.66133 2.1158,-3.89844 2.1158,-4.97134 0,-2.79502 -5.3689,-8.12259 -8.1855,-8.12259 -4.8206,0 -6.8044,9.04168 -3.1336,14.28247 1.1931,1.70329 1.492,3.19861 0.7333,3.66753 -0.7045,0.43544 -1.2554,6.17611 -1.2242,12.75703 0.046,9.69289 0.4766,12.21029 2.2668,13.25526 3.0444,1.7771 3.5099,1.70023 5.828,-0.96229 z m -45.6827,-4.64635 c 1.6191,-2.87125 1.6446,-3.78308 0.1565,-5.5762 -2.5868,-3.1169 -5.4253,-0.24096 -5.4253,5.49692 0,5.36211 2.2708,5.39627 5.2688,0.0793 z m -440.9486,-1.31408 c 0.7825,-2.34745 -1.6418,-14.73988 -3.2682,-16.70624 -2.0439,-2.4712 -4.75958,-2.02164 -5.70078,0.94371 -0.706799,2.22712 1.9696,12.79981 4.12168,16.28201 1.0328,1.6711 4.2314,1.32831 4.8473,-0.51948 z m 594.3465,-3.70624 c 0,-0.73333 -0.6,-1.33333 -1.3334,-1.33333 -0.7333,0 -1.3333,0.6 -1.3333,1.33333 0,0.73334 0.6,1.33334 1.3333,1.33334 0.7334,0 1.3334,-0.6 1.3334,-1.33334 z m -532.609,-9.11842 c -1.2492,-8.86016 -1.9979,-10.88158 -4.0303,-10.88158 -1.0605,0 -2.2096,2.31495 -2.8128,5.66667 -1.9165,10.64899 0.06,15.52881 5.1806,12.78853 2.1567,-1.15425 2.4069,-2.29398 1.6625,-7.57362 z m 381.4902,0.31141 c 4.7177,-7.20005 -2.3453,-32.92892 -7.5976,-27.67659 -2.3366,2.33659 -2.7047,24.63096 -0.4649,28.15027 2.5171,3.95475 5.2667,3.7932 8.0625,-0.47368 z m 166.8819,-3.59037 c 0.6334,-3.32232 -2.0229,-6.12603 -5.0532,-5.33358 -3.2543,0.85102 -4.5279,4.20715 -2.5163,6.63098 2.1052,2.53653 6.9985,1.69782 7.5695,-1.2974 z M 82.346281,519.92979 c 0,-0.73334 -0.6,-1.33334 -1.3334,-1.33334 -0.7333,0 -1.3333,0.6 -1.3333,1.33334 0,0.73333 0.6,1.33333 1.3333,1.33333 0.7334,0 1.3334,-0.6 1.3334,-1.33333 z m 429.942979,-1.2412 c 0.4219,-0.68267 0.1573,-1.61808 -0.588,-2.0787 -0.7453,-0.46061 -1.3551,0.0979 -1.3551,1.2412 0,2.34204 0.8001,2.68688 1.9431,0.8375 z m 169.4803,-3.09214 c 0.515,-1.65 2.6259,-4.93717 4.6908,-7.30482 2.0649,-2.36766 4.1718,-6.56766 4.6821,-9.33334 0.5103,-2.76568 2.0399,-7.11962 3.3991,-9.67542 1.3592,-2.55582 2.4904,-5.55582 2.5137,-6.66667 0.023,-1.11087 0.9233,-3.18443 2,-4.60792 2.7823,-3.67851 2.4222,-9.61385 -0.7773,-12.81336 -3.3193,-3.31929 -7.2579,-2.52659 -11.6859,2.35197 -2.5532,2.813 -2.9363,4.29622 -2.214,8.57151 0.7138,4.2246 0.1966,6.3256 -2.8282,11.49064 -2.0359,3.47641 -5.1558,7.46635 -6.933,8.86653 -2.6451,2.08388 -3.1137,3.41444 -2.5826,7.33334 1.5769,11.63544 7.5321,18.84601 9.7353,11.78754 z m -578.1104,-3.33333 c -0.011,-0.55 -0.60208,-1.9 -1.31288,-3 -1.0452,-1.61728 -1.2964,-1.42592 -1.3129,1 -0.011,1.65 0.5795,3 1.3129,3 0.7333,0 1.32408,-0.45 1.31288,-1 z m 353.1275,-9.45691 c 0.4756,-3.34309 -3.0696,-8.20976 -5.9804,-8.20976 -2.2966,0 -2.4175,8.17588 -0.1545,10.43892 2.4444,2.44434 5.635,1.285 6.1349,-2.22916 z m 275.9913,-5.99048 c 0.3855,-1.9878 -4.6961,-9.95942 -6.4673,-10.1455 -1.6996,-0.17855 -0.4076,10.83036 1.4054,11.97574 2.5807,1.6304 4.5273,0.92658 5.0619,-1.83024 z m -437.322,-19.06234 c -0.6513,-3.38186 -5.1097,-4.12763 -5.1097,-0.8547 0,3.20162 2.8114,6.0863 4.3917,4.50606 0.6554,-0.65544 0.9785,-2.29855 0.718,-3.65136 z m 475.7811,2.73968 c 0.9661,-2.51779 -2.6883,-6.59123 -4.7629,-5.30903 -0.8037,0.49672 -1.4613,2.36772 -1.4613,4.15777 0,2.38251 0.7258,3.25464 2.7085,3.25464 1.4897,0 3.0717,-0.94652 3.5157,-2.10338 z m -137.0617,-0.70352 c 2.3249,-0.81047 4.7016,-2.46047 5.2815,-3.66667 2.0756,-4.31731 -0.4011,-28.40323 -3.6873,-35.85976 -3.0606,-6.94444 -6.6289,-9.10945 -8.9157,-5.40939 -0.5407,0.87484 -1.2352,10.79219 -1.5433,22.03855 -0.6746,24.62229 -0.1287,26.03241 8.8648,22.89727 z m 85.5042,-0.44774 c 0,-2.1235 -2.4192,-4.10398 -3.5868,-2.93637 -1.0968,1.09685 0.6154,4.85768 2.2116,4.85768 0.7563,0 1.3752,-0.86459 1.3752,-1.92131 z M 618.18776,475.454 c 0.8748,-1.054 1.1442,-3.5952 0.6456,-6.0882 -0.4707,-2.35348 -0.1148,-6.52432 0.7909,-9.26852 2.2738,-6.88965 0.3525,-16.83416 -3.2524,-16.83416 -3.7386,0 -11.7999,11.02373 -10.6489,14.56235 0.4957,1.52404 1.2201,4.85528 1.6096,7.40273 0.7774,5.08285 5.2645,12.03492 7.7678,12.03492 0.8723,0 2.2616,-0.81411 3.0874,-1.80912 z m 53.5376,-7.43859 c -0.7121,-1.33056 -2.5137,-2.73797 -4.0036,-3.12758 -3.8349,-1.00286 -3.5895,3.33257 0.2911,5.14108 3.8872,1.81158 5.3384,1.0245 3.7125,-2.0135 z m -462.7125,-0.0856 c 0,-0.73334 -0.6,-1.33334 -1.3333,-1.33334 -0.7333,0 -1.3333,0.6 -1.3333,1.33334 0,0.73333 0.6,1.33333 1.3333,1.33333 0.7333,0 1.3333,-0.6 1.3333,-1.33333 z m 1.2878,-8.33334 c 0.6768,-1.65 1.8442,-8.6262 2.5943,-15.50266 1.4669,-13.44707 0.5908,-17.49734 -3.7844,-17.49734 -2.8107,0 -4.6955,5.34916 -3.3636,9.54571 0.463,1.45875 -0.196,6.48608 -1.4643,11.17184 -2.1533,7.95495 -2.1593,8.74367 -0.09,11.90101 2.7351,4.17427 4.5074,4.28495 6.1085,0.38144 z m 296.7548,-1.13421 c 0.9933,-3.12957 -1.0275,-5.98385 -3.2598,-4.60425 -1.6005,0.9892 -1.956,5.12084 -0.5606,6.51624 1.5982,1.59822 2.9155,0.93896 3.8204,-1.91199 z m 49.6733,-4.53344 c 0.3848,-2.68367 -3.8385,-5.47848 -15.7159,-10.40013 -7.0106,-2.905 -19.9823,-6.7277 -20.6303,-6.07966 -0.3135,0.31346 -0.2128,4.03063 0.2238,8.26038 0.6605,6.40013 1.1527,7.53432 2.9334,6.75988 1.1769,-0.51182 5.8103,-1.20743 10.2966,-1.54579 7.0387,-0.53087 8.4114,-0.25175 10.014,2.03628 3.3358,4.76253 12.2383,5.43241 12.8784,0.96904 z m 34.6101,0.3343 c 0.7256,-0.91667 1.7271,-4.87257 2.2257,-8.79089 1.5484,-12.16954 -3.4441,-21.2629 -9.3164,-16.96894 -2.6656,1.9491 -2.8972,8.55067 -0.5648,16.09316 0.6804,2.2 1.5692,5.65 1.9753,7.66667 0.7776,3.86144 3.4594,4.80573 5.6802,2 z m 152.3407,-3 c 4.2252,-2.56667 8.3456,-4.66667 9.1565,-4.66667 1.362,0 5.5101,-8.15266 5.5101,-10.82949 0,-2.7288 -2.5155,-0.85585 -3.8002,2.82949 -1.0905,3.12818 -2.1884,4 -5.0373,4 -4.6006,0 -16.4157,7.89514 -16.4614,11 -0.05,3.36642 1.9842,2.92007 10.6323,-2.33333 z m -178.6667,-12.68767 c 0,-3.41218 -3.4752,-11.979 -4.8593,-11.979 -1.8667,0 -1.9435,9.26678 -0.097,11.66667 1.5399,2.00115 4.956,2.21643 4.956,0.31233 z M 71.712381,431.22364 c 2.3431,-2.82328 -0.3507,-8.62719 -4.0042,-8.62719 -2.0631,0 -2.6953,0.8757 -2.6953,3.73334 0,3.48788 2.0392,6.93333 4.1034,6.93333 0.4969,0 1.6651,-0.91777 2.5961,-2.03948 z m 581.837279,-0.0952 c 4.041,-1.55068 9.8398,-14.06602 10.8096,-23.33005 0.8887,-8.48959 0.7931,-8.89864 -2.7258,-11.66667 -8.8479,-6.95976 -13.5708,-0.91948 -10.2112,13.05962 0.7836,3.26052 1.1266,6.41052 0.7623,7 -1.1336,1.83412 -10.8625,1.18526 -24.7925,-1.65348 -7.3552,-1.4989 -13.7485,-2.34984 -14.2074,-1.89099 -1.158,1.15797 3.8306,4.61624 6.6589,4.61624 1.2766,0 3.6078,1.80705 5.1805,4.01568 1.5726,2.20861 3.3069,3.73912 3.8538,3.40111 0.5469,-0.33802 4.851,-0.0753 9.5647,0.58365 6.0845,0.85068 9.1504,1.9768 10.5703,3.88248 2.3566,3.16287 1.9377,2.9798 4.5368,1.98241 z m 110.9497,-2.57866 c 2.0353,-3.1062 2.0442,-3.81408 0.1098,-8.7388 -1.8148,-4.61995 -1.8402,-5.46044 -0.184,-6.09599 2.6667,-1.02328 2.4028,-4.10025 -0.4841,-5.64527 -3.3124,-1.77278 -6.1467,0.27234 -5.2308,3.77448 0.506,1.93519 -0.291,3.89132 -2.4755,6.07588 -1.772,1.772 -3.2218,4.48854 -3.2218,6.03675 0,7.92308 7.3728,10.87116 11.4865,4.59295 z m -22.1532,-0.62 c 0,-0.73334 -0.5645,-1.33334 -1.2546,-1.33334 -0.6901,0 -1.6255,0.6 -2.0787,1.33334 -0.4532,0.73334 0.1113,1.33334 1.2546,1.33334 1.1433,0 2.0787,-0.6 2.0787,-1.33333 z M 31.679581,417.15201 c 0,-3.2494 -3.1157,-2.79009 -3.7644,0.55494 -0.2552,1.31568 0.425,2.22284 1.6666,2.22284 1.2369,0 2.0978,-1.14 2.0978,-2.77778 z m 668.911779,-6.88889 c 5.686,-6.00732 6.8736,-8.75224 8.379,-19.36676 0.7213,-5.08611 1.6465,-10.12036 2.0559,-11.18723 0.4093,-1.06685 -0.8229,-4.24921 -2.7385,-7.0719 -2.6895,-3.96324 -3.7488,-7.71046 -4.6507,-16.4522 -0.6423,-6.22603 -2.1291,-14.68047 -3.3039,-18.78764 -1.1748,-4.10719 -2.9956,-10.4676 -4.0462,-14.13427 -1.0507,-3.66667 -3.1304,-8.65291 -4.6216,-11.08053 -2.1888,-3.56332 -3.2837,-4.241 -5.6819,-3.5168 -4.6492,1.40394 -5.2349,2.49437 -6.1724,11.49193 -1.1226,10.77271 -2.2168,12.71155 -5.498,9.74205 -6.2549,-5.6606 -11.0489,3.24416 -5.1353,9.53883 l 3.0354,3.23109 1.6859,-3.03661 c 0.9273,-1.67015 1.7072,-2.30751 1.7332,-1.41636 0.026,0.89116 1.8284,3.64884 4.0053,6.1282 2.1769,2.47936 6.0881,9.55023 8.6916,15.71307 3.9035,9.24034 4.5857,12.19918 3.8902,16.87422 -0.5837,3.92386 -0.2455,6.59191 1.0988,8.66667 3.1047,4.79191 3.9673,16.60288 1.5535,21.27063 -1.9966,3.86106 -1.7442,7.72694 0.5045,7.72694 0.6125,0 2.9593,-1.95 5.2152,-4.33333 z m -243.1827,-11.68221 c 1.2429,-14.79952 0.5387,-25.1694 -2.0635,-30.38555 -1.0228,-2.05027 -1.6117,-5.85161 -1.3086,-8.44743 0.7521,-6.44221 -2.6761,-10.14486 -6.8453,-7.3933 -3.7414,2.46917 -4.2585,7.63945 -1.1254,11.25188 2.2012,2.53802 2.3472,3.79389 1.1858,10.20125 -1.0908,6.01792 -0.9123,8.38617 1.012,13.42487 1.8649,4.88304 2.0066,6.51538 0.7023,8.08697 -1.9366,2.33351 -0.9958,11.74723 1.4711,14.71967 0.9152,1.10269 2.6191,1.82216 3.7865,1.59882 1.6703,-0.31953 2.349,-3.10186 3.1851,-13.05718 z m 138.7156,11.44636 c 0.8759,-2.28246 -1.1918,-4.09778 -5.9628,-5.23508 -1.935,-0.46126 -5.4263,-3.01187 -7.7584,-5.66803 -3.7869,-4.31305 -4.1457,-5.41913 -3.3554,-10.34523 1.0141,-6.3207 5.0593,-13.96356 8.7642,-16.55856 1.4604,-1.02289 2.5343,-3.35136 2.5343,-5.49468 0,-2.04574 0.9065,-5.53664 2.0145,-7.75756 2.7984,-5.60968 5.0275,-18.61989 4.0671,-23.73893 -1.1694,-6.23355 -4.9455,-9.14265 -10.5119,-8.0984 -5.5398,1.03928 -7.9635,3.58385 -11.6022,12.18104 -1.5405,3.63987 -4.254,9.61795 -6.03,13.28461 -2.7573,5.69267 -3.2602,8.80946 -3.4425,21.33334 -0.3009,20.66349 -1.6219,22.58594 -19.6601,28.61049 -7.4258,2.48013 -13.5015,4.9802 -13.5015,5.55568 0,2.25809 10.5212,2.78525 31.7788,1.59224 17.323,-0.97221 22.9559,-0.87437 25.5545,0.44385 4.3978,2.23095 6.2255,2.20402 7.1114,-0.1048 z m 153.0464,-12.43082 c 0.7886,-2.01666 2.2374,-5.46666 3.2195,-7.66666 0.9821,-2.2 2.1655,-5.92183 2.6297,-8.27072 0.4642,-2.3489 1.9196,-5.6489 3.2341,-7.33334 1.9287,-2.47138 2.215,-4.41021 1.4827,-10.04332 -1.1018,-8.4758 -1.601,-9.07674 -5.028,-6.05262 -4.1632,3.67377 -12.6826,37.94588 -10.3649,41.69608 1.4557,2.35537 3.3528,1.43984 4.8269,-2.32942 z m -61.4911,-1.5 c 0,-4.18825 -1.957,-9.5 -3.5,-9.5 -2.2159,0 -2.2734,1.00652 -0.3696,6.46771 1.3383,3.83892 3.8696,5.82252 3.8696,3.03229 z m -66.1531,-5.34024 c 4.2226,-4.40745 4.4696,-11.52449 0.4864,-14.01848 -2.8241,-1.76824 -6.7584,0.2486 -7.4612,3.82486 -0.6549,3.33192 1.0941,14.03386 2.2934,14.03386 0.5512,0 2.6579,-1.7281 4.6814,-3.84024 z m -69.1803,-7.49309 c 0,-4.4596 -3.7552,-6.29844 -5.1958,-2.54428 -1.2994,3.38632 0.4338,7.42484 2.9764,6.93519 1.4767,-0.2844 2.2194,-1.75374 2.2194,-4.39091 z m -244.8973,-3.9148 c 0.3072,-2.61423 -0.086,-3.53749 -1.3334,-3.12768 -0.9731,0.3198 -1.9654,2.25059 -2.2051,4.29061 -0.3073,2.61423 0.086,3.5375 1.3333,3.12768 0.9731,-0.3198 1.9654,-2.25058 2.2052,-4.29061 z m 246.1216,-2.89452 c 2.7865,-1.06925 2.8596,-12.1924 0.1062,-16.12363 -1.479,-2.11145 -2.1977,-8.25962 -2.7471,-23.49946 -0.8104,-22.4782 -1.7644,-28.23426 -4.6793,-28.23426 -1.3595,0 -2.1692,2.47872 -2.8312,8.66667 -0.5099,4.76667 -1.4991,12.86667 -2.1984,18 -0.7572,5.5592 -0.7866,10.24143 -0.073,11.57901 0.6592,1.23512 1.1984,3.7042 1.1984,5.48686 0,1.78265 1.2133,4.78357 2.6961,6.66872 2.1026,2.67302 2.5135,4.57004 1.8663,8.61745 -0.6218,3.8882 -0.2709,5.74899 1.3991,7.41893 2.5349,2.53494 2.4302,2.50668 5.2628,1.41971 z m 98.9666,-8.71035 c -0.4706,-4.50248 -2.1099,-12.45248 -3.643,-17.66666 -2.2636,-7.69868 -3.8298,-10.40931 -8.3343,-14.42348 -3.9016,-3.4769 -6.8232,-4.96002 -9.8495,-5 -6.153,-0.0813 -8.447,4.14088 -9.3416,17.19361 l -0.7318,10.67675 4.8546,5.37357 c 2.6701,2.95545 4.8547,5.95072 4.8547,6.65615 0,0.70541 1.3098,1.98356 2.9107,2.84032 2.4636,1.31846 3.2644,1.12088 5.2137,-1.28643 2.9304,-3.61881 3.5864,-3.57149 6.7805,0.48917 1.4421,1.83334 3.8639,3.33334 5.3819,3.33334 2.5841,0 2.7053,-0.52119 1.9041,-8.18634 z M 29.719281,364.09859 c -0.632,-5.26062 -0.5122,-5.72714 0.8134,-3.1688 1.0518,2.02989 2.7652,3 5.2987,3 3.8643,0 9.1815,-4.41166 9.1815,-7.61775 0,-0.97988 1.5604,-2.37485 3.4676,-3.09995 4.2746,-1.6252 7.623,-5.42749 11.8263,-13.42952 2.7644,-5.26258 3.959,-6.26782 8.301,-6.98533 9.039,-1.49368 13.7037,-0.92997 20.4051,2.46588 3.6179,1.83333 7.798,3.33333 9.289,3.33333 4.000499,0 3.508999,-5.70376 -1.2122,-14.06926 -4.6912,-8.3124 -5.3695,-16.28968 -2.3992,-28.21578 2.5843,-10.37634 1.1111,-17.31526 -5.0667,-23.86565 -2.3895,-2.53361 -4.6992,-6.01983 -5.1327,-7.74715 -0.9217,-3.67204 -6.7562,-5.69449 -9.6057,-3.32964 -2.989,2.48064 -2.4714,22.56008 0.8737,33.89415 2.582,8.74864 2.6217,9.64953 0.6332,14.38065 -1.3141,3.12671 -3.4681,5.55936 -5.6606,6.39294 -1.9465,0.74008 -5.3796,3.36132 -7.629,5.82497 -2.8472,3.1184 -6.1103,4.95335 -10.7399,6.03937 -8.6738,2.03472 -18.0002,9.49802 -18.0589,14.45134 -0.058,4.8898 -2.8676,8.27945 -6.1511,7.42082 -3.8907,-1.01745 -5.5537,1.89102 -5.8082,10.1582 -0.3148,10.22694 -0.2764,10.40774 2.335,10.98787 4.7607,1.05759 5.8147,-0.36893 5.0397,-6.82069 z m 46.4667,6.16453 c 0.2324,-0.91667 1.1042,-3.72981 1.9372,-6.25145 1.2645,-3.82762 1.1536,-4.98364 -0.6712,-7 -2.7945,-3.08795 -3.8174,-3.03692 -7.2142,0.35993 -2.5458,2.5458 -2.6007,2.96795 -0.6638,5.1082 1.1613,1.28319 1.7615,2.68297 1.3338,3.11067 -1.0612,1.0612 1.8756,6.33932 3.5272,6.33932 0.7306,0 1.5185,-0.75 1.751,-1.66667 z m 639.830379,-3.47729 c 0.7829,-2.99388 -1.34,-7.2175 -3.0854,-6.13874 -0.6883,0.42538 -1.2514,2.138 -1.2514,3.80583 0,4.998 3.191,6.71453 4.3368,2.33291 z M 96.432181,364.26312 c 0.4419,-2.01667 1.0637,-4.49272 1.3818,-5.50233 0.777,-2.46643 -1.8989,-5.49767 -4.8532,-5.49767 -3.0544,0 -3.9866,2.58636 -2.1627,6 1.3623,2.54947 1.5483,3.19695 2.0118,7 0.3727,3.0592 2.8084,1.71439 3.6223,-2 z m 61.843679,-9.53511 c 0.9374,-1.75169 0.8874,-3.88132 -0.1619,-6.89146 l -1.5187,-4.35636 -3.1245,3.63248 c -3.6877,4.28721 -3.8134,5.27109 -1.0293,8.05521 2.7517,2.75167 4.1841,2.64367 5.8344,-0.43987 z m 150.0618,-4.15846 c -0.4608,-1.45187 -1.3569,-2.63976 -1.9914,-2.63976 -2.0611,0 -2.9352,5.4032 -1.2103,7.48157 1.4939,1.80011 1.8054,1.79021 2.8581,-0.0909 0.6498,-1.16114 0.8044,-3.29906 0.3436,-4.75092 z m 166.6017,-1.75558 c 1.6115,-4.55986 -0.8008,-7.57937 -4.2965,-5.37797 -2.9476,1.85619 -3.637,5.40883 -1.54,7.93557 2.2147,2.66851 4.3147,1.74827 5.8365,-2.5576 z m 286.7402,3.11582 c 0.4532,-0.73334 0.1886,-1.33334 -0.588,-1.33334 -0.7766,0 -1.412,0.6 -1.412,1.33334 0,0.73333 0.2646,1.33333 0.5879,1.33333 0.3234,0 0.9588,-0.6 1.4121,-1.33333 z m -601.4286,-12.76191 c 3.8434,-3.84339 1.7205,-9.07717 -3.3888,-8.35475 -3.6382,0.5144 -5.0458,5.40163 -2.455,8.52338 2.0434,2.4621 3.2479,2.42734 5.8438,-0.16863 z m 150.4478,1.29821 c 1.202,-1.2019 -0.453,-4.63157 -1.8256,-3.78329 -0.6565,0.40573 -1.1936,1.60229 -1.1936,2.65901 0,1.96346 1.5886,2.55499 3.0192,1.12428 z m 431.9913,-3.5363 c 0.3555,-2.38334 0.1237,-5.72239 -0.5154,-7.42014 -0.639,-1.69773 -1.1618,-5.92773 -1.1618,-9.4 0,-6.93 -1.6629,-9.5132 -6.124,-9.5132 -3.433,0 -4.5427,2.29547 -4.5427,9.39715 0,4.63028 1.1005,8.13059 5.7435,18.26952 2.0978,4.58105 5.8305,3.82703 6.6004,-1.33333 z m -444.3438,-14.65407 c 0,-1.29027 -0.8789,-2.34593 -1.9531,-2.34593 -2.283,0 -5.1985,4.80333 -4.0468,6.66692 1.1829,1.91388 5.9999,-1.55524 5.9999,-4.32099 z m 369.3592,-9.44245 c 2.7819,-1.3869 3.3074,-2.59606 3.3074,-7.60952 v -5.96063 l -9.9673,0.4196 c -5.4821,0.23077 -10.7321,1.05424 -11.6667,1.82992 -2.044,1.69635 -2.2465,10.9034 -0.3191,14.5048 0.9606,1.79483 2.7977,2.57901 6.0419,2.57901 3.1482,0 4.9425,0.73219 5.527,2.25534 0.6737,1.75552 1.1873,1.29962 2.3175,-2.05714 0.7986,-2.37186 2.9403,-5.05449 4.7593,-5.96138 z m -44.2798,2.09652 c -0.5412,-2.81046 -2.9075,-2.63324 -3.5106,0.2629 -0.2515,1.20798 0.4835,2.07043 1.7645,2.07043 1.3732,0 2.0272,-0.87387 1.7461,-2.33333 z m -99.2221,-6.44239 c 1.3712,-3.5732 0.9027,-5.89095 -1.1907,-5.89095 -1.3333,0 -2,1.33334 -2,4 0,4.27427 1.8544,5.37327 3.1907,1.89095 z m -318.8125,-6.50115 c -1.1201,-2.00162 -1.4173,-2.01745 -2.9608,-0.15769 -0.9436,1.137 -1.3265,3.08143 -0.8509,4.32097 0.7864,2.04916 1.0551,2.06348 2.9609,0.1577 1.4699,-1.4699 1.724,-2.76066 0.8508,-4.32098 z M 60.180781,296.9548 c 1.1182,-1.77573 0.9443,-2.81759 -0.7537,-4.51565 -3.9943,-3.99428 -9.9535,1.22596 -6.3526,5.5648 2.0732,2.49804 5.1594,2.04241 7.1063,-1.04915 z m 643.953479,-3.76321 c 1.9146,-1.506 4.1818,-5.07691 5.0382,-7.93535 1.4183,-4.73383 1.2178,-5.86773 -2.2487,-12.71925 -3.4975,-6.91268 -8.6437,-12.6072 -11.3933,-12.6072 -2.8489,0 -5.1234,6.74794 -5.6264,16.69265 -0.6143,12.14329 0.4621,16.20023 4.7561,17.92529 4.5021,1.80871 5.6617,1.64272 9.4741,-1.35614 z m -94.0722,-2.39291 c 3.6861,-2.03339 8.8557,-13.24011 10.0119,-21.70405 l 0.8427,-6.16848 -8.684,0.4544 c -7.4626,0.3905 -11.036,1.61324 -25.4072,8.69396 l -16.7233,8.23954 -15.0501,-0.74122 c -14.6377,-0.72091 -22.3748,-2.83283 -25.0188,-6.82908 -2.057,-3.10919 -0.8644,-7.31674 3.2004,-11.29083 5.0592,-4.94631 27.8086,-16.7316 34.8457,-18.05177 2.7557,-0.51696 6.943,-2.04211 9.3052,-3.38922 6.7341,-3.84026 21.2319,-8.1411 33.9703,-10.0775 19.574,-2.97547 31.0447,-6.91222 30.9598,-10.62546 -0.017,-0.75854 -2.464,-3.17918 -5.4371,-5.37918 -5.2695,-3.89923 -5.3909,-4.16795 -4.8176,-10.66667 0.6575,-7.45299 3.3736,-15.33689 6.5262,-18.94315 2.2347,-2.5562 3.7769,-7.1664 6.4869,-19.39172 1.8691,-8.43181 0.4626,-14.33177 -3.4166,-14.33177 -3.9332,0 -12.4828,10.01713 -18.0721,21.17427 -5.1955,10.37108 -5.6714,12.23998 -6.6211,26 -0.5628,8.15414 -1.7508,16.41568 -2.6401,18.35897 -2.1176,4.62768 -8.9566,7.48411 -21.4583,8.96237 -5.5813,0.65999 -11.6575,2.18906 -13.5024,3.39794 -2.2572,1.47898 -7.6756,2.46122 -16.564,3.00273 -12.5859,0.76677 -13.3834,0.65448 -16.8952,-2.37911 -3.5879,-3.09929 -3.6459,-3.36902 -2.1839,-10.15436 1.5471,-7.18088 3.3214,-9.56044 14.9157,-20.00385 6.2344,-5.61564 14.3695,-18.86553 14.375,-23.41297 0,-1.31303 -1.31,-4.16303 -2.9146,-6.33334 -6.3463,-8.58381 -20.3309,-3.05377 -29.3481,11.60536 -5.0222,8.16439 -6.2003,11.69626 -9.7125,29.1153 -1.1828,5.86666 -2.7217,12.83628 -3.4196,15.48802 -0.698,2.65175 -1.2691,8.77188 -1.2691,13.60031 0,8.72721 -0.034,8.80749 -5.7969,13.62461 -3.1884,2.66512 -10.0379,7.36018 -15.2211,10.43344 -9.8011,5.81128 -25.0932,19.18684 -23.6202,20.65986 1.2907,1.29061 12.5007,0.889 19.9716,-0.71551 4.1749,-0.89664 9.4076,-1.012 14,-0.30867 4.0333,0.61772 11.09,1.67986 15.6815,2.36028 4.5916,0.68043 9.8222,2.20292 11.6237,3.38331 1.8015,1.1804 5.2448,2.09965 7.6518,2.04279 2.407,-0.0569 7.9763,0.49542 12.3763,1.2273 11.0671,1.84087 43.1787,1.20828 47.0492,-0.92685 z m -265.7492,-16.41656 c 0.1859,-4.64879 1.0607,-11.06991 1.9441,-14.26916 2.2627,-8.19404 0.7435,-14.72989 -5.7809,-24.8702 -6.142,-9.54603 -11.3006,-13.49572 -19.2964,-14.77429 -4.3932,-0.70251 -5.4689,-0.36735 -7.3248,2.28229 -3.3549,4.78984 -2.8824,23.49389 0.8719,34.51023 2.5439,7.46468 3.6914,9.07324 8.2861,11.61605 2.9334,1.62333 8.3334,5.89993 12,9.50355 3.6667,3.60361 7.1832,6.07994 7.8144,5.50294 0.6312,-0.577 1.2997,-4.85262 1.4856,-9.50141 z m 384.3667,3.881 c -0.3056,-0.91667 -1.3556,-1.66667 -2.3334,-1.66667 -0.9777,0 -2.0277,0.75 -2.3333,1.66667 -0.3305,0.99145 0.6148,1.66667 2.3333,1.66667 1.7186,0 2.6639,-0.67522 2.3334,-1.66667 z m -79.6667,-7.07869 c 0,-1.14328 -0.6,-1.70787 -1.3333,-1.25464 -0.7334,0.45322 -1.3334,1.38864 -1.3334,2.07869 0,0.69005 0.6,1.25464 1.3334,1.25464 0.7333,0 1.3333,-0.93541 1.3333,-2.07869 z m 20.6667,-1.69908 c 0,-2.41155 -2.6098,-1.9713 -3.1274,0.52757 -0.2879,1.39028 0.2119,1.99981 1.3334,1.62597 0.9867,-0.32889 1.794,-1.298 1.794,-2.15354 z m -196.9023,-3.33272 c 0.2495,-1.2861 -0.4197,-2.22284 -1.5879,-2.22284 -2.477,0 -3.972,2.17353 -2.7997,4.07038 1.2061,1.95142 3.8683,0.83042 4.3876,-1.84754 z m -349.7644,-1.66147 c 3.7304,-7.16619 7.9856,-11.35343 10.8158,-10.64309 4.3851,1.10058 6.1876,-2.09599 5.136,-9.10824 -0.4967,-3.31272 -1.6907,-7.10018 -2.6533,-8.41658 -1.664,-2.2755 -1.9076,-2.2456 -4.9436,0.60654 -4.0815,3.83429 -5.5402,3.77522 -8.2323,-0.33334 -1.2012,-1.83333 -3.3831,-3.33333 -4.8486,-3.33333 -1.5482,0 -3.3007,1.39645 -4.1832,3.33333 -1.6789,3.68466 -2.5276,4.02982 -4.6617,1.89576 -0.7906,-0.79066 -3.1606,-1.24066 -5.2666,-1 -3.50908,0.401 -3.81558,0.86508 -3.66688,5.5522 0.2176,6.85792 3.23258,9.89292 7.77268,7.82428 1.8518,-0.8437 4.2117,-1.20977 5.2444,-0.81349 2.4074,0.92379 3.5726,8.43608 1.8255,11.76903 -1.0392,1.98252 -0.7894,2.96556 1.1058,4.3513 2.9717,2.173 4.7914,1.70548 6.556,-1.68437 z m 598.9551,1.26005 c 0.5318,-1.61673 -3.0511,-5.82142 -4.9605,-5.82142 -1.5825,0 -3.0315,4.989 -1.9548,6.73098 1.106,1.78964 6.25,1.11307 6.9153,-0.90956 z m -219.2242,-15.99673 c 1.0925,-1.09255 -1.435,-5.82469 -3.1111,-5.82469 -0.7076,0 -1.2865,1.1 -1.2865,2.44444 0,3.60069 2.3617,5.41606 4.3976,3.38025 z m -348.3975,-5.27856 c 0,-2.65231 -3.8008,-3.95092 -5.7563,-1.96675 -1.2166,1.23444 -0.9989,2.02694 0.9527,3.46767 2.8241,2.0848 4.8036,1.46629 4.8036,-1.50092 z m 593.7887,-3.71365 c 0.9452,-3.99708 0.7163,-5.4677 -1.1767,-7.55944 -3.6321,-4.0135 -6.4449,-0.93223 -5.3574,5.86877 0.4635,2.89877 1.1758,5.8094 1.5829,6.46805 1.4572,2.3578 3.7979,0.0993 4.9512,-4.77738 z M 73.012881,237.99375 c 0,-2.5875 -3.5536,-3.54166 -5.3097,-1.42567 -1.1554,1.39215 -0.9525,2.1222 0.874,3.14436 2.7237,1.52424 4.4357,0.86088 4.4357,-1.71869 z m 601.333279,-13.3973 c 0,-2.5806 -2.6174,-3.91585 -4.3263,-2.207 -1.0142,1.0142 -0.9368,2.0183 0.2673,3.46915 1.8796,2.26487 4.059,1.5872 4.059,-1.26215 z m 53.0931,-4.5517 c 0.3445,-3.51111 -0.012,-4.26007 -1.857,-3.89732 -3.6339,0.71454 -5.4037,4.50388 -3.292,7.04833 2.5854,3.11515 4.6587,1.84633 5.149,-3.15101 z m -371.5147,-6.11496 c 0.3145,-3.9776 -0.073,-5.33334 -1.5234,-5.33334 -1.3442,0 -2.0121,1.64762 -2.1621,5.33334 -0.1193,2.93333 0.074,5.83561 0.4289,6.4495 1.2142,2.09812 2.8346,-1.111 3.2566,-6.4495 z m 327.755,-4.21795 c 0,-2.81003 -0.2803,-2.96296 -2.6816,-1.46332 -3.0271,1.89047 -4.5972,5.61217 -3.2721,7.75619 1.3692,2.21548 5.9537,-2.63015 5.9537,-6.29287 z m -92.9135,-3.61957 c 0.7884,-2.05455 -1.4393,-4.82915 -3.8772,-4.82915 -1.8713,0 -3.5485,3.70577 -2.4683,5.45365 1.155,1.86884 5.5548,1.43582 6.3455,-0.6245 z m -139.0865,-6.00875 c 0,-2.99072 -6.0004,-8.72288 -7.9013,-7.54807 -2.3064,1.42539 -1.6679,4.08379 1.9072,7.94135 3.4943,3.77051 5.9941,3.60649 5.9941,-0.39328 z m 150,-1.48707 c 0.4532,-0.73333 0.1886,-1.33333 -0.588,-1.33333 -0.7766,0 -1.412,0.6 -1.412,1.33333 0,0.73334 0.2646,1.33334 0.5879,1.33334 0.3234,0 0.9588,-0.6 1.4121,-1.33334 z m -382,-4.07869 c 0,-2.78172 -1.9615,-3.47427 -3.3728,-1.19079 -1.2094,1.95695 0.4018,5.61492 2.0301,4.60864 0.7385,-0.45642 1.3427,-1.99446 1.3427,-3.41785 z m -105.3333,0.0787 c 0,-1.46666 -0.8,-2.66666 -1.7778,-2.66666 -2.5078,0 -3.4911,1.2831 -2.6544,3.46369 1.0883,2.83608 4.4322,2.23476 4.4322,-0.79703 z m 388.9598,-5.2843 c -0.3765,-1.43971 0.1178,-3.28358 1.0985,-4.0975 2.4172,-2.00609 0.9483,-5.28486 -2.3677,-5.28486 -2.3024,0 -2.5704,0.6012 -1.8573,4.16666 0.4583,2.29167 0.8333,4.99167 0.8333,6 0,1.00834 0.67,1.83334 1.4888,1.83334 0.8231,0 1.1828,-1.17048 0.8044,-2.61764 z m -24.9599,-4.60459 c 0,-4.50123 -1.7589,-6.29725 -5,-5.10537 -2.3346,0.85853 -2.0748,4.33328 0.54,7.22261 3.24,3.58017 4.46,3.00101 4.46,-2.11724 z m 193.0795,0.88889 c -0.2471,-1.28334 -1.3329,-2.33334 -2.4128,-2.33334 -1.0799,0 -2.1657,1.05 -2.4128,2.33333 -0.3153,1.63714 0.4046,2.33334 2.4128,2.33334 2.0082,0 2.7281,-0.6962 2.4128,-2.33334 z m -557.3654,-3.87057 c 1.0052,-3.27516 1.0631,-5.67729 0.1768,-7.33333 -1.7349,-3.2417 -3.2877,-3.10803 -5.8152,0.50058 -2.478,3.53774 -2.6831,7.89584 -0.4756,10.10332 2.7485,2.7485 4.565,1.77682 6.114,-3.27057 z m 60.9526,0.18564 c 0,-4.39856 -2.807,-5.41217 -5.0668,-1.82963 -1.8437,2.92286 -0.1469,6.81544 2.7295,6.26151 1.6053,-0.30915 2.3373,-1.6972 2.3373,-4.43188 z m 350.8938,1.24056 c 1.1647,-3.03517 -4.3254,-8.32401 -6.4428,-6.20661 -1.2003,1.20025 -1.2107,2.38632 -0.043,4.94814 1.723,3.78167 5.255,4.46695 6.4862,1.25847 z m 82.8656,-0.88897 c -0.53,-3.73165 -5.6869,-4.84947 -6.9682,-1.51043 -0.971,2.53038 1.1619,4.45798 4.9682,4.49002 1.7576,0.0148 2.3087,-0.80624 2,-2.97959 z m -466.0766,-1.78732 c 0.3631,-1.89969 0.043,-5.46679 -0.7125,-7.92687 -1.1385,-3.70958 -0.9403,-5.08346 1.1618,-8.05085 3.5851,-5.06092 7.0619,-11.6241 7.1372,-13.4731 0.1129,-2.7687 -4.0088,-5.7619 -7.9341,-5.7619 -4.6391,0 -12.2885,8.4007 -11.7189,12.86999 0.2012,1.57846 -0.728,4.07856 -2.0649,5.55574 -2.0312,2.24452 -2.1685,3.19695 -0.8352,5.79672 1.761,3.43412 11.9798,14.44426 13.406,14.44426 0.4952,0 1.1974,-1.5543 1.5606,-3.45399 z m 334.8332,-14.83975 c 0.5282,-0.52822 2.9775,-0.78662 5.4429,-0.57421 2.4654,0.21241 6.2088,-0.50643 8.3185,-1.59741 2.1097,-1.09099 7.7104,-2.67414 12.4459,-3.51812 18.8847,-3.36568 19.7455,-3.76706 24.0049,-11.19343 4.8118,-8.3893 4.8925,-10.558 0.5002,-13.4359 -4.896,-3.208 -12.2445,-1.6265 -25.338,5.4529 -7.7852,4.2094 -12.3101,5.8266 -16.3026,5.8266 -4.3931,0 -5.9652,0.6697 -7.6664,3.2661 -1.177,1.7964 -4.2051,4.4846 -6.7292,5.9738 -7.8461,4.6293 -7.9161,10.76007 -0.1229,10.76007 2.4675,0 4.9185,-0.43218 5.4467,-0.9604 z m 214.1507,-7.75214 c 0,-4.64583 -0.6849,-6.29933 -3.5391,-8.54443 -3.3188,-2.6105 -3.6924,-2.6452 -6,-0.5568 -1.4621,1.3231 -2.4609,4.0452 -2.4609,6.7067 0,3.58941 0.8295,4.98405 4.1741,7.01802 5.7926,3.52268 7.8259,2.32141 7.8259,-4.62349 z m -110.9357,2.59586 c 0.5996,-4.19628 -3.0255,-6.63279 -7.1038,-4.77459 -3.8108,1.73633 -4.4207,6.38994 -0.9605,7.32893 4.564,1.23852 7.6626,0.25705 8.0643,-2.55434 z m 30.5129,-6.21669 c 3.1228,-4.8738 4.3323,-11.5581 3.5585,-19.6666 -0.9315,-9.7612 -2.1384,-12 -6.4691,-12 -5.3252,0 -6.7204,3.3004 -3.9718,9.3957 1.4135,3.1346 2.5102,9.0328 2.6594,14.3027 0.1396,4.9325 0.342,9.1182 0.4498,9.3016 0.5511,0.93733 2.8355,0.1301 3.7732,-1.3334 z m -245.1644,-3.3333 c -0.5412,-2.8105 -2.9075,-2.6332 -3.5106,0.2629 -0.2515,1.208 0.4835,2.0704 1.7645,2.0704 1.3733,0 2.0272,-0.8738 1.7461,-2.3333 z m 228.0802,-8.009 c 0.6895,-1.2883 1.4606,-5.6383 1.7136,-9.6667 0.442,-7.0365 0.3236,-7.3401 -3.0126,-7.7275 -3.2677,-0.3794 -3.5228,0.014 -4.3218,6.6667 -1.3802,11.4922 -1.1692,13.0698 1.7475,13.0698 1.4409,0 3.1839,-1.054 3.8733,-2.3423 z m -131.7897,-6.5258 c 8.566,-5.7204 18.63,-17.7647 18.63,-22.2961 0,-2.2021 -2.832,-3.5024 -7.6283,-3.5024 -1.8755,0 -6.3355,-1.8 -9.9109,-4 -3.5755,-2.2 -6.9313,-4 -7.4575,-4 -0.5261,0 -4.8671,-4.233102 -9.6466,-9.406802 -6.8632,-7.4293 -9.6951,-9.5607 -13.4708,-10.1389 -4.3526,-0.6665 -4.9302,-0.3711 -6.4503,3.2987 -1.2983,3.1345 -1.3298,5.6674 -0.1415,11.3912 2.0675,9.959202 5.2229,13.568802 14.1233,16.156202 4.5035,1.3092 9.4584,4.0357 12.7679,7.0256 5.5362,5.0016 6.1037,7.7929 3.1188,15.3406 -1.1922,3.0148 1.6561,3.0767 6.0659,0.1319 z m 106.6156,-5.1145 c 2.2919,-2.7616 0.6311,-8.2185 -3.2815,-10.7821 -5.664,-3.7112 -7.5269,-0.2104 -4.4362,8.3367 1.7178,4.7506 4.9537,5.7759 7.7177,2.4454 z m 62.6439,-8.0622 c -1.4332,-1.7268 -5.2962,-2.7854 -5.2962,-1.4513 0,0.2771 0.9858,2.8271 2.1906,5.6666 l 2.1906,5.1629 1.2688,-3.7115 c 0.8932,-2.6128 0.7885,-4.2903 -0.3538,-5.6667 z m -435.4687,4.4106 c 0.9499,-1.5059 0.8502,-2.746 -0.3356,-4.1747 -2.2531,-2.7149 -5.4918,-1.3018 -5.4918,2.396 0,5.1498 3.1034,6.0971 5.8274,1.7787 z m 316.3609,-28.367102 c 10.1241,-4.7177 10.8388,-4.8541 21.145,-4.035 5.8666,0.4663 14.2666,1.6823 18.6666,2.7023 10.4868,2.431002 26.8234,4.322002 46.9767,5.437702 14.6081,0.8086 16.4004,0.667 17.1772,-1.357 1.77,-4.612802 -4.9239,-14.080002 -9.9555,-14.080002 -1.8636,0 -5.6248,-1.5499 -8.3583,-3.4442 -4.7248,-3.2743 -5.1887,-3.3456 -9.405,-1.4459 -2.4393,1.099 -7.4351,2.3991 -11.1017,2.8892 -3.6667,0.49 -10.4087,2.0901 -14.9822,3.5558 -5.948,1.9061 -9.5543,2.3596 -12.6667,1.5929 -2.3931,-0.5896 -4.9511,-1.1167 -5.6845,-1.1715 -0.7333,-0.055 -2.7377,-0.8721 -4.4543,-1.8163 -2.4869,-1.3679 -3.9196,-1.3858 -7.0522,-0.088 -3.5072,1.4528 -4.2851,1.2959 -7.2123,-1.4541 -3.4501,-3.2412 -4.4542,-9.1413 -1.6145,-9.4873 0.9167,-0.1117 2.3257,-0.2711 3.1311,-0.3542 0.8055,-0.083 3.5055,-1.6641 6,-3.5132 2.4946,-1.8491 6.1856,-4.4036 8.2022,-5.6765 2.0167,-1.273 3.6667,-2.9007 3.6667,-3.6171 0,-1.8347 -4.4795,-1.6232 -6.405,0.3024 -1.9549,1.9549 -12.259,5.0617 -19.8155,5.9746 -4.8788,0.5894 -5.8293,0.2506 -7.82,-2.7877 -2.6652,-4.0676 -4.6262,-4.4723 -4.6262,-0.9548 0,1.3772 -0.9,4.6579 -2,7.2906 -1.1,2.6326 -2,6.5874 -2,8.7884 0,3.6249 -1.6784,7.9644 -7.4516,19.265202 l -1.9658,3.8479 4.5638,-0.7406 c 2.51,-0.4073 9.2789,-2.9378 15.042,-5.623302 z m -303.0888,2.457302 c 1.2017,-1.2016 -1.6681,-4.456002 -3.9294,-4.456002 -1.0103,0 -1.8368,1.2 -1.8368,2.6667 0,2.594102 3.7864,3.769102 5.7662,1.789302 z m 203.8522,-5.902002 c 2.0398,-2.7321 2.2726,-4.4918 1.3983,-10.5675 -1.2566,-8.7313 -4.3578,-10.4175 -7.6062,-4.1356 -3.7408,7.2338 -2.0475,19.917002 2.4583,18.4151 0.7162,-0.2388 2.4035,-1.9092 3.7496,-3.712 z m -33.605,-8.8185 c -0.9436,-4.2545 -1.5699,-9.5355 -1.3916,-11.7355 0.8796,-10.8576 1.1319,-10.3162 -6.6218,-14.2077 -8.4018,-4.2168 -12,-8.0173 -12,-12.6747 0,-2.4582 -1.1409,-3.7304 -4.6667,-5.2035 -2.5666,-1.0724 -4.6666,-2.888 -4.6666,-4.0345 0,-1.1466 -1.7539,-3.8385 -3.8975,-5.9821 -4.5796,-4.5796 -10.7692,-5.3664 -10.7692,-1.3689 0,2.8479 8.3803,10.8048 11.3797,10.8048 1.3347,0 1.9536,1.443 1.9536,4.5546 0,3.7208 0.9764,5.3279 5.3334,8.7787 3.1086,2.462 5.3333,5.3622 5.3333,6.9526 0,1.5006 2.0349,6.7002 4.522,11.5546 2.4872,4.8544 5.6372,11.1357 7,13.9584 1.3629,2.8228 3.6536,5.9672 5.0904,6.9877 4.2211,2.9979 5.3231,0.2814 3.401,-8.3845 z m 18.4177,-9.2916 c -0.6487,-3.3451 -3.7644,-3.8044 -3.7644,-0.555 0,1.6378 0.8609,2.7778 2.0977,2.7778 1.2417,0 1.9219,-0.9072 1.6667,-2.2228 z m -58.4311,-12.3012 c 0,-4.6998 -2.1464,-5.679 -10.0678,-4.5933 -7.1166,0.9754 -8.3525,2.3729 -5.1895,5.868 1.6993,1.8777 4.1007,2.5826 8.7973,2.5826 6.2358,0 6.46,-0.1338 6.46,-3.8573 z m 122.8717,-5.4891 c 0.4795,-4.0261 1.024,-8.2202 1.2101,-9.3202 1.0638,-6.2898 -0.1996,-10.7775 -3.4513,-12.2591 -4.1709,-1.9004 -6.0416,-0.3372 -6.0172,5.0279 0.01,2.1438 0.024,6.8978 0.032,10.5645 0.032,14.5787 6.6309,19.3814 8.2261,5.9869 z m 44.849,-11.7198 c -0.025,-5.7198 0.3804,-12.9198 0.9008,-16 0.8468,-5.012 0.6687,-5.6004 -1.695,-5.6004 -1.4527,0 -2.9848,0.8953 -3.4048,1.9897 -0.8525,2.2218 0.2837,27.2834 1.3124,28.948 1.9398,3.1386 2.9272,-0.055 2.8866,-9.3373 z m -104.3439,6.3516 c 1.3512,-1.4931 2.7942,-5.2431 3.2066,-8.3333 0.9368,-7.0188 4.5347,-7.8595 5.1734,-1.2089 0.8046,8.3772 8.5544,6.6881 13.5085,-2.9443 l 2.8574,-5.5556 -5.1899,-5.6216 c -3.116,-3.3753 -6.3783,-5.6217 -8.1639,-5.6217 -4.402,0 -10.7689,6.968 -10.7689,11.7854 0,3.0536 -1.2352,4.9689 -5.2608,8.1572 -5.3143,4.209 -7.6049,8.2447 -6.0799,10.7122 1.4358,2.3231 8.1524,1.4649 10.7175,-1.3694 z m 160.2965,0.3813 c 0.8116,-2.4643 -4.5744,-2.0497 -5.5241,0.4252 -0.6007,1.5653 -0.076,1.9848 2.0863,1.6667 1.5889,-0.2339 3.1359,-1.1752 3.4378,-2.0919 z m -81.0067,-5.6667 c 0,-0.7333 -0.6,-1.3333 -1.3333,-1.3333 -0.7333,0 -1.3333,0.6 -1.3333,1.3333 0,0.7334 0.6,1.3334 1.3333,1.3334 0.7333,0 1.3333,-0.6 1.3333,-1.3334 z m 2.4,-8.2666 c 1.9657,-1.9657 2.1379,-13.0667 0.2027,-13.0667 -2.6038,0 -7.8515,7.3126 -7.8939,11 -0.034,2.9494 0.5578,3.6667 3.0246,3.6667 1.6866,0 3.7866,-0.72 4.6666,-1.6 z m -50.7327,-8.7334 c 0.3255,-0.9775 -0.5935,-1.6666 -2.2228,-1.6666 -1.6378,0 -2.7778,0.8609 -2.7778,2.0977 0,2.4505 4.1606,2.0919 5.0006,-0.4311 z"
       id="path1729" />
  </g>
</svg>
