  0
SECTION
  2
HEADER
  9
$ACADVER
  1
AC1009
  9
$FILLMODE
 70
 0
  9
$SPLFRAME
 70
 1
  9
$EXTMIN
 10
0
 20
0
 30
0.0
  9
$EXTMAX
 10
41.6667
 20
41.6667
 30
0.0
  0
ENDSEC
  0
SECTION
  2
TABLES
  0
TABLE
  2
LAYER
 70
1
  0
LAYER
  2
0
 70
     0
 62
     7
  6
CONTINUOUS
  0
ENDTAB
  0
ENDSEC
  0
SECTION
  2
ENTITIES
  0
POLYLINE
  8
0
 62
     254
 66
     1
 10
0
 20
0
 30
0.0
 40
0.283465
 41
0.283465
  0
VERTEX
  8
0
 10
7.89654
 20
5.48785
 30
0.0
 40
0.00393701
 41
0.00393701
  0
VERTEX
  8
0
 10
8.63238
 20
4.71847
 30
0.0
 40
0.00393701
 41
0.00393701
  0
SEQEND
 8
0
  0
POLYLINE
  8
0
 62
     254
 66
     1
 10
0
 20
0
 30
0.0
 40
0.283465
 41
0.283465
  0
VERTEX
  8
0
 10
3.09804
 20
2.35221
 30
0.0
 40
0.00393701
 41
0.00393701
  0
VERTEX
  8
0
 10
3.10508
 20
2.34694
 30
0.0
 40
0.00393701
 41
0.00393701
  0
SEQEND
 8
0
  0
POLYLINE
  8
0
 62
     254
 66
     1
 10
0
 20
0
 30
0.0
 40
0.283465
 41
0.283465
  0
VERTEX
  8
0
 10
9.12875
 20
4.18132
 30
0.0
 40
0.00393701
 41
0.00393701
  0
VERTEX
  8
0
 10
7.46733
 20
2.6301
 30
0.0
 40
0.00393701
 41
0.00393701
  0
SEQEND
 8
0
  0
POLYLINE
  8
0
 62
     254
 66
     1
 10
0
 20
0
 30
0.0
 40
0.283465
 41
0.283465
  0
VERTEX
  8
0
 10
3.46576
 20
3.39475
 30
0.0
 40
0.00393701
 41
0.00393701
  0
VERTEX
  8
0
 10
3.73156
 20
3.55556
 30
0.0
 40
0.00393701
 41
0.00393701
  0
VERTEX
  8
0
 10
3.73156
 20
3.87071
 30
0.0
 40
0.00393701
 41
0.00393701
  0
VERTEX
  8
0
 10
4.38683
 20
3.87071
 30
0.0
 40
0.00393701
 41
0.00393701
  0
SEQEND
 8
0
  0
POLYLINE
  8
0
 62
     254
 66
     1
 10
0
 20
0
 30
0.0
 40
0.283465
 41
0.283465
  0
VERTEX
  8
0
 10
8.63238
 20
4.71847
 30
0.0
 40
0.00393701
 41
0.00393701
  0
VERTEX
  8
0
 10
9.12875
 20
4.18132
 30
0.0
 40
0.00393701
 41
0.00393701
  0
SEQEND
 8
0
  0
POLYLINE
  8
0
 62
     254
 66
     1
 10
0
 20
0
 30
0.0
 40
0.283465
 41
0.283465
  0
VERTEX
  8
0
 10
6.90967
 20
5.85374
 30
0.0
 40
0.00393701
 41
0.00393701
  0
VERTEX
  8
0
 10
7.88629
 20
5.49767
 30
0.0
 40
0.00393701
 41
0.00393701
  0
SEQEND
 8
0
  0
POLYLINE
  8
0
 62
     254
 66
     1
 10
0
 20
0
 30
0.0
 40
0.283465
 41
0.283465
  0
VERTEX
  8
0
 10
3.10508
 20
2.34694
 30
0.0
 40
0.00393701
 41
0.00393701
  0
VERTEX
  8
0
 10
4.57721
 20
2.715
 30
0.0
 40
0.00393701
 41
0.00393701
  0
SEQEND
 8
0
  0
POLYLINE
  8
0
 62
     254
 66
     1
 10
0
 20
0
 30
0.0
 40
0.283465
 41
0.283465
  0
VERTEX
  8
0
 10
7.88629
 20
5.49767
 30
0.0
 40
0.00393701
 41
0.00393701
  0
VERTEX
  8
0
 10
7.89654
 20
5.48785
 30
0.0
 40
0.00393701
 41
0.00393701
  0
SEQEND
 8
0
  0
POLYLINE
  8
0
 62
     254
 66
     1
 10
0
 20
0
 30
0.0
 40
0.283465
 41
0.283465
  0
VERTEX
  8
0
 10
5.08171
 20
5.98415
 30
0.0
 40
0.00393701
 41
0.00393701
  0
VERTEX
  8
0
 10
5.08035
 20
5.8405
 30
0.0
 40
0.00393701
 41
0.00393701
  0
SEQEND
 8
0
  0
POLYLINE
  8
0
 62
     254
 66
     1
 10
0
 20
0
 30
0.0
 40
0.283465
 41
0.283465
  0
VERTEX
  8
0
 10
6.14333
 20
5.99685
 30
0.0
 40
0.00393701
 41
0.00393701
  0
VERTEX
  8
0
 10
6.22786
 20
6.45372
 30
0.0
 40
0.00393701
 41
0.00393701
  0
SEQEND
 8
0
  0
POLYLINE
  8
0
 62
     254
 66
     1
 10
0
 20
0
 30
0.0
 40
0.283465
 41
0.283465
  0
VERTEX
  8
0
 10
6.98004
 20
6.32107
 30
0.0
 40
0.00393701
 41
0.00393701
  0
VERTEX
  8
0
 10
6.90326
 20
5.8629
 30
0.0
 40
0.00393701
 41
0.00393701
  0
SEQEND
 8
0
  0
POLYLINE
  8
0
 62
     254
 66
     1
 10
0
 20
0
 30
0.0
 40
0.283465
 41
0.283465
  0
VERTEX
  8
0
 10
5.33328
 20
2.58171
 30
0.0
 40
0.00393701
 41
0.00393701
  0
VERTEX
  8
0
 10
7.46733
 20
2.6301
 30
0.0
 40
0.00393701
 41
0.00393701
  0
SEQEND
 8
0
  0
POLYLINE
  8
0
 62
     254
 66
     1
 10
0
 20
0
 30
0.0
 40
0.283465
 41
0.283465
  0
VERTEX
  8
0
 10
6.90967
 20
5.85374
 30
0.0
 40
0.00393701
 41
0.00393701
  0
VERTEX
  8
0
 10
6.90326
 20
5.8629
 30
0.0
 40
0.00393701
 41
0.00393701
  0
SEQEND
 8
0
  0
POLYLINE
  8
0
 62
     254
 66
     1
 10
0
 20
0
 30
0.0
 40
0.283465
 41
0.283465
  0
VERTEX
  8
0
 10
4.38683
 20
3.87071
 30
0.0
 40
0.00393701
 41
0.00393701
  0
VERTEX
  8
0
 10
4.38683
 20
5.83171
 30
0.0
 40
0.00393701
 41
0.00393701
  0
SEQEND
 8
0
  0
POLYLINE
  8
0
 62
     254
 66
     1
 10
0
 20
0
 30
0.0
 40
0.283465
 41
0.283465
  0
VERTEX
  8
0
 10
2.91525
 20
3.08404
 30
0.0
 40
0.00393701
 41
0.00393701
  0
VERTEX
  8
0
 10
3.09804
 20
2.35221
 30
0.0
 40
0.00393701
 41
0.00393701
  0
SEQEND
 8
0
  0
POLYLINE
  8
0
 62
     254
 66
     1
 10
0
 20
0
 30
0.0
 40
0.283465
 41
0.283465
  0
VERTEX
  8
0
 10
6.14333
 20
5.99685
 30
0.0
 40
0.00393701
 41
0.00393701
  0
VERTEX
  8
0
 10
6.13422
 20
5.9905
 30
0.0
 40
0.00393701
 41
0.00393701
  0
SEQEND
 8
0
  0
POLYLINE
  8
0
 62
     254
 66
     1
 10
0
 20
0
 30
0.0
 40
0.283465
 41
0.283465
  0
VERTEX
  8
0
 10
5.09082
 20
5.99056
 30
0.0
 40
0.00393701
 41
0.00393701
  0
VERTEX
  8
0
 10
6.13422
 20
5.9905
 30
0.0
 40
0.00393701
 41
0.00393701
  0
SEQEND
 8
0
  0
POLYLINE
  8
0
 62
     254
 66
     1
 10
0
 20
0
 30
0.0
 40
0.283465
 41
0.283465
  0
VERTEX
  8
0
 10
4.38683
 20
5.83171
 30
0.0
 40
0.00393701
 41
0.00393701
  0
VERTEX
  8
0
 10
5.079
 20
5.83274
 30
0.0
 40
0.00393701
 41
0.00393701
  0
SEQEND
 8
0
  0
POLYLINE
  8
0
 62
     254
 66
     1
 10
0
 20
0
 30
0.0
 40
0.283465
 41
0.283465
  0
VERTEX
  8
0
 10
3.46576
 20
3.39475
 30
0.0
 40
0.00393701
 41
0.00393701
  0
VERTEX
  8
0
 10
2.91797
 20
3.09956
 30
0.0
 40
0.00393701
 41
0.00393701
  0
SEQEND
 8
0
  0
POLYLINE
  8
0
 62
     254
 66
     1
 10
0
 20
0
 30
0.0
 40
0.283465
 41
0.283465
  0
VERTEX
  8
0
 10
5.08171
 20
5.98415
 30
0.0
 40
0.00393701
 41
0.00393701
  0
VERTEX
  8
0
 10
5.09082
 20
5.99056
 30
0.0
 40
0.00393701
 41
0.00393701
  0
SEQEND
 8
0
  0
POLYLINE
  8
0
 62
     254
 66
     1
 10
0
 20
0
 30
0.0
 40
0.283465
 41
0.283465
  0
VERTEX
  8
0
 10
4.57721
 20
2.715
 30
0.0
 40
0.00393701
 41
0.00393701
  0
VERTEX
  8
0
 10
5.33328
 20
2.58171
 30
0.0
 40
0.00393701
 41
0.00393701
  0
SEQEND
 8
0
  0
POLYLINE
  8
0
 62
     254
 66
     1
 10
0
 20
0
 30
0.0
 40
0.283465
 41
0.283465
  0
VERTEX
  8
0
 10
5.08035
 20
5.8405
 30
0.0
 40
0.00393701
 41
0.00393701
  0
VERTEX
  8
0
 10
5.079
 20
5.83274
 30
0.0
 40
0.00393701
 41
0.00393701
  0
SEQEND
 8
0
  0
POLYLINE
  8
0
 62
     254
 66
     1
 10
0
 20
0
 30
0.0
 40
0.283465
 41
0.283465
  0
VERTEX
  8
0
 10
2.91797
 20
3.09956
 30
0.0
 40
0.00393701
 41
0.00393701
  0
VERTEX
  8
0
 10
2.91525
 20
3.08404
 30
0.0
 40
0.00393701
 41
0.00393701
  0
SEQEND
 8
0
  0
POLYLINE
  8
0
 62
     254
 66
     1
 10
0
 20
0
 30
0.0
 40
0.283465
 41
0.283465
  0
VERTEX
  8
0
 10
6.22786
 20
6.45372
 30
0.0
 40
0.00393701
 41
0.00393701
  0
VERTEX
  8
0
 10
6.98004
 20
6.32107
 30
0.0
 40
0.00393701
 41
0.00393701
  0
SEQEND
 8
0
  0
POLYLINE
  8
0
 62
     53
 66
     1
 10
0
 20
0
 30
0.0
 40
0.425197
 41
0.425197
  0
VERTEX
  8
0
 10
7.06392
 20
3.50439
 30
0.0
 40
0.00590551
 41
0.00590551
  0
VERTEX
  8
0
 10
6.54596
 20
3.69293
 30
0.0
 40
0.00590551
 41
0.00590551
  0
SEQEND
 8
0
  0
POLYLINE
  8
0
 62
     53
 66
     1
 10
0
 20
0
 30
0.0
 40
0.425197
 41
0.425197
  0
VERTEX
  8
0
 10
6.54596
 20
3.69293
 30
0.0
 40
0.00590551
 41
0.00590551
  0
VERTEX
  8
0
 10
6.73449
 20
4.21089
 30
0.0
 40
0.00590551
 41
0.00590551
  0
SEQEND
 8
0
  0
POLYLINE
  8
0
 62
     53
 66
     1
 10
0
 20
0
 30
0.0
 40
0.425197
 41
0.425197
  0
VERTEX
  8
0
 10
6.73449
 20
4.21089
 30
0.0
 40
0.00590551
 41
0.00590551
  0
VERTEX
  8
0
 10
7.25244
 20
4.02235
 30
0.0
 40
0.00590551
 41
0.00590551
  0
SEQEND
 8
0
  0
POLYLINE
  8
0
 62
     53
 66
     1
 10
0
 20
0
 30
0.0
 40
0.425197
 41
0.425197
  0
VERTEX
  8
0
 10
7.25244
 20
4.02235
 30
0.0
 40
0.00590551
 41
0.00590551
  0
VERTEX
  8
0
 10
7.06392
 20
3.50439
 30
0.0
 40
0.00590551
 41
0.00590551
  0
SEQEND
 8
0
  0
POLYLINE
  8
0
 62
     53
 66
     1
 10
0
 20
0
 30
0.0
 40
0.425197
 41
0.425197
  0
VERTEX
  8
0
 10
7.65067
 20
3.70443
 30
0.0
 40
0.00590551
 41
0.00590551
  0
VERTEX
  8
0
 10
8.05376
 20
4.08035
 30
0.0
 40
0.00590551
 41
0.00590551
  0
SEQEND
 8
0
  0
POLYLINE
  8
0
 62
     53
 66
     1
 10
0
 20
0
 30
0.0
 40
0.425197
 41
0.425197
  0
VERTEX
  8
0
 10
8.02653
 20
3.30132
 30
0.0
 40
0.00590551
 41
0.00590551
  0
VERTEX
  8
0
 10
7.65067
 20
3.70443
 30
0.0
 40
0.00590551
 41
0.00590551
  0
SEQEND
 8
0
  0
POLYLINE
  8
0
 62
     53
 66
     1
 10
0
 20
0
 30
0.0
 40
0.425197
 41
0.425197
  0
VERTEX
  8
0
 10
8.05376
 20
4.08035
 30
0.0
 40
0.00590551
 41
0.00590551
  0
VERTEX
  8
0
 10
8.42964
 20
3.67725
 30
0.0
 40
0.00590551
 41
0.00590551
  0
SEQEND
 8
0
  0
POLYLINE
  8
0
 62
     53
 66
     1
 10
0
 20
0
 30
0.0
 40
0.425197
 41
0.425197
  0
VERTEX
  8
0
 10
8.42964
 20
3.67725
 30
0.0
 40
0.00590551
 41
0.00590551
  0
VERTEX
  8
0
 10
8.02653
 20
3.30132
 30
0.0
 40
0.00590551
 41
0.00590551
  0
SEQEND
 8
0
  0
POLYLINE
  8
0
 62
     53
 66
     1
 10
0
 20
0
 30
0.0
 40
0.425197
 41
0.425197
  0
VERTEX
  8
0
 10
7.88232
 20
3.16601
 30
0.0
 40
0.00590551
 41
0.00590551
  0
VERTEX
  8
0
 10
7.47922
 20
2.7901
 30
0.0
 40
0.00590551
 41
0.00590551
  0
SEQEND
 8
0
  0
POLYLINE
  8
0
 62
     53
 66
     1
 10
0
 20
0
 30
0.0
 40
0.425197
 41
0.425197
  0
VERTEX
  8
0
 10
7.5064
 20
3.56912
 30
0.0
 40
0.00590551
 41
0.00590551
  0
VERTEX
  8
0
 10
7.88232
 20
3.16601
 30
0.0
 40
0.00590551
 41
0.00590551
  0
SEQEND
 8
0
  0
POLYLINE
  8
0
 62
     53
 66
     1
 10
0
 20
0
 30
0.0
 40
0.425197
 41
0.425197
  0
VERTEX
  8
0
 10
7.10331
 20
3.19319
 30
0.0
 40
0.00590551
 41
0.00590551
  0
VERTEX
  8
0
 10
7.5064
 20
3.56912
 30
0.0
 40
0.00590551
 41
0.00590551
  0
SEQEND
 8
0
  0
POLYLINE
  8
0
 62
     53
 66
     1
 10
0
 20
0
 30
0.0
 40
0.425197
 41
0.425197
  0
VERTEX
  8
0
 10
7.47922
 20
2.7901
 30
0.0
 40
0.00590551
 41
0.00590551
  0
VERTEX
  8
0
 10
7.10331
 20
3.19319
 30
0.0
 40
0.00590551
 41
0.00590551
  0
SEQEND
 8
0
  0
POLYLINE
  8
0
 62
     53
 66
     1
 10
0
 20
0
 30
0.0
 40
0.425197
 41
0.425197
  0
VERTEX
  8
0
 10
6.85693
 20
6.23486
 30
0.0
 40
0.00590551
 41
0.00590551
  0
VERTEX
  8
0
 10
6.76118
 20
5.69206
 30
0.0
 40
0.00590551
 41
0.00590551
  0
SEQEND
 8
0
  0
POLYLINE
  8
0
 62
     53
 66
     1
 10
0
 20
0
 30
0.0
 40
0.425197
 41
0.425197
  0
VERTEX
  8
0
 10
6.76118
 20
5.69206
 30
0.0
 40
0.00590551
 41
0.00590551
  0
VERTEX
  8
0
 10
6.21837
 20
5.78776
 30
0.0
 40
0.00590551
 41
0.00590551
  0
SEQEND
 8
0
  0
POLYLINE
  8
0
 62
     53
 66
     1
 10
0
 20
0
 30
0.0
 40
0.425197
 41
0.425197
  0
VERTEX
  8
0
 10
6.21837
 20
5.78776
 30
0.0
 40
0.00590551
 41
0.00590551
  0
VERTEX
  8
0
 10
6.31407
 20
6.33057
 30
0.0
 40
0.00590551
 41
0.00590551
  0
SEQEND
 8
0
  0
POLYLINE
  8
0
 62
     53
 66
     1
 10
0
 20
0
 30
0.0
 40
0.425197
 41
0.425197
  0
VERTEX
  8
0
 10
6.31407
 20
6.33057
 30
0.0
 40
0.00590551
 41
0.00590551
  0
VERTEX
  8
0
 10
6.85693
 20
6.23486
 30
0.0
 40
0.00590551
 41
0.00590551
  0
SEQEND
 8
0
  0
POLYLINE
  8
0
 62
     53
 66
     1
 10
0
 20
0
 30
0.0
 40
0.425197
 41
0.425197
  0
VERTEX
  8
0
 10
4.98654
 20
4.97342
 30
0.0
 40
0.00590551
 41
0.00590551
  0
VERTEX
  8
0
 10
4.98654
 20
4.42219
 30
0.0
 40
0.00590551
 41
0.00590551
  0
SEQEND
 8
0
  0
POLYLINE
  8
0
 62
     53
 66
     1
 10
0
 20
0
 30
0.0
 40
0.425197
 41
0.425197
  0
VERTEX
  8
0
 10
4.43533
 20
4.42219
 30
0.0
 40
0.00590551
 41
0.00590551
  0
VERTEX
  8
0
 10
4.43533
 20
4.97342
 30
0.0
 40
0.00590551
 41
0.00590551
  0
SEQEND
 8
0
  0
POLYLINE
  8
0
 62
     53
 66
     1
 10
0
 20
0
 30
0.0
 40
0.425197
 41
0.425197
  0
VERTEX
  8
0
 10
4.43533
 20
4.97342
 30
0.0
 40
0.00590551
 41
0.00590551
  0
VERTEX
  8
0
 10
4.98654
 20
4.97342
 30
0.0
 40
0.00590551
 41
0.00590551
  0
SEQEND
 8
0
  0
POLYLINE
  8
0
 62
     53
 66
     1
 10
0
 20
0
 30
0.0
 40
0.425197
 41
0.425197
  0
VERTEX
  8
0
 10
4.98654
 20
4.42219
 30
0.0
 40
0.00590551
 41
0.00590551
  0
VERTEX
  8
0
 10
4.43533
 20
4.42219
 30
0.0
 40
0.00590551
 41
0.00590551
  0
SEQEND
 8
0
  0
POLYLINE
  8
0
 62
     53
 66
     1
 10
0
 20
0
 30
0.0
 40
0.425197
 41
0.425197
  0
VERTEX
  8
0
 10
3.04454
 20
3.01069
 30
0.0
 40
0.00590551
 41
0.00590551
  0
VERTEX
  8
0
 10
3.57937
 20
3.14399
 30
0.0
 40
0.00590551
 41
0.00590551
  0
SEQEND
 8
0
  0
POLYLINE
  8
0
 62
     53
 66
     1
 10
0
 20
0
 30
0.0
 40
0.425197
 41
0.425197
  0
VERTEX
  8
0
 10
3.57937
 20
3.14399
 30
0.0
 40
0.00590551
 41
0.00590551
  0
VERTEX
  8
0
 10
3.71272
 20
2.60921
 30
0.0
 40
0.00590551
 41
0.00590551
  0
SEQEND
 8
0
  0
POLYLINE
  8
0
 62
     53
 66
     1
 10
0
 20
0
 30
0.0
 40
0.425197
 41
0.425197
  0
VERTEX
  8
0
 10
3.71272
 20
2.60921
 30
0.0
 40
0.00590551
 41
0.00590551
  0
VERTEX
  8
0
 10
3.1779
 20
2.47586
 30
0.0
 40
0.00590551
 41
0.00590551
  0
SEQEND
 8
0
  0
POLYLINE
  8
0
 62
     53
 66
     1
 10
0
 20
0
 30
0.0
 40
0.425197
 41
0.425197
  0
VERTEX
  8
0
 10
3.1779
 20
2.47586
 30
0.0
 40
0.00590551
 41
0.00590551
  0
VERTEX
  8
0
 10
3.04454
 20
3.01069
 30
0.0
 40
0.00590551
 41
0.00590551
  0
SEQEND
 8
0
  0
POLYLINE
  8
0
 62
     53
 66
     1
 10
0
 20
0
 30
0.0
 40
0.425197
 41
0.425197
  0
VERTEX
  8
0
 10
5.73888
 20
4.58539
 30
0.0
 40
0.00590551
 41
0.00590551
  0
VERTEX
  8
0
 10
5.18772
 20
4.58539
 30
0.0
 40
0.00590551
 41
0.00590551
  0
SEQEND
 8
0
  0
POLYLINE
  8
0
 62
     53
 66
     1
 10
0
 20
0
 30
0.0
 40
0.425197
 41
0.425197
  0
VERTEX
  8
0
 10
5.73888
 20
5.13656
 30
0.0
 40
0.00590551
 41
0.00590551
  0
VERTEX
  8
0
 10
5.73888
 20
4.58539
 30
0.0
 40
0.00590551
 41
0.00590551
  0
SEQEND
 8
0
  0
POLYLINE
  8
0
 62
     53
 66
     1
 10
0
 20
0
 30
0.0
 40
0.425197
 41
0.425197
  0
VERTEX
  8
0
 10
5.18772
 20
4.58539
 30
0.0
 40
0.00590551
 41
0.00590551
  0
VERTEX
  8
0
 10
5.18772
 20
5.13656
 30
0.0
 40
0.00590551
 41
0.00590551
  0
SEQEND
 8
0
  0
POLYLINE
  8
0
 62
     53
 66
     1
 10
0
 20
0
 30
0.0
 40
0.425197
 41
0.425197
  0
VERTEX
  8
0
 10
5.18772
 20
5.13656
 30
0.0
 40
0.00590551
 41
0.00590551
  0
VERTEX
  8
0
 10
5.73888
 20
5.13656
 30
0.0
 40
0.00590551
 41
0.00590551
  0
SEQEND
 8
0
  0
POLYLINE
  8
0
 62
     53
 66
     1
 10
0
 20
0
 30
0.0
 40
0.425197
 41
0.425197
  0
VERTEX
  8
0
 10
4.44319
 20
2.79519
 30
0.0
 40
0.00590551
 41
0.00590551
  0
VERTEX
  8
0
 10
3.90836
 20
2.66183
 30
0.0
 40
0.00590551
 41
0.00590551
  0
SEQEND
 8
0
  0
POLYLINE
  8
0
 62
     53
 66
     1
 10
0
 20
0
 30
0.0
 40
0.425197
 41
0.425197
  0
VERTEX
  8
0
 10
3.77507
 20
3.19667
 30
0.0
 40
0.00590551
 41
0.00590551
  0
VERTEX
  8
0
 10
4.30985
 20
3.33003
 30
0.0
 40
0.00590551
 41
0.00590551
  0
SEQEND
 8
0
  0
POLYLINE
  8
0
 62
     53
 66
     1
 10
0
 20
0
 30
0.0
 40
0.425197
 41
0.425197
  0
VERTEX
  8
0
 10
3.90836
 20
2.66183
 30
0.0
 40
0.00590551
 41
0.00590551
  0
VERTEX
  8
0
 10
3.77507
 20
3.19667
 30
0.0
 40
0.00590551
 41
0.00590551
  0
SEQEND
 8
0
  0
POLYLINE
  8
0
 62
     53
 66
     1
 10
0
 20
0
 30
0.0
 40
0.425197
 41
0.425197
  0
VERTEX
  8
0
 10
4.30985
 20
3.33003
 30
0.0
 40
0.00590551
 41
0.00590551
  0
VERTEX
  8
0
 10
4.44319
 20
2.79519
 30
0.0
 40
0.00590551
 41
0.00590551
  0
SEQEND
 8
0
  0
POLYLINE
  8
0
 62
     53
 66
     1
 10
0
 20
0
 30
0.0
 40
0.425197
 41
0.425197
  0
VERTEX
  8
0
 10
6.63129
 20
4.95535
 30
0.0
 40
0.00590551
 41
0.00590551
  0
VERTEX
  8
0
 10
6.08849
 20
5.05111
 30
0.0
 40
0.00590551
 41
0.00590551
  0
SEQEND
 8
0
  0
POLYLINE
  8
0
 62
     53
 66
     1
 10
0
 20
0
 30
0.0
 40
0.425197
 41
0.425197
  0
VERTEX
  8
0
 10
6.727
 20
5.49815
 30
0.0
 40
0.00590551
 41
0.00590551
  0
VERTEX
  8
0
 10
6.63129
 20
4.95535
 30
0.0
 40
0.00590551
 41
0.00590551
  0
SEQEND
 8
0
  0
POLYLINE
  8
0
 62
     53
 66
     1
 10
0
 20
0
 30
0.0
 40
0.425197
 41
0.425197
  0
VERTEX
  8
0
 10
6.08849
 20
5.05111
 30
0.0
 40
0.00590551
 41
0.00590551
  0
VERTEX
  8
0
 10
6.18419
 20
5.59392
 30
0.0
 40
0.00590551
 41
0.00590551
  0
SEQEND
 8
0
  0
POLYLINE
  8
0
 62
     53
 66
     1
 10
0
 20
0
 30
0.0
 40
0.425197
 41
0.425197
  0
VERTEX
  8
0
 10
6.18419
 20
5.59392
 30
0.0
 40
0.00590551
 41
0.00590551
  0
VERTEX
  8
0
 10
6.727
 20
5.49815
 30
0.0
 40
0.00590551
 41
0.00590551
  0
SEQEND
 8
0
  0
POLYLINE
  8
0
 62
     53
 66
     1
 10
0
 20
0
 30
0.0
 40
0.425197
 41
0.425197
  0
VERTEX
  8
0
 10
4.70432
 20
2.80404
 30
0.0
 40
0.00590551
 41
0.00590551
  0
VERTEX
  8
0
 10
4.80007
 20
3.34685
 30
0.0
 40
0.00590551
 41
0.00590551
  0
SEQEND
 8
0
  0
POLYLINE
  8
0
 62
     53
 66
     1
 10
0
 20
0
 30
0.0
 40
0.425197
 41
0.425197
  0
VERTEX
  8
0
 10
4.80007
 20
3.34685
 30
0.0
 40
0.00590551
 41
0.00590551
  0
VERTEX
  8
0
 10
5.34289
 20
3.25114
 30
0.0
 40
0.00590551
 41
0.00590551
  0
SEQEND
 8
0
  0
POLYLINE
  8
0
 62
     53
 66
     1
 10
0
 20
0
 30
0.0
 40
0.425197
 41
0.425197
  0
VERTEX
  8
0
 10
5.24713
 20
2.70833
 30
0.0
 40
0.00590551
 41
0.00590551
  0
VERTEX
  8
0
 10
4.70432
 20
2.80404
 30
0.0
 40
0.00590551
 41
0.00590551
  0
SEQEND
 8
0
  0
POLYLINE
  8
0
 62
     53
 66
     1
 10
0
 20
0
 30
0.0
 40
0.425197
 41
0.425197
  0
VERTEX
  8
0
 10
5.34289
 20
3.25114
 30
0.0
 40
0.00590551
 41
0.00590551
  0
VERTEX
  8
0
 10
5.24713
 20
2.70833
 30
0.0
 40
0.00590551
 41
0.00590551
  0
SEQEND
 8
0
  0
POLYLINE
  8
0
 62
     53
 66
     1
 10
0
 20
0
 30
0.0
 40
0.425197
 41
0.425197
  0
VERTEX
  8
0
 10
5.18761
 20
5.88417
 30
0.0
 40
0.00590551
 41
0.00590551
  0
VERTEX
  8
0
 10
5.73876
 20
5.88417
 30
0.0
 40
0.00590551
 41
0.00590551
  0
SEQEND
 8
0
  0
POLYLINE
  8
0
 62
     53
 66
     1
 10
0
 20
0
 30
0.0
 40
0.425197
 41
0.425197
  0
VERTEX
  8
0
 10
5.73876
 20
5.88417
 30
0.0
 40
0.00590551
 41
0.00590551
  0
VERTEX
  8
0
 10
5.73876
 20
5.33301
 30
0.0
 40
0.00590551
 41
0.00590551
  0
SEQEND
 8
0
  0
POLYLINE
  8
0
 62
     53
 66
     1
 10
0
 20
0
 30
0.0
 40
0.425197
 41
0.425197
  0
VERTEX
  8
0
 10
5.73876
 20
5.33301
 30
0.0
 40
0.00590551
 41
0.00590551
  0
VERTEX
  8
0
 10
5.18761
 20
5.33301
 30
0.0
 40
0.00590551
 41
0.00590551
  0
SEQEND
 8
0
  0
POLYLINE
  8
0
 62
     53
 66
     1
 10
0
 20
0
 30
0.0
 40
0.425197
 41
0.425197
  0
VERTEX
  8
0
 10
5.18761
 20
5.33301
 30
0.0
 40
0.00590551
 41
0.00590551
  0
VERTEX
  8
0
 10
5.18761
 20
5.88417
 30
0.0
 40
0.00590551
 41
0.00590551
  0
SEQEND
 8
0
  0
POLYLINE
  8
0
 62
     53
 66
     1
 10
0
 20
0
 30
0.0
 40
0.425197
 41
0.425197
  0
VERTEX
  8
0
 10
6.50174
 20
4.20529
 30
0.0
 40
0.00590551
 41
0.00590551
  0
VERTEX
  8
0
 10
5.96067
 20
4.31049
 30
0.0
 40
0.00590551
 41
0.00590551
  0
SEQEND
 8
0
  0
POLYLINE
  8
0
 62
     53
 66
     1
 10
0
 20
0
 30
0.0
 40
0.425197
 41
0.425197
  0
VERTEX
  8
0
 10
5.96067
 20
4.31049
 30
0.0
 40
0.00590551
 41
0.00590551
  0
VERTEX
  8
0
 10
6.06586
 20
4.85157
 30
0.0
 40
0.00590551
 41
0.00590551
  0
SEQEND
 8
0
  0
POLYLINE
  8
0
 62
     53
 66
     1
 10
0
 20
0
 30
0.0
 40
0.425197
 41
0.425197
  0
VERTEX
  8
0
 10
6.06586
 20
4.85157
 30
0.0
 40
0.00590551
 41
0.00590551
  0
VERTEX
  8
0
 10
6.60688
 20
4.74636
 30
0.0
 40
0.00590551
 41
0.00590551
  0
SEQEND
 8
0
  0
POLYLINE
  8
0
 62
     53
 66
     1
 10
0
 20
0
 30
0.0
 40
0.425197
 41
0.425197
  0
VERTEX
  8
0
 10
6.60688
 20
4.74636
 30
0.0
 40
0.00590551
 41
0.00590551
  0
VERTEX
  8
0
 10
6.50174
 20
4.20529
 30
0.0
 40
0.00590551
 41
0.00590551
  0
SEQEND
 8
0
  0
POLYLINE
  8
0
 62
     53
 66
     1
 10
0
 20
0
 30
0.0
 40
0.425197
 41
0.425197
  0
VERTEX
  8
0
 10
4.43593
 20
5.72488
 30
0.0
 40
0.00590551
 41
0.00590551
  0
VERTEX
  8
0
 10
4.98714
 20
5.72488
 30
0.0
 40
0.00590551
 41
0.00590551
  0
SEQEND
 8
0
  0
POLYLINE
  8
0
 62
     53
 66
     1
 10
0
 20
0
 30
0.0
 40
0.425197
 41
0.425197
  0
VERTEX
  8
0
 10
4.43593
 20
5.17372
 30
0.0
 40
0.00590551
 41
0.00590551
  0
VERTEX
  8
0
 10
4.43593
 20
5.72488
 30
0.0
 40
0.00590551
 41
0.00590551
  0
SEQEND
 8
0
  0
POLYLINE
  8
0
 62
     53
 66
     1
 10
0
 20
0
 30
0.0
 40
0.425197
 41
0.425197
  0
VERTEX
  8
0
 10
4.98714
 20
5.17372
 30
0.0
 40
0.00590551
 41
0.00590551
  0
VERTEX
  8
0
 10
4.43593
 20
5.17372
 30
0.0
 40
0.00590551
 41
0.00590551
  0
SEQEND
 8
0
  0
POLYLINE
  8
0
 62
     53
 66
     1
 10
0
 20
0
 30
0.0
 40
0.425197
 41
0.425197
  0
VERTEX
  8
0
 10
4.98714
 20
5.72488
 30
0.0
 40
0.00590551
 41
0.00590551
  0
VERTEX
  8
0
 10
4.98714
 20
5.17372
 30
0.0
 40
0.00590551
 41
0.00590551
  0
SEQEND
 8
0
  0
POLYLINE
  8
0
 62
     53
 66
     1
 10
0
 20
0
 30
0.0
 40
0.425197
 41
0.425197
  0
VERTEX
  8
0
 10
6.80176
 20
4.3954
 30
0.0
 40
0.00590551
 41
0.00590551
  0
VERTEX
  8
0
 10
6.99029
 20
4.91336
 30
0.0
 40
0.00590551
 41
0.00590551
  0
SEQEND
 8
0
  0
POLYLINE
  8
0
 62
     53
 66
     1
 10
0
 20
0
 30
0.0
 40
0.425197
 41
0.425197
  0
VERTEX
  8
0
 10
6.99029
 20
4.91336
 30
0.0
 40
0.00590551
 41
0.00590551
  0
VERTEX
  8
0
 10
7.50825
 20
4.72483
 30
0.0
 40
0.00590551
 41
0.00590551
  0
SEQEND
 8
0
  0
POLYLINE
  8
0
 62
     53
 66
     1
 10
0
 20
0
 30
0.0
 40
0.425197
 41
0.425197
  0
VERTEX
  8
0
 10
7.31972
 20
4.20687
 30
0.0
 40
0.00590551
 41
0.00590551
  0
VERTEX
  8
0
 10
6.80176
 20
4.3954
 30
0.0
 40
0.00590551
 41
0.00590551
  0
SEQEND
 8
0
  0
POLYLINE
  8
0
 62
     53
 66
     1
 10
0
 20
0
 30
0.0
 40
0.425197
 41
0.425197
  0
VERTEX
  8
0
 10
7.50825
 20
4.72483
 30
0.0
 40
0.00590551
 41
0.00590551
  0
VERTEX
  8
0
 10
7.31972
 20
4.20687
 30
0.0
 40
0.00590551
 41
0.00590551
  0
SEQEND
 8
0
  0
POLYLINE
  8
0
 62
     53
 66
     1
 10
0
 20
0
 30
0.0
 40
0.425197
 41
0.425197
  0
VERTEX
  8
0
 10
4.43408
 20
3.66689
 30
0.0
 40
0.00590551
 41
0.00590551
  0
VERTEX
  8
0
 10
4.43408
 20
4.21804
 30
0.0
 40
0.00590551
 41
0.00590551
  0
SEQEND
 8
0
  0
POLYLINE
  8
0
 62
     53
 66
     1
 10
0
 20
0
 30
0.0
 40
0.425197
 41
0.425197
  0
VERTEX
  8
0
 10
4.98529
 20
3.66689
 30
0.0
 40
0.00590551
 41
0.00590551
  0
VERTEX
  8
0
 10
4.43408
 20
3.66689
 30
0.0
 40
0.00590551
 41
0.00590551
  0
SEQEND
 8
0
  0
POLYLINE
  8
0
 62
     53
 66
     1
 10
0
 20
0
 30
0.0
 40
0.425197
 41
0.425197
  0
VERTEX
  8
0
 10
4.98529
 20
4.21804
 30
0.0
 40
0.00590551
 41
0.00590551
  0
VERTEX
  8
0
 10
4.98529
 20
3.66689
 30
0.0
 40
0.00590551
 41
0.00590551
  0
SEQEND
 8
0
  0
POLYLINE
  8
0
 62
     53
 66
     1
 10
0
 20
0
 30
0.0
 40
0.425197
 41
0.425197
  0
VERTEX
  8
0
 10
4.43408
 20
4.21804
 30
0.0
 40
0.00590551
 41
0.00590551
  0
VERTEX
  8
0
 10
4.98529
 20
4.21804
 30
0.0
 40
0.00590551
 41
0.00590551
  0
SEQEND
 8
0
  0
POLYLINE
  8
0
 62
     53
 66
     1
 10
0
 20
0
 30
0.0
 40
0.425197
 41
0.425197
  0
VERTEX
  8
0
 10
7.764
 20
5.42731
 30
0.0
 40
0.00590551
 41
0.00590551
  0
VERTEX
  8
0
 10
7.57553
 20
4.90935
 30
0.0
 40
0.00590551
 41
0.00590551
  0
SEQEND
 8
0
  0
POLYLINE
  8
0
 62
     53
 66
     1
 10
0
 20
0
 30
0.0
 40
0.425197
 41
0.425197
  0
VERTEX
  8
0
 10
7.57553
 20
4.90935
 30
0.0
 40
0.00590551
 41
0.00590551
  0
VERTEX
  8
0
 10
7.05757
 20
5.09787
 30
0.0
 40
0.00590551
 41
0.00590551
  0
SEQEND
 8
0
  0
POLYLINE
  8
0
 62
     53
 66
     1
 10
0
 20
0
 30
0.0
 40
0.425197
 41
0.425197
  0
VERTEX
  8
0
 10
7.05757
 20
5.09787
 30
0.0
 40
0.00590551
 41
0.00590551
  0
VERTEX
  8
0
 10
7.2461
 20
5.61583
 30
0.0
 40
0.00590551
 41
0.00590551
  0
SEQEND
 8
0
  0
POLYLINE
  8
0
 62
     53
 66
     1
 10
0
 20
0
 30
0.0
 40
0.425197
 41
0.425197
  0
VERTEX
  8
0
 10
7.2461
 20
5.61583
 30
0.0
 40
0.00590551
 41
0.00590551
  0
VERTEX
  8
0
 10
7.764
 20
5.42731
 30
0.0
 40
0.00590551
 41
0.00590551
  0
SEQEND
 8
0
  0
POLYLINE
  8
0
 62
     53
 66
     1
 10
0
 20
0
 30
0.0
 40
0.425197
 41
0.425197
  0
VERTEX
  8
0
 10
8.60107
 20
4.59158
 30
0.0
 40
0.00590551
 41
0.00590551
  0
VERTEX
  8
0
 10
8.977
 20
4.18847
 30
0.0
 40
0.00590551
 41
0.00590551
  0
SEQEND
 8
0
  0
POLYLINE
  8
0
 62
     53
 66
     1
 10
0
 20
0
 30
0.0
 40
0.425197
 41
0.425197
  0
VERTEX
  8
0
 10
8.977
 20
4.18847
 30
0.0
 40
0.00590551
 41
0.00590551
  0
VERTEX
  8
0
 10
8.57389
 20
3.81256
 30
0.0
 40
0.00590551
 41
0.00590551
  0
SEQEND
 8
0
  0
POLYLINE
  8
0
 62
     53
 66
     1
 10
0
 20
0
 30
0.0
 40
0.425197
 41
0.425197
  0
VERTEX
  8
0
 10
8.57389
 20
3.81256
 30
0.0
 40
0.00590551
 41
0.00590551
  0
VERTEX
  8
0
 10
8.19797
 20
4.21565
 30
0.0
 40
0.00590551
 41
0.00590551
  0
SEQEND
 8
0
  0
POLYLINE
  8
0
 62
     53
 66
     1
 10
0
 20
0
 30
0.0
 40
0.425197
 41
0.425197
  0
VERTEX
  8
0
 10
8.19797
 20
4.21565
 30
0.0
 40
0.00590551
 41
0.00590551
  0
VERTEX
  8
0
 10
8.60107
 20
4.59158
 30
0.0
 40
0.00590551
 41
0.00590551
  0
SEQEND
 8
0
  0
POLYLINE
  8
0
 62
     53
 66
     1
 10
0
 20
0
 30
0.0
 40
0.425197
 41
0.425197
  0
VERTEX
  8
0
 10
5.18842
 20
4.3871
 30
0.0
 40
0.00590551
 41
0.00590551
  0
VERTEX
  8
0
 10
5.73958
 20
4.3871
 30
0.0
 40
0.00590551
 41
0.00590551
  0
SEQEND
 8
0
  0
POLYLINE
  8
0
 62
     53
 66
     1
 10
0
 20
0
 30
0.0
 40
0.425197
 41
0.425197
  0
VERTEX
  8
0
 10
5.73958
 20
3.83594
 30
0.0
 40
0.00590551
 41
0.00590551
  0
VERTEX
  8
0
 10
5.18842
 20
3.83594
 30
0.0
 40
0.00590551
 41
0.00590551
  0
SEQEND
 8
0
  0
POLYLINE
  8
0
 62
     53
 66
     1
 10
0
 20
0
 30
0.0
 40
0.425197
 41
0.425197
  0
VERTEX
  8
0
 10
5.73958
 20
4.3871
 30
0.0
 40
0.00590551
 41
0.00590551
  0
VERTEX
  8
0
 10
5.73958
 20
3.83594
 30
0.0
 40
0.00590551
 41
0.00590551
  0
SEQEND
 8
0
  0
POLYLINE
  8
0
 62
     53
 66
     1
 10
0
 20
0
 30
0.0
 40
0.425197
 41
0.425197
  0
VERTEX
  8
0
 10
5.18842
 20
3.83594
 30
0.0
 40
0.00590551
 41
0.00590551
  0
VERTEX
  8
0
 10
5.18842
 20
4.3871
 30
0.0
 40
0.00590551
 41
0.00590551
  0
SEQEND
 8
0
  0
POLYLINE
  8
0
 62
     0
 66
     1
 10
0
 20
0
 30
0.0
 70
     1
 40
0
 41
0
  0
VERTEX
  8
0
 10
6.27636
 20
2.86242
 30
0.0
 40
0
 41
0
  0
VERTEX
  8
0
 10
6.27636
 20
2.85319
 30
0.0
 40
0
 41
0
  0
VERTEX
  8
0
 10
6.26899
 20
2.82553
 30
0.0
 40
0
 41
0
  0
VERTEX
  8
0
 10
6.25265
 20
2.79878
 30
0.0
 40
0
 41
0
  0
VERTEX
  8
0
 10
6.24815
 20
2.79422
 30
0.0
 40
0
 41
0
  0
VERTEX
  8
0
 10
6.2436
 20
2.78971
 30
0.0
 40
0
 41
0
  0
VERTEX
  8
0
 10
6.21679
 20
2.77333
 30
0.0
 40
0
 41
0
  0
VERTEX
  8
0
 10
6.18913
 20
2.76594
 30
0.0
 40
0
 41
0
  0
VERTEX
  8
0
 10
6.17996
 20
2.76594
 30
0.0
 40
0
 41
0
  0
VERTEX
  8
0
 10
6.17051
 20
2.76594
 30
0.0
 40
0
 41
0
  0
VERTEX
  8
0
 10
6.14236
 20
2.77354
 30
0.0
 40
0
 41
0
  0
VERTEX
  8
0
 10
6.11171
 20
2.79422
 30
0.0
 40
0
 41
0
  0
VERTEX
  8
0
 10
6.09104
 20
2.82488
 30
0.0
 40
0
 41
0
  0
VERTEX
  8
0
 10
6.0835
 20
2.85303
 30
0.0
 40
0
 41
0
  0
VERTEX
  8
0
 10
6.0835
 20
2.86242
 30
0.0
 40
0
 41
0
  0
VERTEX
  8
0
 10
6.0835
 20
2.87185
 30
0.0
 40
0
 41
0
  0
VERTEX
  8
0
 10
6.09104
 20
2.90001
 30
0.0
 40
0
 41
0
  0
VERTEX
  8
0
 10
6.11171
 20
2.93067
 30
0.0
 40
0
 41
0
  0
VERTEX
  8
0
 10
6.14236
 20
2.95133
 30
0.0
 40
0
 41
0
  0
VERTEX
  8
0
 10
6.17051
 20
2.95888
 30
0.0
 40
0
 41
0
  0
VERTEX
  8
0
 10
6.17996
 20
2.95888
 30
0.0
 40
0
 41
0
  0
VERTEX
  8
0
 10
6.18929
 20
2.95888
 30
0.0
 40
0
 41
0
  0
VERTEX
  8
0
 10
6.21744
 20
2.95133
 30
0.0
 40
0
 41
0
  0
VERTEX
  8
0
 10
6.2481
 20
2.93067
 30
0.0
 40
0
 41
0
  0
VERTEX
  8
0
 10
6.26878
 20
2.90001
 30
0.0
 40
0
 41
0
  0
VERTEX
  8
0
 10
6.27636
 20
2.87185
 30
0.0
 40
0
 41
0
  0
VERTEX
  8
0
 10
6.27636
 20
2.86242
 30
0.0
 40
0
 41
0
  0
SEQEND
 8
0
  0
POLYLINE
  8
0
 62
     0
 66
     1
 10
0
 20
0
 30
0.0
 70
     1
 40
2.83465e-06
 41
2.83465e-06
  0
VERTEX
  8
0
 10
6.27636
 20
2.86242
 30
0.0
 40
3.93701e-08
 41
3.93701e-08
  0
VERTEX
  8
0
 10
6.27636
 20
2.85319
 30
0.0
 40
3.93701e-08
 41
3.93701e-08
  0
VERTEX
  8
0
 10
6.26899
 20
2.82553
 30
0.0
 40
3.93701e-08
 41
3.93701e-08
  0
VERTEX
  8
0
 10
6.25265
 20
2.79878
 30
0.0
 40
3.93701e-08
 41
3.93701e-08
  0
VERTEX
  8
0
 10
6.24815
 20
2.79422
 30
0.0
 40
3.93701e-08
 41
3.93701e-08
  0
VERTEX
  8
0
 10
6.2436
 20
2.78971
 30
0.0
 40
3.93701e-08
 41
3.93701e-08
  0
VERTEX
  8
0
 10
6.21679
 20
2.77333
 30
0.0
 40
3.93701e-08
 41
3.93701e-08
  0
VERTEX
  8
0
 10
6.18913
 20
2.76594
 30
0.0
 40
3.93701e-08
 41
3.93701e-08
  0
VERTEX
  8
0
 10
6.17996
 20
2.76594
 30
0.0
 40
3.93701e-08
 41
3.93701e-08
  0
VERTEX
  8
0
 10
6.17051
 20
2.76594
 30
0.0
 40
3.93701e-08
 41
3.93701e-08
  0
VERTEX
  8
0
 10
6.14236
 20
2.77354
 30
0.0
 40
3.93701e-08
 41
3.93701e-08
  0
VERTEX
  8
0
 10
6.11171
 20
2.79422
 30
0.0
 40
3.93701e-08
 41
3.93701e-08
  0
VERTEX
  8
0
 10
6.09104
 20
2.82488
 30
0.0
 40
3.93701e-08
 41
3.93701e-08
  0
VERTEX
  8
0
 10
6.0835
 20
2.85303
 30
0.0
 40
3.93701e-08
 41
3.93701e-08
  0
VERTEX
  8
0
 10
6.0835
 20
2.86242
 30
0.0
 40
3.93701e-08
 41
3.93701e-08
  0
VERTEX
  8
0
 10
6.0835
 20
2.87185
 30
0.0
 40
3.93701e-08
 41
3.93701e-08
  0
VERTEX
  8
0
 10
6.09104
 20
2.90001
 30
0.0
 40
3.93701e-08
 41
3.93701e-08
  0
VERTEX
  8
0
 10
6.11171
 20
2.93067
 30
0.0
 40
3.93701e-08
 41
3.93701e-08
  0
VERTEX
  8
0
 10
6.14236
 20
2.95133
 30
0.0
 40
3.93701e-08
 41
3.93701e-08
  0
VERTEX
  8
0
 10
6.17051
 20
2.95888
 30
0.0
 40
3.93701e-08
 41
3.93701e-08
  0
VERTEX
  8
0
 10
6.17996
 20
2.95888
 30
0.0
 40
3.93701e-08
 41
3.93701e-08
  0
VERTEX
  8
0
 10
6.18929
 20
2.95888
 30
0.0
 40
3.93701e-08
 41
3.93701e-08
  0
VERTEX
  8
0
 10
6.21744
 20
2.95133
 30
0.0
 40
3.93701e-08
 41
3.93701e-08
  0
VERTEX
  8
0
 10
6.2481
 20
2.93067
 30
0.0
 40
3.93701e-08
 41
3.93701e-08
  0
VERTEX
  8
0
 10
6.26878
 20
2.90001
 30
0.0
 40
3.93701e-08
 41
3.93701e-08
  0
VERTEX
  8
0
 10
6.27636
 20
2.87185
 30
0.0
 40
3.93701e-08
 41
3.93701e-08
  0
VERTEX
  8
0
 10
6.27636
 20
2.86242
 30
0.0
 40
3.93701e-08
 41
3.93701e-08
  0
SEQEND
 8
0
  0
POLYLINE
  8
0
 62
     0
 66
     1
 10
0
 20
0
 30
0.0
 70
     1
 40
0
 41
0
  0
VERTEX
  8
0
 10
6.49724
 20
5.65315
 30
0.0
 40
0
 41
0
  0
VERTEX
  8
0
 10
6.49724
 20
5.65315
 30
0.0
 40
0
 41
0
  0
VERTEX
  8
0
 10
6.49713
 20
5.65315
 30
0.0
 40
0
 41
0
  0
VERTEX
  8
0
 10
6.49713
 20
5.65315
 30
0.0
 40
0
 41
0
  0
VERTEX
  8
0
 10
6.49713
 20
5.65315
 30
0.0
 40
0
 41
0
  0
VERTEX
  8
0
 10
6.4974
 20
5.65306
 30
0.0
 40
0
 41
0
  0
VERTEX
  8
0
 10
6.49744
 20
5.653
 30
0.0
 40
0
 41
0
  0
VERTEX
  8
0
 10
6.49744
 20
5.653
 30
0.0
 40
0
 41
0
  0
VERTEX
  8
0
 10
6.49724
 20
5.65315
 30
0.0
 40
0
 41
0
  0
VERTEX
  8
0
 10
6.49724
 20
5.65315
 30
0.0
 40
0
 41
0
  0
SEQEND
 8
0
  0
POLYLINE
  8
0
 62
     0
 66
     1
 10
0
 20
0
 30
0.0
 70
     1
 40
2.83465e-06
 41
2.83465e-06
  0
VERTEX
  8
0
 10
6.49724
 20
5.65315
 30
0.0
 40
3.93701e-08
 41
3.93701e-08
  0
VERTEX
  8
0
 10
6.49724
 20
5.65315
 30
0.0
 40
3.93701e-08
 41
3.93701e-08
  0
VERTEX
  8
0
 10
6.49713
 20
5.65315
 30
0.0
 40
3.93701e-08
 41
3.93701e-08
  0
VERTEX
  8
0
 10
6.49713
 20
5.65315
 30
0.0
 40
3.93701e-08
 41
3.93701e-08
  0
VERTEX
  8
0
 10
6.49713
 20
5.65315
 30
0.0
 40
3.93701e-08
 41
3.93701e-08
  0
VERTEX
  8
0
 10
6.4974
 20
5.65306
 30
0.0
 40
3.93701e-08
 41
3.93701e-08
  0
VERTEX
  8
0
 10
6.49744
 20
5.653
 30
0.0
 40
3.93701e-08
 41
3.93701e-08
  0
VERTEX
  8
0
 10
6.49744
 20
5.653
 30
0.0
 40
3.93701e-08
 41
3.93701e-08
  0
VERTEX
  8
0
 10
6.49724
 20
5.65315
 30
0.0
 40
3.93701e-08
 41
3.93701e-08
  0
VERTEX
  8
0
 10
6.49724
 20
5.65315
 30
0.0
 40
3.93701e-08
 41
3.93701e-08
  0
SEQEND
 8
0
  0
POLYLINE
  8
0
 62
     0
 66
     1
 10
0
 20
0
 30
0.0
 70
     1
 40
0
 41
0
  0
VERTEX
  8
0
 10
8.05697
 20
4.88439
 30
0.0
 40
0
 41
0
  0
VERTEX
  8
0
 10
8.04753
 20
4.88439
 30
0.0
 40
0
 41
0
  0
VERTEX
  8
0
 10
8.01938
 20
4.87685
 30
0.0
 40
0
 41
0
  0
VERTEX
  8
0
 10
7.98872
 20
4.85618
 30
0.0
 40
0
 41
0
  0
VERTEX
  8
0
 10
7.96804
 20
4.82553
 30
0.0
 40
0
 41
0
  0
VERTEX
  8
0
 10
7.9605
 20
4.79736
 30
0.0
 40
0
 41
0
  0
VERTEX
  8
0
 10
7.9605
 20
4.78792
 30
0.0
 40
0
 41
0
  0
VERTEX
  8
0
 10
7.9605
 20
4.77875
 30
0.0
 40
0
 41
0
  0
VERTEX
  8
0
 10
7.96783
 20
4.75108
 30
0.0
 40
0
 41
0
  0
VERTEX
  8
0
 10
7.98421
 20
4.72428
 30
0.0
 40
0
 41
0
  0
VERTEX
  8
0
 10
7.98876
 20
4.71972
 30
0.0
 40
0
 41
0
  0
VERTEX
  8
0
 10
7.99328
 20
4.71522
 30
0.0
 40
0
 41
0
  0
VERTEX
  8
0
 10
8.02001
 20
4.69883
 30
0.0
 40
0
 41
0
  0
VERTEX
  8
0
 10
8.04769
 20
4.69146
 30
0.0
 40
0
 41
0
  0
VERTEX
  8
0
 10
8.05697
 20
4.69146
 30
0.0
 40
0
 41
0
  0
VERTEX
  8
0
 10
8.06619
 20
4.69146
 30
0.0
 40
0
 41
0
  0
VERTEX
  8
0
 10
8.09386
 20
4.69883
 30
0.0
 40
0
 41
0
  0
VERTEX
  8
0
 10
8.12061
 20
4.71522
 30
0.0
 40
0
 41
0
  0
VERTEX
  8
0
 10
8.12517
 20
4.71972
 30
0.0
 40
0
 41
0
  0
VERTEX
  8
0
 10
8.12967
 20
4.72428
 30
0.0
 40
0
 41
0
  0
VERTEX
  8
0
 10
8.14606
 20
4.75108
 30
0.0
 40
0
 41
0
  0
VERTEX
  8
0
 10
8.15343
 20
4.77875
 30
0.0
 40
0
 41
0
  0
VERTEX
  8
0
 10
8.15343
 20
4.78792
 30
0.0
 40
0
 41
0
  0
VERTEX
  8
0
 10
8.15343
 20
4.79736
 30
0.0
 40
0
 41
0
  0
VERTEX
  8
0
 10
8.14583
 20
4.82553
 30
0.0
 40
0
 41
0
  0
VERTEX
  8
0
 10
8.12517
 20
4.85618
 30
0.0
 40
0
 41
0
  0
VERTEX
  8
0
 10
8.09451
 20
4.87685
 30
0.0
 40
0
 41
0
  0
VERTEX
  8
0
 10
8.06635
 20
4.88439
 30
0.0
 40
0
 41
0
  0
VERTEX
  8
0
 10
8.05697
 20
4.88439
 30
0.0
 40
0
 41
0
  0
SEQEND
 8
0
  0
POLYLINE
  8
0
 62
     0
 66
     1
 10
0
 20
0
 30
0.0
 70
     1
 40
2.83465e-06
 41
2.83465e-06
  0
VERTEX
  8
0
 10
8.05697
 20
4.88439
 30
0.0
 40
3.93701e-08
 41
3.93701e-08
  0
VERTEX
  8
0
 10
8.04753
 20
4.88439
 30
0.0
 40
3.93701e-08
 41
3.93701e-08
  0
VERTEX
  8
0
 10
8.01938
 20
4.87685
 30
0.0
 40
3.93701e-08
 41
3.93701e-08
  0
VERTEX
  8
0
 10
7.98872
 20
4.85618
 30
0.0
 40
3.93701e-08
 41
3.93701e-08
  0
VERTEX
  8
0
 10
7.96804
 20
4.82553
 30
0.0
 40
3.93701e-08
 41
3.93701e-08
  0
VERTEX
  8
0
 10
7.9605
 20
4.79736
 30
0.0
 40
3.93701e-08
 41
3.93701e-08
  0
VERTEX
  8
0
 10
7.9605
 20
4.78792
 30
0.0
 40
3.93701e-08
 41
3.93701e-08
  0
VERTEX
  8
0
 10
7.9605
 20
4.77875
 30
0.0
 40
3.93701e-08
 41
3.93701e-08
  0
VERTEX
  8
0
 10
7.96783
 20
4.75108
 30
0.0
 40
3.93701e-08
 41
3.93701e-08
  0
VERTEX
  8
0
 10
7.98421
 20
4.72428
 30
0.0
 40
3.93701e-08
 41
3.93701e-08
  0
VERTEX
  8
0
 10
7.98876
 20
4.71972
 30
0.0
 40
3.93701e-08
 41
3.93701e-08
  0
VERTEX
  8
0
 10
7.99328
 20
4.71522
 30
0.0
 40
3.93701e-08
 41
3.93701e-08
  0
VERTEX
  8
0
 10
8.02001
 20
4.69883
 30
0.0
 40
3.93701e-08
 41
3.93701e-08
  0
VERTEX
  8
0
 10
8.04769
 20
4.69146
 30
0.0
 40
3.93701e-08
 41
3.93701e-08
  0
VERTEX
  8
0
 10
8.05697
 20
4.69146
 30
0.0
 40
3.93701e-08
 41
3.93701e-08
  0
VERTEX
  8
0
 10
8.06619
 20
4.69146
 30
0.0
 40
3.93701e-08
 41
3.93701e-08
  0
VERTEX
  8
0
 10
8.09386
 20
4.69883
 30
0.0
 40
3.93701e-08
 41
3.93701e-08
  0
VERTEX
  8
0
 10
8.12061
 20
4.71522
 30
0.0
 40
3.93701e-08
 41
3.93701e-08
  0
VERTEX
  8
0
 10
8.12517
 20
4.71972
 30
0.0
 40
3.93701e-08
 41
3.93701e-08
  0
VERTEX
  8
0
 10
8.12967
 20
4.72428
 30
0.0
 40
3.93701e-08
 41
3.93701e-08
  0
VERTEX
  8
0
 10
8.14606
 20
4.75108
 30
0.0
 40
3.93701e-08
 41
3.93701e-08
  0
VERTEX
  8
0
 10
8.15343
 20
4.77875
 30
0.0
 40
3.93701e-08
 41
3.93701e-08
  0
VERTEX
  8
0
 10
8.15343
 20
4.78792
 30
0.0
 40
3.93701e-08
 41
3.93701e-08
  0
VERTEX
  8
0
 10
8.15343
 20
4.79736
 30
0.0
 40
3.93701e-08
 41
3.93701e-08
  0
VERTEX
  8
0
 10
8.14583
 20
4.82553
 30
0.0
 40
3.93701e-08
 41
3.93701e-08
  0
VERTEX
  8
0
 10
8.12517
 20
4.85618
 30
0.0
 40
3.93701e-08
 41
3.93701e-08
  0
VERTEX
  8
0
 10
8.09451
 20
4.87685
 30
0.0
 40
3.93701e-08
 41
3.93701e-08
  0
VERTEX
  8
0
 10
8.06635
 20
4.88439
 30
0.0
 40
3.93701e-08
 41
3.93701e-08
  0
VERTEX
  8
0
 10
8.05697
 20
4.88439
 30
0.0
 40
3.93701e-08
 41
3.93701e-08
  0
SEQEND
 8
0
  0
POLYLINE
  8
0
 62
     0
 66
     1
 10
0
 20
0
 30
0.0
 70
     1
 40
0
 41
0
  0
VERTEX
  8
0
 10
5.27051
 20
4.8361
 30
0.0
 40
0
 41
0
  0
VERTEX
  8
0
 10
5.27051
 20
4.8361
 30
0.0
 40
0
 41
0
  0
VERTEX
  8
0
 10
5.27046
 20
4.8361
 30
0.0
 40
0
 41
0
  0
VERTEX
  8
0
 10
5.27046
 20
4.8361
 30
0.0
 40
0
 41
0
  0
VERTEX
  8
0
 10
5.27046
 20
4.8361
 30
0.0
 40
0
 41
0
  0
VERTEX
  8
0
 10
5.27051
 20
4.8361
 30
0.0
 40
0
 41
0
  0
VERTEX
  8
0
 10
5.27051
 20
4.8361
 30
0.0
 40
0
 41
0
  0
VERTEX
  8
0
 10
5.27051
 20
4.8361
 30
0.0
 40
0
 41
0
  0
VERTEX
  8
0
 10
5.27056
 20
4.83604
 30
0.0
 40
0
 41
0
  0
VERTEX
  8
0
 10
5.27056
 20
4.83604
 30
0.0
 40
0
 41
0
  0
VERTEX
  8
0
 10
5.27056
 20
4.83604
 30
0.0
 40
0
 41
0
  0
VERTEX
  8
0
 10
5.27067
 20
4.83599
 30
0.0
 40
0
 41
0
  0
VERTEX
  8
0
 10
5.27067
 20
4.83599
 30
0.0
 40
0
 41
0
  0
VERTEX
  8
0
 10
5.27067
 20
4.83599
 30
0.0
 40
0
 41
0
  0
VERTEX
  8
0
 10
5.27083
 20
4.83599
 30
0.0
 40
0
 41
0
  0
VERTEX
  8
0
 10
5.27083
 20
4.83599
 30
0.0
 40
0
 41
0
  0
VERTEX
  8
0
 10
5.27083
 20
4.83599
 30
0.0
 40
0
 41
0
  0
VERTEX
  8
0
 10
5.27083
 20
4.83604
 30
0.0
 40
0
 41
0
  0
VERTEX
  8
0
 10
5.27083
 20
4.83604
 30
0.0
 40
0
 41
0
  0
VERTEX
  8
0
 10
5.27083
 20
4.83604
 30
0.0
 40
0
 41
0
  0
VERTEX
  8
0
 10
5.27078
 20
4.8361
 30
0.0
 40
0
 41
0
  0
VERTEX
  8
0
 10
5.27078
 20
4.8361
 30
0.0
 40
0
 41
0
  0
VERTEX
  8
0
 10
5.27078
 20
4.8361
 30
0.0
 40
0
 41
0
  0
VERTEX
  8
0
 10
5.27061
 20
4.8361
 30
0.0
 40
0
 41
0
  0
VERTEX
  8
0
 10
5.27061
 20
4.8361
 30
0.0
 40
0
 41
0
  0
VERTEX
  8
0
 10
5.27056
 20
4.83615
 30
0.0
 40
0
 41
0
  0
VERTEX
  8
0
 10
5.27051
 20
4.8361
 30
0.0
 40
0
 41
0
  0
VERTEX
  8
0
 10
5.27051
 20
4.8361
 30
0.0
 40
0
 41
0
  0
SEQEND
 8
0
  0
POLYLINE
  8
0
 62
     0
 66
     1
 10
0
 20
0
 30
0.0
 70
     1
 40
2.83465e-06
 41
2.83465e-06
  0
VERTEX
  8
0
 10
5.27051
 20
4.8361
 30
0.0
 40
3.93701e-08
 41
3.93701e-08
  0
VERTEX
  8
0
 10
5.27051
 20
4.8361
 30
0.0
 40
3.93701e-08
 41
3.93701e-08
  0
VERTEX
  8
0
 10
5.27046
 20
4.8361
 30
0.0
 40
3.93701e-08
 41
3.93701e-08
  0
VERTEX
  8
0
 10
5.27046
 20
4.8361
 30
0.0
 40
3.93701e-08
 41
3.93701e-08
  0
VERTEX
  8
0
 10
5.27046
 20
4.8361
 30
0.0
 40
3.93701e-08
 41
3.93701e-08
  0
VERTEX
  8
0
 10
5.27051
 20
4.8361
 30
0.0
 40
3.93701e-08
 41
3.93701e-08
  0
VERTEX
  8
0
 10
5.27051
 20
4.8361
 30
0.0
 40
3.93701e-08
 41
3.93701e-08
  0
VERTEX
  8
0
 10
5.27051
 20
4.8361
 30
0.0
 40
3.93701e-08
 41
3.93701e-08
  0
VERTEX
  8
0
 10
5.27056
 20
4.83604
 30
0.0
 40
3.93701e-08
 41
3.93701e-08
  0
VERTEX
  8
0
 10
5.27056
 20
4.83604
 30
0.0
 40
3.93701e-08
 41
3.93701e-08
  0
VERTEX
  8
0
 10
5.27056
 20
4.83604
 30
0.0
 40
3.93701e-08
 41
3.93701e-08
  0
VERTEX
  8
0
 10
5.27067
 20
4.83599
 30
0.0
 40
3.93701e-08
 41
3.93701e-08
  0
VERTEX
  8
0
 10
5.27067
 20
4.83599
 30
0.0
 40
3.93701e-08
 41
3.93701e-08
  0
VERTEX
  8
0
 10
5.27067
 20
4.83599
 30
0.0
 40
3.93701e-08
 41
3.93701e-08
  0
VERTEX
  8
0
 10
5.27083
 20
4.83599
 30
0.0
 40
3.93701e-08
 41
3.93701e-08
  0
VERTEX
  8
0
 10
5.27083
 20
4.83599
 30
0.0
 40
3.93701e-08
 41
3.93701e-08
  0
VERTEX
  8
0
 10
5.27083
 20
4.83599
 30
0.0
 40
3.93701e-08
 41
3.93701e-08
  0
VERTEX
  8
0
 10
5.27083
 20
4.83604
 30
0.0
 40
3.93701e-08
 41
3.93701e-08
  0
VERTEX
  8
0
 10
5.27083
 20
4.83604
 30
0.0
 40
3.93701e-08
 41
3.93701e-08
  0
VERTEX
  8
0
 10
5.27083
 20
4.83604
 30
0.0
 40
3.93701e-08
 41
3.93701e-08
  0
VERTEX
  8
0
 10
5.27078
 20
4.8361
 30
0.0
 40
3.93701e-08
 41
3.93701e-08
  0
VERTEX
  8
0
 10
5.27078
 20
4.8361
 30
0.0
 40
3.93701e-08
 41
3.93701e-08
  0
VERTEX
  8
0
 10
5.27078
 20
4.8361
 30
0.0
 40
3.93701e-08
 41
3.93701e-08
  0
VERTEX
  8
0
 10
5.27061
 20
4.8361
 30
0.0
 40
3.93701e-08
 41
3.93701e-08
  0
VERTEX
  8
0
 10
5.27061
 20
4.8361
 30
0.0
 40
3.93701e-08
 41
3.93701e-08
  0
VERTEX
  8
0
 10
5.27056
 20
4.83615
 30
0.0
 40
3.93701e-08
 41
3.93701e-08
  0
VERTEX
  8
0
 10
5.27051
 20
4.8361
 30
0.0
 40
3.93701e-08
 41
3.93701e-08
  0
VERTEX
  8
0
 10
5.27051
 20
4.8361
 30
0.0
 40
3.93701e-08
 41
3.93701e-08
  0
SEQEND
 8
0
  0
POLYLINE
  8
0
 62
     0
 66
     1
 10
0
 20
0
 30
0.0
 70
     1
 40
0
 41
0
  0
VERTEX
  8
0
 10
5.27051
 20
4.8361
 30
0.0
 40
0
 41
0
  0
VERTEX
  8
0
 10
5.27051
 20
4.8361
 30
0.0
 40
0
 41
0
  0
VERTEX
  8
0
 10
5.27046
 20
4.8361
 30
0.0
 40
0
 41
0
  0
VERTEX
  8
0
 10
5.27046
 20
4.8361
 30
0.0
 40
0
 41
0
  0
VERTEX
  8
0
 10
5.27046
 20
4.8361
 30
0.0
 40
0
 41
0
  0
VERTEX
  8
0
 10
5.27051
 20
4.8361
 30
0.0
 40
0
 41
0
  0
VERTEX
  8
0
 10
5.27051
 20
4.8361
 30
0.0
 40
0
 41
0
  0
VERTEX
  8
0
 10
5.27051
 20
4.8361
 30
0.0
 40
0
 41
0
  0
VERTEX
  8
0
 10
5.27056
 20
4.83604
 30
0.0
 40
0
 41
0
  0
VERTEX
  8
0
 10
5.27056
 20
4.83604
 30
0.0
 40
0
 41
0
  0
VERTEX
  8
0
 10
5.27056
 20
4.83604
 30
0.0
 40
0
 41
0
  0
VERTEX
  8
0
 10
5.27067
 20
4.83599
 30
0.0
 40
0
 41
0
  0
VERTEX
  8
0
 10
5.27067
 20
4.83599
 30
0.0
 40
0
 41
0
  0
VERTEX
  8
0
 10
5.27067
 20
4.83599
 30
0.0
 40
0
 41
0
  0
VERTEX
  8
0
 10
5.27083
 20
4.83599
 30
0.0
 40
0
 41
0
  0
VERTEX
  8
0
 10
5.27083
 20
4.83599
 30
0.0
 40
0
 41
0
  0
VERTEX
  8
0
 10
5.27083
 20
4.83599
 30
0.0
 40
0
 41
0
  0
VERTEX
  8
0
 10
5.27083
 20
4.83604
 30
0.0
 40
0
 41
0
  0
VERTEX
  8
0
 10
5.27083
 20
4.83604
 30
0.0
 40
0
 41
0
  0
VERTEX
  8
0
 10
5.27083
 20
4.83604
 30
0.0
 40
0
 41
0
  0
VERTEX
  8
0
 10
5.27078
 20
4.8361
 30
0.0
 40
0
 41
0
  0
VERTEX
  8
0
 10
5.27078
 20
4.8361
 30
0.0
 40
0
 41
0
  0
VERTEX
  8
0
 10
5.27078
 20
4.8361
 30
0.0
 40
0
 41
0
  0
VERTEX
  8
0
 10
5.27061
 20
4.8361
 30
0.0
 40
0
 41
0
  0
VERTEX
  8
0
 10
5.27061
 20
4.8361
 30
0.0
 40
0
 41
0
  0
VERTEX
  8
0
 10
5.27056
 20
4.83615
 30
0.0
 40
0
 41
0
  0
VERTEX
  8
0
 10
5.27051
 20
4.8361
 30
0.0
 40
0
 41
0
  0
VERTEX
  8
0
 10
5.27051
 20
4.8361
 30
0.0
 40
0
 41
0
  0
SEQEND
 8
0
  0
POLYLINE
  8
0
 62
     0
 66
     1
 10
0
 20
0
 30
0.0
 70
     1
 40
2.83465e-06
 41
2.83465e-06
  0
VERTEX
  8
0
 10
5.27051
 20
4.8361
 30
0.0
 40
3.93701e-08
 41
3.93701e-08
  0
VERTEX
  8
0
 10
5.27051
 20
4.8361
 30
0.0
 40
3.93701e-08
 41
3.93701e-08
  0
VERTEX
  8
0
 10
5.27046
 20
4.8361
 30
0.0
 40
3.93701e-08
 41
3.93701e-08
  0
VERTEX
  8
0
 10
5.27046
 20
4.8361
 30
0.0
 40
3.93701e-08
 41
3.93701e-08
  0
VERTEX
  8
0
 10
5.27046
 20
4.8361
 30
0.0
 40
3.93701e-08
 41
3.93701e-08
  0
VERTEX
  8
0
 10
5.27051
 20
4.8361
 30
0.0
 40
3.93701e-08
 41
3.93701e-08
  0
VERTEX
  8
0
 10
5.27051
 20
4.8361
 30
0.0
 40
3.93701e-08
 41
3.93701e-08
  0
VERTEX
  8
0
 10
5.27051
 20
4.8361
 30
0.0
 40
3.93701e-08
 41
3.93701e-08
  0
VERTEX
  8
0
 10
5.27056
 20
4.83604
 30
0.0
 40
3.93701e-08
 41
3.93701e-08
  0
VERTEX
  8
0
 10
5.27056
 20
4.83604
 30
0.0
 40
3.93701e-08
 41
3.93701e-08
  0
VERTEX
  8
0
 10
5.27056
 20
4.83604
 30
0.0
 40
3.93701e-08
 41
3.93701e-08
  0
VERTEX
  8
0
 10
5.27067
 20
4.83599
 30
0.0
 40
3.93701e-08
 41
3.93701e-08
  0
VERTEX
  8
0
 10
5.27067
 20
4.83599
 30
0.0
 40
3.93701e-08
 41
3.93701e-08
  0
VERTEX
  8
0
 10
5.27067
 20
4.83599
 30
0.0
 40
3.93701e-08
 41
3.93701e-08
  0
VERTEX
  8
0
 10
5.27083
 20
4.83599
 30
0.0
 40
3.93701e-08
 41
3.93701e-08
  0
VERTEX
  8
0
 10
5.27083
 20
4.83599
 30
0.0
 40
3.93701e-08
 41
3.93701e-08
  0
VERTEX
  8
0
 10
5.27083
 20
4.83599
 30
0.0
 40
3.93701e-08
 41
3.93701e-08
  0
VERTEX
  8
0
 10
5.27083
 20
4.83604
 30
0.0
 40
3.93701e-08
 41
3.93701e-08
  0
VERTEX
  8
0
 10
5.27083
 20
4.83604
 30
0.0
 40
3.93701e-08
 41
3.93701e-08
  0
VERTEX
  8
0
 10
5.27083
 20
4.83604
 30
0.0
 40
3.93701e-08
 41
3.93701e-08
  0
VERTEX
  8
0
 10
5.27078
 20
4.8361
 30
0.0
 40
3.93701e-08
 41
3.93701e-08
  0
VERTEX
  8
0
 10
5.27078
 20
4.8361
 30
0.0
 40
3.93701e-08
 41
3.93701e-08
  0
VERTEX
  8
0
 10
5.27078
 20
4.8361
 30
0.0
 40
3.93701e-08
 41
3.93701e-08
  0
VERTEX
  8
0
 10
5.27061
 20
4.8361
 30
0.0
 40
3.93701e-08
 41
3.93701e-08
  0
VERTEX
  8
0
 10
5.27061
 20
4.8361
 30
0.0
 40
3.93701e-08
 41
3.93701e-08
  0
VERTEX
  8
0
 10
5.27056
 20
4.83615
 30
0.0
 40
3.93701e-08
 41
3.93701e-08
  0
VERTEX
  8
0
 10
5.27051
 20
4.8361
 30
0.0
 40
3.93701e-08
 41
3.93701e-08
  0
VERTEX
  8
0
 10
5.27051
 20
4.8361
 30
0.0
 40
3.93701e-08
 41
3.93701e-08
  0
SEQEND
 8
0
  0
POLYLINE
  8
0
 62
     0
 66
     1
 10
0
 20
0
 30
0.0
 70
     1
 40
0
 41
0
  0
VERTEX
  8
0
 10
5.02458
 20
5.16721
 30
0.0
 40
0
 41
0
  0
VERTEX
  8
0
 10
5.01514
 20
5.16721
 30
0.0
 40
0
 41
0
  0
VERTEX
  8
0
 10
4.98699
 20
5.15967
 30
0.0
 40
0
 41
0
  0
VERTEX
  8
0
 10
4.95632
 20
5.139
 30
0.0
 40
0
 41
0
  0
VERTEX
  8
0
 10
4.93565
 20
5.10835
 30
0.0
 40
0
 41
0
  0
VERTEX
  8
0
 10
4.92811
 20
5.08018
 30
0.0
 40
0
 41
0
  0
VERTEX
  8
0
 10
4.92811
 20
5.07075
 30
0.0
 40
0
 41
0
  0
VERTEX
  8
0
 10
4.92811
 20
5.06142
 30
0.0
 40
0
 41
0
  0
VERTEX
  8
0
 10
4.93565
 20
5.03326
 30
0.0
 40
0
 41
0
  0
VERTEX
  8
0
 10
4.95632
 20
5.00261
 30
0.0
 40
0
 41
0
  0
VERTEX
  8
0
 10
4.98699
 20
4.98193
 30
0.0
 40
0
 41
0
  0
VERTEX
  8
0
 10
5.01514
 20
4.97433
 30
0.0
 40
0
 41
0
  0
VERTEX
  8
0
 10
5.02458
 20
4.97433
 30
0.0
 40
0
 41
0
  0
VERTEX
  8
0
 10
5.03396
 20
4.97433
 30
0.0
 40
0
 41
0
  0
VERTEX
  8
0
 10
5.06212
 20
4.98193
 30
0.0
 40
0
 41
0
  0
VERTEX
  8
0
 10
5.09278
 20
5.00261
 30
0.0
 40
0
 41
0
  0
VERTEX
  8
0
 10
5.11344
 20
5.03326
 30
0.0
 40
0
 41
0
  0
VERTEX
  8
0
 10
5.12104
 20
5.06142
 30
0.0
 40
0
 41
0
  0
VERTEX
  8
0
 10
5.12104
 20
5.07075
 30
0.0
 40
0
 41
0
  0
VERTEX
  8
0
 10
5.12104
 20
5.08018
 30
0.0
 40
0
 41
0
  0
VERTEX
  8
0
 10
5.11344
 20
5.10835
 30
0.0
 40
0
 41
0
  0
VERTEX
  8
0
 10
5.09278
 20
5.139
 30
0.0
 40
0
 41
0
  0
VERTEX
  8
0
 10
5.06212
 20
5.15967
 30
0.0
 40
0
 41
0
  0
VERTEX
  8
0
 10
5.03396
 20
5.16721
 30
0.0
 40
0
 41
0
  0
VERTEX
  8
0
 10
5.02458
 20
5.16721
 30
0.0
 40
0
 41
0
  0
SEQEND
 8
0
  0
POLYLINE
  8
0
 62
     0
 66
     1
 10
0
 20
0
 30
0.0
 70
     1
 40
2.83465e-06
 41
2.83465e-06
  0
VERTEX
  8
0
 10
5.02458
 20
5.16721
 30
0.0
 40
3.93701e-08
 41
3.93701e-08
  0
VERTEX
  8
0
 10
5.01514
 20
5.16721
 30
0.0
 40
3.93701e-08
 41
3.93701e-08
  0
VERTEX
  8
0
 10
4.98699
 20
5.15967
 30
0.0
 40
3.93701e-08
 41
3.93701e-08
  0
VERTEX
  8
0
 10
4.95632
 20
5.139
 30
0.0
 40
3.93701e-08
 41
3.93701e-08
  0
VERTEX
  8
0
 10
4.93565
 20
5.10835
 30
0.0
 40
3.93701e-08
 41
3.93701e-08
  0
VERTEX
  8
0
 10
4.92811
 20
5.08018
 30
0.0
 40
3.93701e-08
 41
3.93701e-08
  0
VERTEX
  8
0
 10
4.92811
 20
5.07075
 30
0.0
 40
3.93701e-08
 41
3.93701e-08
  0
VERTEX
  8
0
 10
4.92811
 20
5.06142
 30
0.0
 40
3.93701e-08
 41
3.93701e-08
  0
VERTEX
  8
0
 10
4.93565
 20
5.03326
 30
0.0
 40
3.93701e-08
 41
3.93701e-08
  0
VERTEX
  8
0
 10
4.95632
 20
5.00261
 30
0.0
 40
3.93701e-08
 41
3.93701e-08
  0
VERTEX
  8
0
 10
4.98699
 20
4.98193
 30
0.0
 40
3.93701e-08
 41
3.93701e-08
  0
VERTEX
  8
0
 10
5.01514
 20
4.97433
 30
0.0
 40
3.93701e-08
 41
3.93701e-08
  0
VERTEX
  8
0
 10
5.02458
 20
4.97433
 30
0.0
 40
3.93701e-08
 41
3.93701e-08
  0
VERTEX
  8
0
 10
5.03396
 20
4.97433
 30
0.0
 40
3.93701e-08
 41
3.93701e-08
  0
VERTEX
  8
0
 10
5.06212
 20
4.98193
 30
0.0
 40
3.93701e-08
 41
3.93701e-08
  0
VERTEX
  8
0
 10
5.09278
 20
5.00261
 30
0.0
 40
3.93701e-08
 41
3.93701e-08
  0
VERTEX
  8
0
 10
5.11344
 20
5.03326
 30
0.0
 40
3.93701e-08
 41
3.93701e-08
  0
VERTEX
  8
0
 10
5.12104
 20
5.06142
 30
0.0
 40
3.93701e-08
 41
3.93701e-08
  0
VERTEX
  8
0
 10
5.12104
 20
5.07075
 30
0.0
 40
3.93701e-08
 41
3.93701e-08
  0
VERTEX
  8
0
 10
5.12104
 20
5.08018
 30
0.0
 40
3.93701e-08
 41
3.93701e-08
  0
VERTEX
  8
0
 10
5.11344
 20
5.10835
 30
0.0
 40
3.93701e-08
 41
3.93701e-08
  0
VERTEX
  8
0
 10
5.09278
 20
5.139
 30
0.0
 40
3.93701e-08
 41
3.93701e-08
  0
VERTEX
  8
0
 10
5.06212
 20
5.15967
 30
0.0
 40
3.93701e-08
 41
3.93701e-08
  0
VERTEX
  8
0
 10
5.03396
 20
5.16721
 30
0.0
 40
3.93701e-08
 41
3.93701e-08
  0
VERTEX
  8
0
 10
5.02458
 20
5.16721
 30
0.0
 40
3.93701e-08
 41
3.93701e-08
  0
SEQEND
 8
0
  0
POLYLINE
  8
0
 62
     0
 66
     1
 10
0
 20
0
 30
0.0
 70
     1
 40
0
 41
0
  0
VERTEX
  8
0
 10
6.82167
 20
5.6779
 30
0.0
 40
0
 41
0
  0
VERTEX
  8
0
 10
6.81222
 20
5.6779
 30
0.0
 40
0
 41
0
  0
VERTEX
  8
0
 10
6.78407
 20
5.67036
 30
0.0
 40
0
 41
0
  0
VERTEX
  8
0
 10
6.75342
 20
5.64968
 30
0.0
 40
0
 41
0
  0
VERTEX
  8
0
 10
6.73275
 20
5.61903
 30
0.0
 40
0
 41
0
  0
VERTEX
  8
0
 10
6.72521
 20
5.59088
 30
0.0
 40
0
 41
0
  0
VERTEX
  8
0
 10
6.72521
 20
5.58143
 30
0.0
 40
0
 41
0
  0
VERTEX
  8
0
 10
6.72521
 20
5.57206
 30
0.0
 40
0
 41
0
  0
VERTEX
  8
0
 10
6.73275
 20
5.54389
 30
0.0
 40
0
 41
0
  0
VERTEX
  8
0
 10
6.75342
 20
5.51324
 30
0.0
 40
0
 41
0
  0
VERTEX
  8
0
 10
6.78407
 20
5.49257
 30
0.0
 40
0
 41
0
  0
VERTEX
  8
0
 10
6.81222
 20
5.48497
 30
0.0
 40
0
 41
0
  0
VERTEX
  8
0
 10
6.82167
 20
5.48497
 30
0.0
 40
0
 41
0
  0
VERTEX
  8
0
 10
6.83106
 20
5.48497
 30
0.0
 40
0
 41
0
  0
VERTEX
  8
0
 10
6.85921
 20
5.49257
 30
0.0
 40
0
 41
0
  0
VERTEX
  8
0
 10
6.88986
 20
5.51324
 30
0.0
 40
0
 41
0
  0
VERTEX
  8
0
 10
6.91054
 20
5.54389
 30
0.0
 40
0
 41
0
  0
VERTEX
  8
0
 10
6.91813
 20
5.57206
 30
0.0
 40
0
 41
0
  0
VERTEX
  8
0
 10
6.91813
 20
5.58143
 30
0.0
 40
0
 41
0
  0
VERTEX
  8
0
 10
6.91813
 20
5.59088
 30
0.0
 40
0
 41
0
  0
VERTEX
  8
0
 10
6.91054
 20
5.61903
 30
0.0
 40
0
 41
0
  0
VERTEX
  8
0
 10
6.88986
 20
5.64968
 30
0.0
 40
0
 41
0
  0
VERTEX
  8
0
 10
6.85921
 20
5.67036
 30
0.0
 40
0
 41
0
  0
VERTEX
  8
0
 10
6.83106
 20
5.6779
 30
0.0
 40
0
 41
0
  0
VERTEX
  8
0
 10
6.82167
 20
5.6779
 30
0.0
 40
0
 41
0
  0
SEQEND
 8
0
  0
POLYLINE
  8
0
 62
     0
 66
     1
 10
0
 20
0
 30
0.0
 70
     1
 40
2.83465e-06
 41
2.83465e-06
  0
VERTEX
  8
0
 10
6.82167
 20
5.6779
 30
0.0
 40
3.93701e-08
 41
3.93701e-08
  0
VERTEX
  8
0
 10
6.81222
 20
5.6779
 30
0.0
 40
3.93701e-08
 41
3.93701e-08
  0
VERTEX
  8
0
 10
6.78407
 20
5.67036
 30
0.0
 40
3.93701e-08
 41
3.93701e-08
  0
VERTEX
  8
0
 10
6.75342
 20
5.64968
 30
0.0
 40
3.93701e-08
 41
3.93701e-08
  0
VERTEX
  8
0
 10
6.73275
 20
5.61903
 30
0.0
 40
3.93701e-08
 41
3.93701e-08
  0
VERTEX
  8
0
 10
6.72521
 20
5.59088
 30
0.0
 40
3.93701e-08
 41
3.93701e-08
  0
VERTEX
  8
0
 10
6.72521
 20
5.58143
 30
0.0
 40
3.93701e-08
 41
3.93701e-08
  0
VERTEX
  8
0
 10
6.72521
 20
5.57206
 30
0.0
 40
3.93701e-08
 41
3.93701e-08
  0
VERTEX
  8
0
 10
6.73275
 20
5.54389
 30
0.0
 40
3.93701e-08
 41
3.93701e-08
  0
VERTEX
  8
0
 10
6.75342
 20
5.51324
 30
0.0
 40
3.93701e-08
 41
3.93701e-08
  0
VERTEX
  8
0
 10
6.78407
 20
5.49257
 30
0.0
 40
3.93701e-08
 41
3.93701e-08
  0
VERTEX
  8
0
 10
6.81222
 20
5.48497
 30
0.0
 40
3.93701e-08
 41
3.93701e-08
  0
VERTEX
  8
0
 10
6.82167
 20
5.48497
 30
0.0
 40
3.93701e-08
 41
3.93701e-08
  0
VERTEX
  8
0
 10
6.83106
 20
5.48497
 30
0.0
 40
3.93701e-08
 41
3.93701e-08
  0
VERTEX
  8
0
 10
6.85921
 20
5.49257
 30
0.0
 40
3.93701e-08
 41
3.93701e-08
  0
VERTEX
  8
0
 10
6.88986
 20
5.51324
 30
0.0
 40
3.93701e-08
 41
3.93701e-08
  0
VERTEX
  8
0
 10
6.91054
 20
5.54389
 30
0.0
 40
3.93701e-08
 41
3.93701e-08
  0
VERTEX
  8
0
 10
6.91813
 20
5.57206
 30
0.0
 40
3.93701e-08
 41
3.93701e-08
  0
VERTEX
  8
0
 10
6.91813
 20
5.58143
 30
0.0
 40
3.93701e-08
 41
3.93701e-08
  0
VERTEX
  8
0
 10
6.91813
 20
5.59088
 30
0.0
 40
3.93701e-08
 41
3.93701e-08
  0
VERTEX
  8
0
 10
6.91054
 20
5.61903
 30
0.0
 40
3.93701e-08
 41
3.93701e-08
  0
VERTEX
  8
0
 10
6.88986
 20
5.64968
 30
0.0
 40
3.93701e-08
 41
3.93701e-08
  0
VERTEX
  8
0
 10
6.85921
 20
5.67036
 30
0.0
 40
3.93701e-08
 41
3.93701e-08
  0
VERTEX
  8
0
 10
6.83106
 20
5.6779
 30
0.0
 40
3.93701e-08
 41
3.93701e-08
  0
VERTEX
  8
0
 10
6.82167
 20
5.6779
 30
0.0
 40
3.93701e-08
 41
3.93701e-08
  0
SEQEND
 8
0
  0
POLYLINE
  8
0
 62
     0
 66
     1
 10
0
 20
0
 30
0.0
 70
     1
 40
0
 41
0
  0
VERTEX
  8
0
 10
4.0019
 20
3.78847
 30
0.0
 40
0
 41
0
  0
VERTEX
  8
0
 10
3.99246
 20
3.78847
 30
0.0
 40
0
 41
0
  0
VERTEX
  8
0
 10
3.96431
 20
3.78087
 30
0.0
 40
0
 41
0
  0
VERTEX
  8
0
 10
3.93365
 20
3.76019
 30
0.0
 40
0
 41
0
  0
VERTEX
  8
0
 10
3.91297
 20
3.72954
 30
0.0
 40
0
 41
0
  0
VERTEX
  8
0
 10
3.90543
 20
3.70139
 30
0.0
 40
0
 41
0
  0
VERTEX
  8
0
 10
3.90543
 20
3.692
 30
0.0
 40
0
 41
0
  0
VERTEX
  8
0
 10
3.90543
 20
3.68261
 30
0.0
 40
0
 41
0
  0
VERTEX
  8
0
 10
3.91297
 20
3.65446
 30
0.0
 40
0
 41
0
  0
VERTEX
  8
0
 10
3.93365
 20
3.62381
 30
0.0
 40
0
 41
0
  0
VERTEX
  8
0
 10
3.96431
 20
3.60314
 30
0.0
 40
0
 41
0
  0
VERTEX
  8
0
 10
3.99246
 20
3.59554
 30
0.0
 40
0
 41
0
  0
VERTEX
  8
0
 10
4.0019
 20
3.59554
 30
0.0
 40
0
 41
0
  0
VERTEX
  8
0
 10
4.01129
 20
3.59554
 30
0.0
 40
0
 41
0
  0
VERTEX
  8
0
 10
4.03944
 20
3.60314
 30
0.0
 40
0
 41
0
  0
VERTEX
  8
0
 10
4.0701
 20
3.62381
 30
0.0
 40
0
 41
0
  0
VERTEX
  8
0
 10
4.09076
 20
3.65446
 30
0.0
 40
0
 41
0
  0
VERTEX
  8
0
 10
4.09836
 20
3.68261
 30
0.0
 40
0
 41
0
  0
VERTEX
  8
0
 10
4.09836
 20
3.692
 30
0.0
 40
0
 41
0
  0
VERTEX
  8
0
 10
4.09836
 20
3.70139
 30
0.0
 40
0
 41
0
  0
VERTEX
  8
0
 10
4.09076
 20
3.72954
 30
0.0
 40
0
 41
0
  0
VERTEX
  8
0
 10
4.0701
 20
3.76019
 30
0.0
 40
0
 41
0
  0
VERTEX
  8
0
 10
4.03944
 20
3.78087
 30
0.0
 40
0
 41
0
  0
VERTEX
  8
0
 10
4.01129
 20
3.78847
 30
0.0
 40
0
 41
0
  0
VERTEX
  8
0
 10
4.0019
 20
3.78847
 30
0.0
 40
0
 41
0
  0
SEQEND
 8
0
  0
POLYLINE
  8
0
 62
     0
 66
     1
 10
0
 20
0
 30
0.0
 70
     1
 40
2.83465e-06
 41
2.83465e-06
  0
VERTEX
  8
0
 10
4.0019
 20
3.78847
 30
0.0
 40
3.93701e-08
 41
3.93701e-08
  0
VERTEX
  8
0
 10
3.99246
 20
3.78847
 30
0.0
 40
3.93701e-08
 41
3.93701e-08
  0
VERTEX
  8
0
 10
3.96431
 20
3.78087
 30
0.0
 40
3.93701e-08
 41
3.93701e-08
  0
VERTEX
  8
0
 10
3.93365
 20
3.76019
 30
0.0
 40
3.93701e-08
 41
3.93701e-08
  0
VERTEX
  8
0
 10
3.91297
 20
3.72954
 30
0.0
 40
3.93701e-08
 41
3.93701e-08
  0
VERTEX
  8
0
 10
3.90543
 20
3.70139
 30
0.0
 40
3.93701e-08
 41
3.93701e-08
  0
VERTEX
  8
0
 10
3.90543
 20
3.692
 30
0.0
 40
3.93701e-08
 41
3.93701e-08
  0
VERTEX
  8
0
 10
3.90543
 20
3.68261
 30
0.0
 40
3.93701e-08
 41
3.93701e-08
  0
VERTEX
  8
0
 10
3.91297
 20
3.65446
 30
0.0
 40
3.93701e-08
 41
3.93701e-08
  0
VERTEX
  8
0
 10
3.93365
 20
3.62381
 30
0.0
 40
3.93701e-08
 41
3.93701e-08
  0
VERTEX
  8
0
 10
3.96431
 20
3.60314
 30
0.0
 40
3.93701e-08
 41
3.93701e-08
  0
VERTEX
  8
0
 10
3.99246
 20
3.59554
 30
0.0
 40
3.93701e-08
 41
3.93701e-08
  0
VERTEX
  8
0
 10
4.0019
 20
3.59554
 30
0.0
 40
3.93701e-08
 41
3.93701e-08
  0
VERTEX
  8
0
 10
4.01129
 20
3.59554
 30
0.0
 40
3.93701e-08
 41
3.93701e-08
  0
VERTEX
  8
0
 10
4.03944
 20
3.60314
 30
0.0
 40
3.93701e-08
 41
3.93701e-08
  0
VERTEX
  8
0
 10
4.0701
 20
3.62381
 30
0.0
 40
3.93701e-08
 41
3.93701e-08
  0
VERTEX
  8
0
 10
4.09076
 20
3.65446
 30
0.0
 40
3.93701e-08
 41
3.93701e-08
  0
VERTEX
  8
0
 10
4.09836
 20
3.68261
 30
0.0
 40
3.93701e-08
 41
3.93701e-08
  0
VERTEX
  8
0
 10
4.09836
 20
3.692
 30
0.0
 40
3.93701e-08
 41
3.93701e-08
  0
VERTEX
  8
0
 10
4.09836
 20
3.70139
 30
0.0
 40
3.93701e-08
 41
3.93701e-08
  0
VERTEX
  8
0
 10
4.09076
 20
3.72954
 30
0.0
 40
3.93701e-08
 41
3.93701e-08
  0
VERTEX
  8
0
 10
4.0701
 20
3.76019
 30
0.0
 40
3.93701e-08
 41
3.93701e-08
  0
VERTEX
  8
0
 10
4.03944
 20
3.78087
 30
0.0
 40
3.93701e-08
 41
3.93701e-08
  0
VERTEX
  8
0
 10
4.01129
 20
3.78847
 30
0.0
 40
3.93701e-08
 41
3.93701e-08
  0
VERTEX
  8
0
 10
4.0019
 20
3.78847
 30
0.0
 40
3.93701e-08
 41
3.93701e-08
  0
SEQEND
 8
0
  0
ENDSEC
  0
EOF
