M48
; DRILL file {KiCad (6.0.2)} date qui 03 mar 2022 13:33:56
; FORMAT={-:-/ absolute / metric / decimal}
; #@! TF.CreationDate,2022-03-03T13:33:56+00:00
; #@! TF.GenerationSoftware,Kicad,Pcbnew,(6.0.2)
; #@! TF.FileFunction,NonPlated,1,2,NPTH
FMAT,2
METRIC
; #@! TA.AperFunction,NonPlated,NPTH,ComponentDrill
T1C0.100
; #@! TA.AperFunction,NonPlated,NPTH,ComponentDrill
T2C1.200
; #@! TA.AperFunction,NonPlated,NPTH,ComponentDrill
T3C1.700
; #@! TA.AperFunction,NonPlated,NPTH,ComponentDrill
T4C1.900
; #@! TA.AperFunction,NonPlated,NPTH,ComponentDrill
T5C3.000
; #@! TA.AperFunction,NonPlated,NPTH,ComponentDrill
T6C4.000
%
G90
G05
T1
X90.392Y-123.298
X97.815Y-121.447
X108.947Y-118.574
X116.369Y-116.723
X124.712Y-93.53
X124.744Y-74.344
X124.758Y-55.257
X132.362Y-93.53
X132.394Y-74.344
X132.408Y-55.257
X133.191Y-116.142
X140.725Y-117.471
X143.851Y-51.21
X143.854Y-70.199
X143.871Y-89.236
X151.501Y-51.21
X151.504Y-70.199
X151.521Y-89.236
X165.256Y-77.964
X168.349Y-59.068
X171.648Y-40.357
X172.766Y-79.424
X175.883Y-60.396
X179.182Y-41.685
X181.438Y-94.532
X187.936Y-76.689
X188.627Y-97.148
X194.433Y-58.846
X195.124Y-79.306
X198.506Y-110.929
X201.621Y-61.463
X203.723Y-116.524
X212.409Y-97.944
X217.626Y-103.539
X226.311Y-84.959
X231.528Y-90.554
T2
X103.187Y-90.226
X103.187Y-91.976
X110.187Y-90.226
X110.187Y-91.976
T3
X89.799Y-126.105
X99.657Y-123.647
X108.353Y-121.381
X118.211Y-118.923
X123.457Y-96.11
X123.489Y-76.924
X123.503Y-57.837
X131.507Y-118.465
X133.617Y-96.11
X133.649Y-76.924
X133.663Y-57.837
X141.513Y-120.23
X142.596Y-53.79
X142.599Y-72.779
X142.616Y-91.816
X152.756Y-53.79
X152.759Y-72.779
X152.776Y-91.816
X163.532Y-80.257
X166.665Y-61.391
X169.964Y-42.679
X173.505Y-82.196
X176.67Y-63.155
X179.377Y-96.527
X179.97Y-44.444
X185.874Y-78.684
X188.924Y-100.002
X192.371Y-60.841
X195.421Y-82.159
X195.763Y-111.771
X201.918Y-64.316
X202.692Y-119.202
X209.666Y-98.786
X216.595Y-106.216
X223.568Y-85.801
X230.497Y-93.231
T4
X89.391Y-126.207
X100.064Y-123.545
X107.946Y-121.482
X118.619Y-118.821
X123.037Y-96.11
X123.069Y-76.924
X123.083Y-57.837
X131.094Y-118.392
X134.037Y-96.11
X134.069Y-76.924
X134.083Y-57.837
X141.927Y-120.303
X142.176Y-53.79
X142.179Y-72.779
X142.196Y-91.816
X153.176Y-53.79
X153.179Y-72.779
X153.196Y-91.816
X163.12Y-80.177
X166.251Y-61.318
X169.55Y-42.606
X173.918Y-82.276
X177.084Y-63.228
X178.982Y-96.383
X180.383Y-44.517
X185.479Y-78.541
X189.319Y-100.146
X191.976Y-60.698
X195.477Y-111.464
X195.816Y-82.303
X202.313Y-64.46
X202.979Y-119.509
X209.379Y-98.479
X216.881Y-106.524
X223.282Y-85.494
X230.784Y-93.539
T5
X90.416Y-123.333
X90.771Y-129.676
X91.034Y-120.561
X95.963Y-119.332
X96.155Y-130.601
X97.81Y-121.49
X97.81Y-121.49
X100.474Y-127.257
X108.971Y-118.609
X109.326Y-124.951
X109.589Y-115.837
X114.518Y-114.608
X114.71Y-125.876
X116.365Y-116.765
X116.365Y-116.765
X119.029Y-122.532
X123.537Y-99.81
X123.569Y-80.624
X123.583Y-61.537
X124.727Y-93.57
X124.759Y-74.384
X124.773Y-55.297
X125.997Y-91.03
X126.029Y-71.844
X126.043Y-52.757
X128.537Y-102.01
X128.569Y-82.824
X128.583Y-63.737
X130.944Y-122.123
X131.077Y-91.03
X131.109Y-71.844
X131.123Y-52.757
X132.347Y-93.57
X132.347Y-93.57
X132.379Y-74.384
X132.379Y-74.384
X132.393Y-55.297
X132.393Y-55.297
X133.199Y-116.184
X133.537Y-99.81
X133.569Y-80.624
X133.583Y-61.537
X134.891Y-113.904
X135.486Y-125.158
X139.894Y-114.786
X140.703Y-117.508
X140.703Y-117.508
X140.792Y-123.859
X142.676Y-57.49
X142.679Y-76.479
X142.696Y-95.516
X143.866Y-51.25
X143.869Y-70.239
X143.886Y-89.276
X145.136Y-48.71
X145.139Y-67.699
X145.156Y-86.736
X147.676Y-59.69
X147.679Y-78.679
X147.696Y-97.716
X150.216Y-48.71
X150.219Y-67.699
X150.236Y-86.736
X151.486Y-51.25
X151.486Y-51.25
X151.489Y-70.239
X151.489Y-70.239
X151.506Y-89.276
X151.506Y-89.276
X152.676Y-57.49
X152.679Y-76.479
X152.696Y-95.516
X162.905Y-83.904
X165.263Y-78.006
X166.101Y-65.048
X166.995Y-75.755
X167.393Y-87.018
X168.357Y-59.11
X169.4Y-46.337
X170.048Y-56.829
X170.643Y-68.083
X171.656Y-40.399
X171.981Y-76.724
X172.721Y-85.813
X172.743Y-79.46
X172.743Y-79.46
X173.348Y-38.118
X173.942Y-49.372
X175.051Y-57.711
X175.861Y-60.433
X175.861Y-60.433
X175.949Y-66.785
X178.186Y-100.031
X178.35Y-39.0
X179.16Y-41.722
X179.16Y-41.722
X179.248Y-48.074
X181.439Y-94.575
X182.132Y-103.809
X183.501Y-92.622
X184.684Y-82.188
X187.583Y-103.452
X187.936Y-76.732
X188.275Y-94.36
X188.599Y-97.181
X188.599Y-97.181
X188.63Y-85.966
X189.998Y-74.779
X191.181Y-64.346
X193.112Y-114.353
X194.08Y-85.609
X194.433Y-58.889
X194.772Y-76.517
X194.913Y-119.51
X195.096Y-79.338
X195.096Y-79.338
X195.127Y-68.123
X196.495Y-56.936
X198.487Y-110.968
X199.932Y-121.666
X200.578Y-67.766
X201.211Y-110.164
X201.269Y-58.674
X201.594Y-61.495
X201.594Y-61.495
X203.684Y-116.54
X203.684Y-116.54
X204.675Y-113.879
X207.014Y-101.368
X208.815Y-106.525
X212.39Y-97.982
X213.834Y-108.681
X215.113Y-97.179
X217.586Y-103.555
X217.586Y-103.555
X218.578Y-100.894
X220.917Y-88.383
X222.718Y-93.54
X226.292Y-84.997
X227.737Y-95.696
X229.016Y-84.194
X231.489Y-90.57
X231.489Y-90.57
X232.48Y-87.909
T6
X94.728Y-124.876
X113.282Y-120.152
X128.537Y-96.11
X128.569Y-76.924
X128.583Y-57.837
X136.51Y-119.347
X147.676Y-53.79
X147.679Y-72.779
X147.696Y-91.816
X168.519Y-81.226
X171.668Y-62.273
X174.967Y-43.562
X184.15Y-98.265
X190.647Y-80.422
X197.145Y-62.579
X199.228Y-115.486
X213.13Y-102.501
X227.033Y-89.516
T0
M30
