M48
; DRILL file {KiCad (6.0.2)} date qui 03 mar 2022 13:33:56
; FORMAT={-:-/ absolute / metric / decimal}
; #@! TF.CreationDate,2022-03-03T13:33:56+00:00
; #@! TF.GenerationSoftware,Kicad,Pcbnew,(6.0.2)
; #@! TF.FileFunction,Plated,1,2,PTH
FMAT,2
METRIC
; #@! TA.AperFunction,Plated,PTH,ViaDrill
T1C0.300
; #@! TA.AperFunction,Plated,PTH,ComponentDrill
T2C0.300
; #@! TA.AperFunction,Plated,PTH,ComponentDrill
T3C0.400
; #@! TA.AperFunction,Plated,PTH,ComponentDrill
T4C0.813
; #@! TA.AperFunction,Plated,PTH,ComponentDrill
T5C1.000
; #@! TA.AperFunction,Plated,PTH,ComponentDrill
T6C1.300
; #@! TA.AperFunction,Plated,PTH,ComponentDrill
T7C4.700
%
G90
G05
T1
X85.581Y-122.543
X96.306Y-113.721
X97.981Y-127.543
X102.357Y-118.743
X102.881Y-124.343
X103.981Y-117.643
X104.181Y-57.043
X104.981Y-87.043
X106.481Y-96.543
X106.481Y-60.743
X106.581Y-111.043
X107.981Y-86.943
X107.981Y-62.043
X108.981Y-63.543
X111.981Y-86.943
X114.581Y-56.943
X114.681Y-64.643
X114.681Y-77.343
X114.781Y-67.143
X114.781Y-69.743
X114.781Y-72.243
X114.781Y-82.343
X114.881Y-79.843
X114.881Y-74.743
X114.981Y-54.643
X116.381Y-122.543
X116.481Y-107.843
X119.481Y-91.643
X119.681Y-53.643
X119.981Y-72.843
X120.681Y-113.743
X122.081Y-119.443
X128.581Y-113.443
X129.981Y-61.143
X130.73Y-80.54
X130.881Y-99.643
X136.381Y-107.143
X136.481Y-59.343
X136.581Y-78.543
X136.581Y-97.643
X136.781Y-53.443
X136.981Y-91.743
X137.081Y-72.043
X138.181Y-123.043
X138.181Y-50.243
X139.579Y-86.641
X139.881Y-67.643
X144.381Y-122.143
X145.681Y-115.843
X149.481Y-57.343
X149.995Y-76.255
X150.181Y-95.243
X155.281Y-74.443
X155.781Y-55.443
X156.181Y-87.143
X156.181Y-49.643
X156.181Y-68.343
X156.281Y-93.643
X159.481Y-45.043
X161.255Y-74.389
X163.881Y-56.443
X165.281Y-105.443
X167.25Y-49.836
X167.481Y-37.443
X169.44Y-85.092
X173.004Y-66.154
X175.749Y-84.387
X176.189Y-47.625
X177.681Y-77.843
X178.092Y-90.01
X178.981Y-65.543
X180.881Y-59.243
X182.281Y-46.543
X184.081Y-40.343
X184.469Y-72.782
X185.064Y-102.636
X190.581Y-55.243
X191.281Y-103.043
X191.615Y-84.375
X193.581Y-96.443
X197.281Y-105.543
X197.781Y-84.743
X197.781Y-119.643
X198.437Y-67.182
X200.281Y-79.043
X203.681Y-122.343
X203.959Y-66.978
X206.781Y-60.743
X208.381Y-118.443
X211.09Y-92.652
X212.281Y-106.343
X217.881Y-109.643
X222.681Y-105.343
X224.881Y-79.943
X225.981Y-93.343
X231.381Y-96.443
X236.381Y-92.343
T3
X90.988Y-116.986
X94.287Y-116.163
X109.478Y-112.326
X112.777Y-111.503
X124.871Y-106.108
X124.999Y-67.95
X127.116Y-87.617
X128.271Y-106.108
X128.399Y-67.95
X130.516Y-87.617
X136.622Y-110.723
X139.97Y-111.314
X146.379Y-63.597
X146.463Y-82.702
X146.779Y-101.644
X149.779Y-63.597
X149.863Y-82.702
X150.179Y-101.644
X165.386Y-90.41
X166.273Y-51.98
X168.274Y-71.727
X168.735Y-91.0
X169.621Y-52.57
X171.623Y-72.318
X178.979Y-106.794
X182.153Y-108.013
X185.476Y-88.952
X188.65Y-90.17
X190.707Y-120.647
X191.498Y-70.923
X192.982Y-123.174
X194.672Y-72.142
X204.572Y-107.781
X206.891Y-110.267
X218.708Y-94.988
X221.026Y-97.475
T4
X101.199Y-54.448
X101.199Y-56.988
X101.199Y-59.528
X101.199Y-62.068
X101.199Y-64.608
X101.199Y-67.148
X101.199Y-69.688
X101.199Y-72.228
X101.199Y-74.768
X101.199Y-77.308
X101.199Y-79.848
X101.199Y-82.388
X102.498Y-55.644
X102.498Y-58.184
X102.498Y-60.724
X102.498Y-63.264
X102.498Y-65.804
X102.498Y-68.344
X102.498Y-70.884
X102.498Y-73.424
X102.498Y-75.964
X102.498Y-78.504
X102.498Y-81.044
X102.498Y-83.584
X116.439Y-54.448
X116.439Y-56.988
X116.439Y-59.528
X116.439Y-62.068
X116.439Y-64.608
X116.439Y-67.148
X116.439Y-69.688
X116.439Y-72.228
X116.439Y-74.768
X116.439Y-77.308
X116.439Y-79.848
X116.439Y-82.388
X117.738Y-55.644
X117.738Y-58.184
X117.738Y-60.724
X117.738Y-63.264
X117.738Y-65.804
X117.738Y-68.344
X117.738Y-70.884
X117.738Y-73.424
X117.738Y-75.964
X117.738Y-78.504
X117.738Y-81.044
X117.738Y-83.584
T5
X87.631Y-117.825
X97.49Y-115.367
X106.122Y-113.165
X115.98Y-110.707
X121.411Y-106.11
X121.539Y-67.953
X123.656Y-87.619
X131.571Y-106.11
X131.699Y-67.953
X133.214Y-110.125
X133.816Y-87.619
X142.919Y-63.599
X143.003Y-82.704
X143.22Y-111.889
X143.319Y-101.647
X153.079Y-63.599
X153.163Y-82.704
X153.479Y-101.647
X161.978Y-89.811
X162.865Y-51.381
X164.866Y-71.129
X171.984Y-91.576
X172.871Y-53.146
X174.872Y-72.893
X175.748Y-105.557
X182.245Y-87.714
X185.233Y-109.198
X188.267Y-69.686
X188.39Y-118.077
X191.73Y-91.355
X195.188Y-125.628
X197.752Y-73.327
X202.21Y-105.252
X209.14Y-112.683
X216.346Y-92.459
X223.275Y-99.89
T6
X101.516Y-97.526
X101.516Y-104.026
T7
X110.559Y-102.472
X136.535Y-67.451
X165.881Y-123.543
X182.181Y-54.48
X213.557Y-74.635
T2
X104.337Y-88.126G85X105.637Y-88.126
G05
X104.337Y-94.076G85X105.637Y-94.076
G05
X107.337Y-88.126G85X108.637Y-88.126
G05
X107.337Y-94.076G85X108.637Y-94.076
G05
X111.337Y-88.126G85X112.637Y-88.126
G05
X111.337Y-94.076G85X112.637Y-94.076
G05
X112.837Y-89.876G85X114.137Y-89.876
G05
X112.837Y-92.326G85X114.137Y-92.326
G05
T0
M30
