%TF.GenerationSoftware,KiCad,Pcbnew,(6.0.2)*%
%TF.CreationDate,2022-03-03T13:29:25+00:00*%
%TF.ProjectId,yggdrasil,79676764-7261-4736-996c-2e6b69636164,1.0.0*%
%TF.SameCoordinates,Original*%
%TF.FileFunction,Soldermask,Top*%
%TF.FilePolarity,Negative*%
%FSLAX46Y46*%
G04 Gerber Fmt 4.6, Leading zero omitted, Abs format (unit mm)*
G04 Created by KiCad (PCBNEW (6.0.2)) date 2022-03-03 13:29:25*
%MOMM*%
%LPD*%
G01*
G04 APERTURE LIST*
G04 Aperture macros list*
%AMRotRect*
0 Rectangle, with rotation*
0 The origin of the aperture is its center*
0 $1 length*
0 $2 width*
0 $3 Rotation angle, in degrees counterclockwise*
0 Add horizontal line*
21,1,$1,$2,0,0,$3*%
G04 Aperture macros list end*
%ADD10C,3.000000*%
%ADD11C,1.700000*%
%ADD12C,4.000000*%
%ADD13C,0.100000*%
%ADD14C,1.900000*%
%ADD15RotRect,2.000000X2.000000X160.000000*%
%ADD16RotRect,2.400000X2.400000X160.000000*%
%ADD17RotRect,0.700000X1.500000X340.000000*%
%ADD18RotRect,2.500000X2.500000X160.000000*%
%ADD19RotRect,1.800000X2.000000X160.000000*%
%ADD20R,1.998980X1.998980*%
%ADD21R,1.800000X1.500000*%
%ADD22C,1.998980*%
%ADD23RotRect,1.800000X1.500000X194.000000*%
%ADD24RotRect,1.998980X1.998980X14.000000*%
%ADD25RotRect,2.000000X2.000000X133.000000*%
%ADD26RotRect,2.400000X2.400000X133.000000*%
%ADD27RotRect,0.700000X1.500000X313.000000*%
%ADD28RotRect,1.800000X2.000000X133.000000*%
%ADD29RotRect,2.500000X2.500000X133.000000*%
%ADD30C,4.900000*%
%ADD31RotRect,1.998980X1.998980X339.000000*%
%ADD32RotRect,1.800000X1.500000X159.000000*%
%ADD33RotRect,1.800000X1.500000X170.000000*%
%ADD34RotRect,1.998980X1.998980X350.000000*%
%ADD35RotRect,2.400000X2.400000X170.000000*%
%ADD36RotRect,2.000000X2.000000X170.000000*%
%ADD37RotRect,0.700000X1.500000X350.000000*%
%ADD38RotRect,1.800000X2.000000X170.000000*%
%ADD39RotRect,2.500000X2.500000X170.000000*%
%ADD40R,0.700000X1.500000*%
%ADD41R,2.400000X2.400000*%
%ADD42R,2.000000X2.000000*%
%ADD43R,2.500000X2.500000*%
%ADD44R,1.800000X2.000000*%
%ADD45RotRect,1.800000X1.500000X133.000000*%
%ADD46RotRect,1.998980X1.998980X313.000000*%
%ADD47RotRect,2.400000X2.400000X194.000000*%
%ADD48RotRect,0.700000X1.500000X14.000000*%
%ADD49RotRect,2.000000X2.000000X194.000000*%
%ADD50RotRect,1.800000X2.000000X194.000000*%
%ADD51RotRect,2.500000X2.500000X194.000000*%
%ADD52C,1.524000*%
%ADD53C,1.200000*%
%ADD54R,2.100000X1.000000*%
%ADD55C,2.000000*%
%ADD56RotRect,0.700000X1.500000X349.000000*%
%ADD57RotRect,2.000000X2.000000X169.000000*%
%ADD58RotRect,2.400000X2.400000X169.000000*%
%ADD59RotRect,2.500000X2.500000X169.000000*%
%ADD60RotRect,1.800000X2.000000X169.000000*%
%ADD61RotRect,1.800000X1.500000X132.000000*%
%ADD62RotRect,1.998980X1.998980X312.000000*%
G04 APERTURE END LIST*
D10*
%TO.C,SW14*%
X178186453Y-100031313D03*
X188599350Y-97180828D03*
D11*
X188924029Y-100002013D03*
D10*
X183501033Y-92622181D03*
D12*
X184150390Y-98264551D03*
D13*
X181438478Y-94531917D03*
D10*
X181438893Y-94574634D03*
X188599350Y-97180828D03*
D14*
X178982081Y-96383440D03*
D10*
X182132472Y-103808737D03*
X188274672Y-94359643D03*
X187583379Y-103451514D03*
D13*
X188627127Y-97148371D03*
D11*
X179376752Y-96527088D03*
D14*
X189318700Y-100145662D03*
D15*
X190496426Y-104511777D03*
D16*
X180531605Y-91541397D03*
D17*
X179128906Y-91009573D03*
D18*
X191503001Y-98237670D03*
D19*
X179501332Y-102851081D03*
D17*
X192992828Y-98822490D03*
%TD*%
D20*
%TO.C,D1*%
X131698559Y-67952904D03*
D21*
X128398559Y-67950364D03*
D22*
X121538559Y-67952904D03*
D21*
X124998559Y-67950364D03*
%TD*%
D23*
%TO.C,D16*%
X94287112Y-116163179D03*
D24*
X97489702Y-115367301D03*
D22*
X87631498Y-117825228D03*
D23*
X90988106Y-116985713D03*
%TD*%
D12*
%TO.C,SW10*%
X213130375Y-102501191D03*
D10*
X212389600Y-97982457D03*
D13*
X212408624Y-97944207D03*
D10*
X207014374Y-101367816D03*
D11*
X209665823Y-98785914D03*
D10*
X213834358Y-108681353D03*
X217586427Y-103555373D03*
D14*
X216881366Y-106523636D03*
D13*
X217625911Y-103539063D03*
D14*
X209379384Y-98478745D03*
D10*
X208815388Y-106524981D03*
X215113376Y-97179001D03*
X218577927Y-100894277D03*
D11*
X216594926Y-106216468D03*
D10*
X217586427Y-103555373D03*
D25*
X215948553Y-110948550D03*
D26*
X212958261Y-94867923D03*
D27*
X211949890Y-93757252D03*
X220755745Y-107012701D03*
D28*
X206905792Y-104477191D03*
D29*
X219693802Y-105815255D03*
%TD*%
D10*
%TO.C,SW15*%
X193111902Y-114352870D03*
D12*
X199227903Y-115486245D03*
D13*
X198506152Y-110929261D03*
D10*
X204675455Y-113879331D03*
X194912916Y-119510035D03*
D14*
X202978894Y-119508690D03*
D13*
X203723439Y-116524117D03*
D11*
X195763351Y-111770968D03*
X202692454Y-119201522D03*
D10*
X203683955Y-116540427D03*
X199931886Y-121666407D03*
X201210904Y-110164055D03*
X203683955Y-116540427D03*
X198487128Y-110967511D03*
D14*
X195476912Y-111463799D03*
D25*
X202046081Y-123933604D03*
D27*
X198047418Y-106742306D03*
D26*
X199055789Y-107852977D03*
D27*
X206853273Y-119997755D03*
D29*
X205791330Y-118800309D03*
D28*
X193003320Y-117462245D03*
%TD*%
D30*
%TO.C,TH7*%
X165881040Y-123543343D03*
%TD*%
D31*
%TO.C,D4*%
X197752038Y-73326888D03*
D32*
X194672133Y-72141903D03*
D22*
X188266861Y-69685870D03*
D32*
X191497959Y-70923451D03*
%TD*%
D33*
%TO.C,D3*%
X169621385Y-52570173D03*
D34*
X172870810Y-53145713D03*
D22*
X162865163Y-51381448D03*
D33*
X166273039Y-51979769D03*
%TD*%
D20*
%TO.C,D2*%
X153079339Y-63599500D03*
D21*
X149779339Y-63596960D03*
D22*
X142919339Y-63599500D03*
D21*
X146379339Y-63596960D03*
%TD*%
D31*
%TO.C,D14*%
X185232908Y-109197926D03*
D32*
X182153003Y-108012941D03*
X178978829Y-106794489D03*
D22*
X175747731Y-105556908D03*
%TD*%
D10*
%TO.C,SW3*%
X179160114Y-41721751D03*
X171655879Y-40398550D03*
D11*
X179969754Y-44443695D03*
D13*
X171648053Y-40356554D03*
D12*
X174966930Y-43561563D03*
D10*
X173347651Y-38117673D03*
X179248471Y-48073592D03*
D11*
X169964107Y-42679430D03*
D13*
X179181832Y-41684963D03*
D10*
X179160114Y-41721751D03*
X169400393Y-46337110D03*
X178350475Y-38999806D03*
D14*
X180383373Y-44516628D03*
D10*
X173942406Y-49371928D03*
D14*
X169550488Y-42606498D03*
D35*
X170235659Y-37568945D03*
D36*
X182301375Y-48611902D03*
D37*
X168761920Y-37288776D03*
D38*
X171184944Y-48885714D03*
D39*
X182203170Y-42258322D03*
D37*
X183771917Y-42575553D03*
%TD*%
D10*
%TO.C,SW6*%
X126028720Y-71843944D03*
X124758720Y-74383943D03*
D14*
X123068720Y-76923944D03*
D13*
X132393720Y-74343944D03*
D11*
X123488720Y-76923944D03*
D13*
X124743720Y-74343944D03*
D10*
X123568720Y-80623944D03*
D12*
X128568720Y-76923944D03*
D10*
X133568720Y-80623944D03*
D11*
X133648720Y-76923944D03*
D14*
X134068720Y-76923944D03*
D10*
X132378720Y-74383944D03*
X131108720Y-71843944D03*
X128568720Y-82823944D03*
X132378720Y-74383944D03*
D40*
X121368720Y-71823944D03*
D41*
X122868720Y-71843944D03*
D42*
X136668720Y-80623944D03*
D43*
X135468720Y-74383943D03*
D44*
X125768720Y-82823944D03*
D40*
X137068720Y-74423944D03*
%TD*%
D24*
%TO.C,D17*%
X115979807Y-110707284D03*
D23*
X112777217Y-111503162D03*
X109478211Y-112325696D03*
D22*
X106121603Y-113165211D03*
%TD*%
D45*
%TO.C,D5*%
X221026436Y-97474530D03*
D46*
X223275173Y-99889730D03*
D22*
X216346070Y-92459176D03*
D45*
X218707642Y-94987928D03*
%TD*%
D10*
%TO.C,SW16*%
X97810150Y-121489756D03*
D14*
X100064432Y-123545459D03*
D12*
X94727805Y-124876029D03*
D13*
X97815028Y-121447315D03*
D10*
X90771438Y-129675733D03*
D14*
X89391179Y-126206600D03*
D10*
X97810150Y-121489756D03*
D13*
X90392265Y-123298017D03*
D11*
X89798703Y-126104992D03*
D10*
X96155144Y-130600774D03*
D11*
X99656907Y-123647066D03*
D10*
X90416497Y-123333199D03*
X100474395Y-127256514D03*
X95963393Y-119332445D03*
X91034291Y-120561408D03*
D47*
X87968156Y-121325882D03*
D48*
X86507874Y-121669359D03*
D49*
X103482312Y-126506556D03*
D50*
X93438316Y-131278155D03*
D48*
X102370514Y-120393954D03*
D51*
X100808364Y-120742216D03*
%TD*%
D52*
%TO.C,U1*%
X101199438Y-54448296D03*
X117738253Y-55644041D03*
X117738253Y-58184041D03*
X101199438Y-56988296D03*
X117738253Y-60724041D03*
X101199438Y-59528296D03*
X117738253Y-63264041D03*
X101199438Y-62068296D03*
X117738253Y-65804041D03*
X101199438Y-64608296D03*
X117738253Y-68344041D03*
X101199438Y-67148296D03*
X101199438Y-69688296D03*
X117738253Y-70884041D03*
X117738253Y-73424041D03*
X101199438Y-72228296D03*
X101199438Y-74768296D03*
X117738253Y-75964041D03*
X117738253Y-78504041D03*
X101199438Y-77308296D03*
X117738253Y-81044041D03*
X101199438Y-79848296D03*
X117738253Y-83584041D03*
X101199438Y-82388296D03*
X116439438Y-82388296D03*
X102498253Y-83584041D03*
X102498253Y-81044041D03*
X116439438Y-79848296D03*
X116439438Y-77308296D03*
X102498253Y-78504041D03*
X102498253Y-75964041D03*
X116439438Y-74768296D03*
X116439438Y-72228296D03*
X102498253Y-73424041D03*
X102498253Y-70884041D03*
X116439438Y-69688296D03*
X102498253Y-68344041D03*
X116439438Y-67148296D03*
X102498253Y-65804041D03*
X116439438Y-64608296D03*
X102498253Y-63264041D03*
X116439438Y-62068296D03*
X116439438Y-59528296D03*
X102498253Y-60724041D03*
X116439438Y-56988296D03*
X102498253Y-58184041D03*
X116439438Y-54448296D03*
X102498253Y-55644041D03*
%TD*%
D30*
%TO.C,TH3*%
X213557390Y-74634797D03*
%TD*%
D10*
%TO.C,SW7*%
X152678734Y-76479398D03*
X143868734Y-70239397D03*
X151488734Y-70239398D03*
D11*
X152758734Y-72779398D03*
X142598734Y-72779398D03*
D10*
X142678734Y-76479398D03*
D14*
X153178734Y-72779398D03*
D10*
X147678734Y-78679398D03*
X151488734Y-70239398D03*
X145138734Y-67699398D03*
D14*
X142178734Y-72779398D03*
D12*
X147678734Y-72779398D03*
D10*
X150218734Y-67699398D03*
D13*
X151503734Y-70199398D03*
X143853734Y-70199398D03*
D41*
X141978734Y-67699398D03*
D40*
X140478734Y-67679398D03*
D42*
X155778734Y-76479398D03*
D44*
X144878734Y-78679398D03*
D40*
X156178734Y-70279398D03*
D43*
X154578734Y-70239397D03*
%TD*%
D21*
%TO.C,D11*%
X128270630Y-106107852D03*
D20*
X131570630Y-106110392D03*
D22*
X121410630Y-106110392D03*
D21*
X124870630Y-106107852D03*
%TD*%
D34*
%TO.C,D8*%
X174872097Y-72893254D03*
D33*
X171622672Y-72317714D03*
D22*
X164866450Y-71128989D03*
D33*
X168274326Y-71727310D03*
%TD*%
D11*
%TO.C,SW17*%
X108353086Y-121380662D03*
D10*
X116364533Y-116765426D03*
X109588674Y-115837078D03*
D11*
X118211290Y-118922736D03*
D10*
X119028778Y-122532184D03*
X114709527Y-125876444D03*
X116364533Y-116765426D03*
X108970880Y-118608869D03*
D14*
X107945562Y-121482270D03*
D13*
X108946648Y-118573687D03*
D12*
X113282188Y-120151699D03*
D10*
X109325821Y-124951403D03*
D14*
X118618815Y-118821129D03*
D10*
X114517776Y-114608115D03*
D13*
X116369411Y-116722985D03*
D49*
X122036695Y-121782226D03*
D48*
X105062257Y-116945029D03*
D47*
X106522539Y-116601552D03*
D48*
X120924897Y-115669624D03*
D51*
X119362747Y-116017886D03*
D50*
X111992699Y-126553825D03*
%TD*%
D10*
%TO.C,SW8*%
X175860794Y-60433094D03*
D14*
X166251168Y-61317841D03*
D11*
X176670434Y-63155038D03*
D10*
X168356559Y-59109893D03*
D11*
X166664787Y-61390773D03*
D10*
X166101073Y-65048453D03*
X175051155Y-57711149D03*
D13*
X175882512Y-60396306D03*
D10*
X175860794Y-60433094D03*
X175949151Y-66784935D03*
D13*
X168348733Y-59067897D03*
D12*
X171667610Y-62272906D03*
D10*
X170643086Y-68083271D03*
X170048331Y-56829016D03*
D14*
X177084053Y-63227971D03*
D37*
X165462600Y-56000119D03*
D36*
X179002055Y-67323245D03*
D35*
X166936339Y-56280288D03*
D37*
X180472597Y-61286896D03*
D39*
X178903850Y-60969665D03*
D38*
X167885624Y-67597057D03*
%TD*%
D10*
%TO.C,SW18*%
X140703287Y-117507642D03*
D11*
X131507280Y-118465321D03*
D14*
X131093661Y-118392389D03*
D11*
X141512927Y-120229586D03*
D10*
X135485579Y-125157819D03*
D14*
X141926546Y-120302519D03*
D10*
X130943566Y-122123001D03*
D13*
X133191226Y-116142445D03*
D10*
X133199052Y-116184441D03*
X134890824Y-113903564D03*
X140791644Y-123859483D03*
D12*
X136510103Y-119347454D03*
D10*
X140703287Y-117507642D03*
X139893648Y-114785697D03*
D13*
X140725005Y-117470854D03*
D36*
X143844548Y-124397793D03*
D37*
X130305093Y-113074667D03*
D35*
X131778832Y-113354836D03*
D38*
X132728117Y-124671605D03*
D37*
X145315090Y-118361444D03*
D39*
X143746343Y-118044213D03*
%TD*%
D32*
%TO.C,D9*%
X188650089Y-90170075D03*
D31*
X191729994Y-91355060D03*
D22*
X182244817Y-87714042D03*
D32*
X185475915Y-88951623D03*
%TD*%
D12*
%TO.C,SW2*%
X147676094Y-53790457D03*
D10*
X142676094Y-57490457D03*
D11*
X152756094Y-53790457D03*
D14*
X142176094Y-53790457D03*
D10*
X150216094Y-48710457D03*
D13*
X143851094Y-51210457D03*
D10*
X151486094Y-51250457D03*
D13*
X151501094Y-51210457D03*
D10*
X143866094Y-51250456D03*
X147676094Y-59690457D03*
X145136094Y-48710457D03*
X151486094Y-51250457D03*
D14*
X153176094Y-53790457D03*
D11*
X142596094Y-53790457D03*
D10*
X152676094Y-57490457D03*
D42*
X155776094Y-57490457D03*
D41*
X141976094Y-48710457D03*
D40*
X140476094Y-48690457D03*
D44*
X144876094Y-59690457D03*
D40*
X156176094Y-51290457D03*
D43*
X154576094Y-51250456D03*
%TD*%
D21*
%TO.C,D12*%
X150178546Y-101644304D03*
D20*
X153478546Y-101646844D03*
D22*
X143318546Y-101646844D03*
D21*
X146778546Y-101644304D03*
%TD*%
D53*
%TO.C,J2*%
X110187485Y-90225828D03*
X110187485Y-91975828D03*
X103187485Y-90225828D03*
X103187485Y-91975828D03*
D54*
X111987485Y-88125828D03*
X111987485Y-94075828D03*
X107987485Y-94075828D03*
X107987485Y-88125828D03*
X104987485Y-88125828D03*
X104987485Y-94075828D03*
X113487485Y-92325828D03*
X113487485Y-89875828D03*
%TD*%
D34*
%TO.C,D18*%
X143219633Y-111889284D03*
D33*
X139970208Y-111313744D03*
X136621862Y-110723340D03*
D22*
X133213986Y-110125019D03*
%TD*%
D20*
%TO.C,D7*%
X153163098Y-82704289D03*
D21*
X149863098Y-82701749D03*
X146463098Y-82701749D03*
D22*
X143003098Y-82704289D03*
%TD*%
D55*
%TO.C,RSW1*%
X101515839Y-104026134D03*
X101515839Y-97526134D03*
%TD*%
D10*
%TO.C,SW13*%
X162904702Y-83904449D03*
D11*
X163532165Y-80257163D03*
D10*
X171981474Y-76724462D03*
D14*
X173917780Y-82275922D03*
D10*
X172720974Y-85812538D03*
X167393058Y-87018073D03*
X166994808Y-75755152D03*
D12*
X168518831Y-81226473D03*
D13*
X165256394Y-77964030D03*
D11*
X173505497Y-82195783D03*
D14*
X163119881Y-80177023D03*
D13*
X172765842Y-79423719D03*
D10*
X165263486Y-78006157D03*
X172743485Y-79460122D03*
X172743485Y-79460122D03*
D56*
X162424241Y-74846350D03*
D57*
X175764018Y-86404046D03*
D58*
X163892866Y-75152196D03*
D59*
X175776714Y-80049721D03*
D56*
X177339685Y-80394281D03*
D60*
X164644502Y-86483808D03*
%TD*%
D10*
%TO.C,SW1*%
X132393443Y-55296516D03*
D14*
X134083443Y-57836516D03*
D11*
X123503443Y-57836516D03*
D14*
X123083443Y-57836516D03*
D13*
X124758443Y-55256516D03*
D11*
X133663443Y-57836516D03*
D10*
X126043443Y-52756516D03*
X128583443Y-63736516D03*
X131123443Y-52756516D03*
X133583443Y-61536516D03*
X124773443Y-55296515D03*
D12*
X128583443Y-57836516D03*
D10*
X123583443Y-61536516D03*
X132393443Y-55296516D03*
D13*
X132408443Y-55256516D03*
D41*
X122883443Y-52756516D03*
D40*
X121383443Y-52736516D03*
D42*
X136683443Y-61536516D03*
D40*
X137083443Y-55336516D03*
D44*
X125783443Y-63736516D03*
D43*
X135483443Y-55296515D03*
%TD*%
D45*
%TO.C,D10*%
X206890781Y-110267353D03*
D46*
X209139518Y-112682553D03*
D22*
X202210415Y-105251999D03*
D45*
X204571987Y-107780751D03*
%TD*%
D33*
%TO.C,D13*%
X168734638Y-91000030D03*
D34*
X171984063Y-91575570D03*
D33*
X165386292Y-90409626D03*
D22*
X161978416Y-89811305D03*
%TD*%
D30*
%TO.C,TH4*%
X136534739Y-67450809D03*
%TD*%
D14*
%TO.C,SW9*%
X185479158Y-78540585D03*
D12*
X190647467Y-80421696D03*
D13*
X195124204Y-79305516D03*
D10*
X187935970Y-76731779D03*
D14*
X195815777Y-82302807D03*
D13*
X187935555Y-76689062D03*
D11*
X195421106Y-82159158D03*
D10*
X195096427Y-79337973D03*
D11*
X185873829Y-78684233D03*
D10*
X184683530Y-82188458D03*
X194080456Y-85608659D03*
X194771749Y-76516788D03*
X189998110Y-74779326D03*
X195096427Y-79337973D03*
X188629549Y-85965882D03*
D17*
X185625983Y-73166718D03*
D16*
X187028682Y-73698542D03*
D15*
X196993503Y-86668922D03*
D17*
X199489905Y-80979635D03*
D18*
X198000078Y-80394815D03*
D19*
X185998409Y-85008226D03*
%TD*%
D10*
%TO.C,SW11*%
X132346639Y-93569851D03*
D14*
X123036639Y-96109851D03*
D10*
X123536639Y-99809851D03*
D13*
X132361639Y-93529851D03*
D11*
X133616639Y-96109851D03*
D10*
X125996639Y-91029851D03*
X124726639Y-93569850D03*
D11*
X123456639Y-96109851D03*
D10*
X133536639Y-99809851D03*
D12*
X128536639Y-96109851D03*
D13*
X124711639Y-93529851D03*
D10*
X132346639Y-93569851D03*
X131076639Y-91029851D03*
X128536639Y-102009851D03*
D14*
X134036639Y-96109851D03*
D41*
X122836639Y-91029851D03*
D40*
X121336639Y-91009851D03*
D42*
X136636639Y-99809851D03*
D40*
X137036639Y-93609851D03*
D44*
X125736639Y-102009851D03*
D43*
X135436639Y-93569850D03*
%TD*%
D30*
%TO.C,TH6*%
X182180536Y-54480069D03*
%TD*%
D61*
%TO.C,D15*%
X192982074Y-123173674D03*
D62*
X195188317Y-125627752D03*
D61*
X190707030Y-120646982D03*
D22*
X188389950Y-118077400D03*
%TD*%
D14*
%TO.C,SW4*%
X202312872Y-64459936D03*
D11*
X201918201Y-64316287D03*
D10*
X196495205Y-56936455D03*
X195126644Y-68123011D03*
X201593522Y-61495102D03*
X201268844Y-58673917D03*
X201593522Y-61495102D03*
X194433065Y-58888908D03*
D13*
X201621299Y-61462645D03*
D10*
X200577551Y-67765788D03*
D14*
X191976253Y-60697714D03*
D13*
X194432650Y-58846191D03*
D10*
X191180625Y-64345587D03*
D12*
X197144562Y-62578825D03*
D11*
X192370924Y-60841362D03*
D17*
X192123078Y-55323847D03*
D15*
X203490598Y-68826051D03*
D16*
X193525777Y-55855671D03*
D19*
X192495504Y-67165355D03*
D18*
X204497173Y-62551944D03*
D17*
X205987000Y-63136764D03*
%TD*%
D30*
%TO.C,TH5*%
X110558705Y-102472173D03*
%TD*%
D21*
%TO.C,D6*%
X130515681Y-87616783D03*
D20*
X133815681Y-87619323D03*
D22*
X123655681Y-87619323D03*
D21*
X127115681Y-87616783D03*
%TD*%
D10*
%TO.C,SW5*%
X232480394Y-87909258D03*
D14*
X223281851Y-85493726D03*
D13*
X226311091Y-84959188D03*
D11*
X230497393Y-93231449D03*
X223568290Y-85800895D03*
D13*
X231528378Y-90554044D03*
D12*
X227032842Y-89516172D03*
D10*
X231488894Y-90570354D03*
D14*
X230783833Y-93538617D03*
D10*
X222717855Y-93539962D03*
X231488894Y-90570354D03*
X229015843Y-84193982D03*
X227736825Y-95696334D03*
X220916841Y-88382797D03*
X226292067Y-84997438D03*
D26*
X226860728Y-81882904D03*
D25*
X229851020Y-97963531D03*
D27*
X225852357Y-80772233D03*
D28*
X220808259Y-91492172D03*
D27*
X234658212Y-94027682D03*
D29*
X233596269Y-92830236D03*
%TD*%
D10*
%TO.C,SW12*%
X143886072Y-89276104D03*
X151506072Y-89276105D03*
D13*
X143871072Y-89236105D03*
D10*
X150236072Y-86736105D03*
D13*
X151521072Y-89236105D03*
D14*
X153196072Y-91816105D03*
D10*
X152696072Y-95516105D03*
X151506072Y-89276105D03*
D12*
X147696072Y-91816105D03*
D10*
X147696072Y-97716105D03*
D11*
X142616072Y-91816105D03*
X152776072Y-91816105D03*
D10*
X142696072Y-95516105D03*
X145156072Y-86736105D03*
D14*
X142196072Y-91816105D03*
D42*
X155796072Y-95516105D03*
D40*
X140496072Y-86716105D03*
D41*
X141996072Y-86736105D03*
D44*
X144896072Y-97716105D03*
D40*
X156196072Y-89316105D03*
D43*
X154596072Y-89276104D03*
%TD*%
M02*
