%TF.GenerationSoftware,KiCad,Pcbnew,(6.0.2)*%
%TF.CreationDate,2022-03-03T13:29:25+00:00*%
%TF.ProjectId,yggdrasil,79676764-7261-4736-996c-2e6b69636164,1.0.0*%
%TF.SameCoordinates,Original*%
%TF.FileFunction,Profile,NP*%
%FSLAX46Y46*%
G04 Gerber Fmt 4.6, Leading zero omitted, Abs format (unit mm)*
G04 Created by KiCad (PCBNEW (6.0.2)) date 2022-03-03 13:29:25*
%MOMM*%
%LPD*%
G01*
G04 APERTURE LIST*
%TA.AperFunction,Profile*%
%ADD10C,0.100000*%
%TD*%
%TA.AperFunction,Profile*%
%ADD11C,0.200000*%
%TD*%
G04 APERTURE END LIST*
D10*
X209482547Y-56857120D02*
X228172989Y-76399574D01*
X100037125Y-48119371D02*
X99689585Y-48362727D01*
X87600614Y-136502541D02*
X87780208Y-136635752D01*
X240781035Y-90043335D02*
X198581031Y-129443331D01*
X99691810Y-105937808D02*
X96940783Y-110022148D01*
X228172989Y-76399574D02*
X240781035Y-90043335D01*
X184415619Y-47563100D02*
X209221838Y-56608070D01*
X87780208Y-136635752D02*
X125171718Y-127286679D01*
X209221838Y-56608070D02*
X209482547Y-56857120D01*
X137985510Y-44250252D02*
X137951267Y-47899766D01*
X164951150Y-43927899D02*
X167098681Y-32324535D01*
X186203958Y-35693316D02*
X184253388Y-47331407D01*
X144375469Y-130672818D02*
X198581031Y-129443331D01*
X184415619Y-47563100D02*
X184253388Y-47331407D01*
D11*
X82957956Y-117913948D02*
X87600614Y-136502541D01*
D10*
X164951150Y-43927899D02*
X164719466Y-44090133D01*
X138217206Y-44088031D02*
X164719466Y-44090133D01*
X100037125Y-48119371D02*
X137916532Y-48096721D01*
D11*
X96940783Y-110022148D02*
X83027418Y-117520020D01*
D10*
X137985510Y-44250252D02*
X138217206Y-44088031D01*
X125171718Y-127286679D02*
X144375469Y-130672818D01*
X137951267Y-47899766D02*
X137916532Y-48096721D01*
D11*
X83027418Y-117520020D02*
X82957956Y-117913948D01*
D10*
X99689585Y-48362727D02*
X99691810Y-105937808D01*
X167098681Y-32324535D02*
X186203958Y-35693316D01*
M02*
